ScheherazadeNew-Regular.ufo
<glyph name="exclam" format="2">
  <advance width="704"/>
  <unicode hex="0021"/>
  <outline>
    <contour>
      <point x="441" y="1109" type="curve" smooth="yes"/>
      <point x="441" y="1229"/>
      <point x="395" y="1292"/>
      <point x="331" y="1292" type="curve" smooth="yes"/>
      <point x="271" y="1292"/>
      <point x="225" y="1229"/>
      <point x="225" y="1109" type="curve" smooth="yes"/>
      <point x="225" y="996"/>
      <point x="242" y="888"/>
      <point x="268" y="745" type="curve" smooth="yes"/>
      <point x="300" y="569"/>
      <point x="305" y="609"/>
      <point x="305" y="256" type="curve" smooth="yes" name="hr01"/>
      <point x="305" y="246"/>
      <point x="318" y="242"/>
      <point x="332" y="242" type="curve" smooth="yes"/>
      <point x="347" y="242"/>
      <point x="361" y="246"/>
      <point x="361" y="256" type="curve" smooth="yes"/>
      <point x="361" y="609"/>
      <point x="366" y="569"/>
      <point x="398" y="745" type="curve" smooth="yes"/>
      <point x="424" y="888"/>
      <point x="441" y="996"/>
    </contour>
    <contour>
      <point x="445" y="50" type="curve" smooth="yes"/>
      <point x="445" y="113"/>
      <point x="395" y="162"/>
      <point x="331" y="162" type="curve" smooth="yes"/>
      <point x="271" y="162"/>
      <point x="221" y="113"/>
      <point x="221" y="50" type="curve" smooth="yes"/>
      <point x="221" y="-11"/>
      <point x="271" y="-60"/>
      <point x="331" y="-60" type="curve" smooth="yes"/>
      <point x="395" y="-60"/>
      <point x="445" y="-11"/>
    </contour>
  </outline>
</glyph>
<glyph name="quotedbl" format="2">
  <advance width="755"/>
  <unicode hex="0022"/>
  <outline>
    <contour>
      <point x="634" y="1158" type="curve" smooth="yes"/>
      <point x="634" y="1212"/>
      <point x="600" y="1253"/>
      <point x="544" y="1253" type="curve" smooth="yes"/>
      <point x="474" y="1253"/>
      <point x="450" y="1210"/>
      <point x="450" y="1145" type="curve" smooth="yes"/>
      <point x="450" y="1025"/>
      <point x="502" y="835"/>
      <point x="521" y="727" type="curve"/>
      <point x="565" y="727" type="line"/>
      <point x="590" y="863"/>
      <point x="634" y="1018"/>
    </contour>
    <contour>
      <point x="302" y="1158" type="curve" smooth="yes"/>
      <point x="302" y="1212"/>
      <point x="268" y="1253"/>
      <point x="211" y="1253" type="curve" smooth="yes"/>
      <point x="143" y="1253"/>
      <point x="120" y="1207"/>
      <point x="120" y="1145" type="curve" smooth="yes"/>
      <point x="120" y="1013"/>
      <point x="167" y="851"/>
      <point x="192" y="727" type="curve"/>
      <point x="228" y="727" type="line"/>
      <point x="244" y="811"/>
      <point x="302" y="1049"/>
    </contour>
  </outline>
</glyph>
<glyph name="numbersign" format="2">
  <advance width="926"/>
  <unicode hex="0023"/>
  <outline>
    <contour>
      <point x="894" y="386" type="line"/>
      <point x="894" y="462" type="line"/>
      <point x="664" y="462" type="line"/>
      <point x="727" y="772" type="line"/>
      <point x="894" y="772" type="line"/>
      <point x="894" y="842" type="line"/>
      <point x="739" y="842" type="line"/>
      <point x="826" y="1253" type="line"/>
      <point x="750" y="1253" type="line"/>
      <point x="664" y="842" type="line"/>
      <point x="359" y="842" type="line"/>
      <point x="438" y="1253" type="line"/>
      <point x="366" y="1253" type="line"/>
      <point x="283" y="842" type="line"/>
      <point x="32" y="842" type="line"/>
      <point x="32" y="772" type="line"/>
      <point x="265" y="772" type="line"/>
      <point x="202" y="462" type="line"/>
      <point x="32" y="462" type="line"/>
      <point x="32" y="386" type="line"/>
      <point x="187" y="386" type="line"/>
      <point x="103" y="-28" type="line"/>
      <point x="180" y="-28" type="line"/>
      <point x="265" y="386" type="line"/>
      <point x="572" y="386" type="line"/>
      <point x="490" y="-28" type="line"/>
      <point x="563" y="-28" type="line"/>
      <point x="647" y="386" type="line"/>
    </contour>
    <contour>
      <point x="652" y="772" type="line"/>
      <point x="587" y="462" type="line"/>
      <point x="277" y="462" type="line"/>
      <point x="342" y="772" type="line"/>
    </contour>
  </outline>
</glyph>
<glyph name="dollar" format="2">
  <advance width="926"/>
  <unicode hex="0024"/>
  <outline>
    <contour>
      <point x="833" y="305" type="curve" smooth="yes"/>
      <point x="833" y="506"/>
      <point x="619" y="624"/>
      <point x="476" y="727" type="curve"/>
      <point x="476" y="1187" type="line"/>
      <point x="647" y="1170"/>
      <point x="725" y="1062"/>
      <point x="739" y="898" type="curve"/>
      <point x="774" y="898" type="line" name="hr01"/>
      <point x="774" y="1168" type="line"/>
      <point x="673" y="1205"/>
      <point x="584" y="1243"/>
      <point x="476" y="1248" type="curve" name="hr02"/>
      <point x="476" y="1332" type="line"/>
      <point x="418" y="1332" type="line"/>
      <point x="418" y="1248" type="line"/>
      <point x="253" y="1236"/>
      <point x="98" y="1133"/>
      <point x="98" y="954" type="curve" smooth="yes"/>
      <point x="98" y="763"/>
      <point x="262" y="660"/>
      <point x="418" y="560" type="curve"/>
      <point x="418" y="35" type="line"/>
      <point x="253" y="49"/>
      <point x="150" y="133"/>
      <point x="138" y="302" type="curve"/>
      <point x="98" y="302" type="line"/>
      <point x="98" y="47" type="line"/>
      <point x="199" y="2"/>
      <point x="310" y="-22"/>
      <point x="418" y="-28" type="curve"/>
      <point x="418" y="-140" type="line"/>
      <point x="476" y="-140" type="line"/>
      <point x="476" y="-28" type="line"/>
      <point x="661" y="-14"/>
      <point x="833" y="106"/>
    </contour>
    <contour>
      <point x="418" y="767" type="line"/>
      <point x="335" y="818"/>
      <point x="239" y="900"/>
      <point x="239" y="1010" type="curve" smooth="yes"/>
      <point x="239" y="1123"/>
      <point x="317" y="1172"/>
      <point x="418" y="1187" type="curve"/>
    </contour>
    <contour>
      <point x="690" y="260" type="curve" smooth="yes"/>
      <point x="690" y="140"/>
      <point x="598" y="42"/>
      <point x="476" y="35" type="curve"/>
      <point x="476" y="521" type="line"/>
      <point x="572" y="456"/>
      <point x="690" y="376"/>
    </contour>
  </outline>
</glyph>
<glyph name="percent" format="2">
  <advance width="1602"/>
  <unicode hex="0025"/>
  <outline>
    <contour>
      <point x="1463" y="460" type="curve" smooth="yes"/>
      <point x="1463" y="572"/>
      <point x="1379" y="664"/>
      <point x="1266" y="664" type="curve" smooth="yes"/>
      <point x="1055" y="664"/>
      <point x="863" y="432"/>
      <point x="863" y="228" type="curve" smooth="yes"/>
      <point x="863" y="68"/>
      <point x="931" y="-28"/>
      <point x="1098" y="-28" type="curve" smooth="yes"/>
      <point x="1330" y="-28"/>
      <point x="1463" y="260"/>
    </contour>
    <contour>
      <point x="541" y="1231" type="curve" smooth="yes"/>
      <point x="331" y="1231"/>
      <point x="140" y="992"/>
      <point x="140" y="791" type="curve" smooth="yes"/>
      <point x="140" y="642"/>
      <point x="199" y="535"/>
      <point x="361" y="535" type="curve" smooth="yes"/>
      <point x="577" y="535"/>
      <point x="742" y="809"/>
      <point x="742" y="1003" type="curve" smooth="yes"/>
      <point x="742" y="1037"/>
      <point x="727" y="1069"/>
      <point x="727" y="1104" type="curve"/>
      <point x="757" y="1091"/>
      <point x="788" y="1088"/>
      <point x="821" y="1088" type="curve" smooth="yes"/>
      <point x="900" y="1088"/>
      <point x="976" y="1106"/>
      <point x="1049" y="1138" type="curve"/>
      <point x="401" y="-28" type="line"/>
      <point x="490" y="-28" type="line"/>
      <point x="1207" y="1259" type="line"/>
      <point x="1118" y="1259" type="line"/>
      <point x="1049" y="1168"/>
      <point x="949" y="1130"/>
      <point x="838" y="1130" type="curve" smooth="yes"/>
      <point x="690" y="1130"/>
      <point x="671" y="1231"/>
    </contour>
    <contour>
      <point x="1416" y="450" type="curve" smooth="yes"/>
      <point x="1416" y="298"/>
      <point x="1297" y="30"/>
      <point x="1118" y="30" type="curve" smooth="yes"/>
      <point x="1037" y="30"/>
      <point x="1003" y="82"/>
      <point x="1003" y="160" type="curve" smooth="yes"/>
      <point x="1003" y="302"/>
      <point x="1116" y="605"/>
      <point x="1285" y="605" type="curve" smooth="yes"/>
      <point x="1372" y="605"/>
      <point x="1416" y="526"/>
    </contour>
    <contour>
      <point x="694" y="1030" type="curve" smooth="yes"/>
      <point x="694" y="872"/>
      <point x="582" y="600"/>
      <point x="398" y="600" type="curve" smooth="yes"/>
      <point x="312" y="600"/>
      <point x="283" y="659"/>
      <point x="283" y="737" type="curve" smooth="yes"/>
      <point x="283" y="853"/>
      <point x="322" y="961"/>
      <point x="390" y="1052" type="curve" smooth="yes"/>
      <point x="422" y="1096"/>
      <point x="487" y="1177"/>
      <point x="548" y="1177" type="curve" smooth="yes"/>
      <point x="572" y="1177"/>
      <point x="642" y="1126"/>
      <point x="678" y="1116" type="curve"/>
      <point x="680" y="1091"/>
      <point x="694" y="1055"/>
    </contour>
  </outline>
</glyph>
<glyph name="quotesingle" format="2">
  <advance width="335"/>
  <unicode hex="0027"/>
  <guideline x="197" y="0" angle="90"/>
  <outline>
    <contour>
      <point x="253" y="1145" type="curve" smooth="yes"/>
      <point x="253" y="1219"/>
      <point x="221" y="1253"/>
      <point x="164" y="1253" type="curve" smooth="yes"/>
      <point x="108" y="1253"/>
      <point x="76" y="1219"/>
      <point x="76" y="1145" type="curve" smooth="yes"/>
      <point x="76" y="1118"/>
      <point x="84" y="1067"/>
      <point x="96" y="995" type="curve"/>
      <point x="145" y="727" type="line"/>
      <point x="185" y="727" type="line"/>
      <point x="234" y="995" type="line" smooth="yes"/>
      <point x="247" y="1069"/>
      <point x="253" y="1118"/>
    </contour>
  </outline>
</glyph>
<glyph name="parenleft" format="2">
  <advance width="832"/>
  <unicode hex="0028"/>
  <outline>
    <contour>
      <point x="772" y="-494" type="line"/>
      <point x="641" y="-363"/>
      <point x="539" y="-251"/>
      <point x="468" y="-114" type="curve" smooth="yes"/>
      <point x="396" y="25"/>
      <point x="318" y="200"/>
      <point x="318" y="436" type="curve" smooth="yes"/>
      <point x="318" y="667"/>
      <point x="395" y="843"/>
      <point x="468" y="981" type="curve" smooth="yes"/>
      <point x="541" y="1119"/>
      <point x="641" y="1237"/>
      <point x="772" y="1364" type="curve"/>
      <point x="753" y="1383" type="line"/>
      <point x="674" y="1349"/>
      <point x="521" y="1239"/>
      <point x="407" y="1115" type="curve" smooth="yes"/>
      <point x="254" y="948"/>
      <point x="120" y="751"/>
      <point x="120" y="436" type="curve" smooth="yes"/>
      <point x="120" y="122"/>
      <point x="250" y="-81"/>
      <point x="407" y="-246" type="curve" smooth="yes"/>
      <point x="524" y="-369"/>
      <point x="674" y="-479"/>
      <point x="753" y="-514" type="curve"/>
    </contour>
  </outline>
</glyph>
<glyph name="parenright" format="2">
  <advance width="832"/>
  <unicode hex="0029"/>
  <outline>
    <contour>
      <point x="60" y="-494" type="curve"/>
      <point x="79" y="-514" type="line"/>
      <point x="158" y="-479"/>
      <point x="308" y="-369"/>
      <point x="425" y="-246" type="curve" smooth="yes"/>
      <point x="582" y="-81"/>
      <point x="712" y="122"/>
      <point x="712" y="436" type="curve" smooth="yes"/>
      <point x="712" y="751"/>
      <point x="578" y="948"/>
      <point x="425" y="1115" type="curve" smooth="yes"/>
      <point x="311" y="1239"/>
      <point x="158" y="1349"/>
      <point x="79" y="1383" type="curve"/>
      <point x="60" y="1364" type="line"/>
      <point x="191" y="1237"/>
      <point x="291" y="1119"/>
      <point x="364" y="981" type="curve" smooth="yes"/>
      <point x="437" y="843"/>
      <point x="514" y="667"/>
      <point x="514" y="436" type="curve" smooth="yes"/>
      <point x="514" y="200"/>
      <point x="436" y="25"/>
      <point x="364" y="-114" type="curve" smooth="yes"/>
      <point x="293" y="-251"/>
      <point x="191" y="-363"/>
    </contour>
  </outline>
</glyph>
<glyph name="plus" format="2">
  <advance width="1098"/>
  <unicode hex="002B"/>
  <outline>
    <contour>
      <point x="1046" y="467" type="line"/>
      <point x="1046" y="544" type="line"/>
      <point x="582" y="544" type="line"/>
      <point x="582" y="1008" type="line"/>
      <point x="509" y="1008" type="line"/>
      <point x="509" y="544" type="line"/>
      <point x="44" y="544" type="line"/>
      <point x="44" y="467" type="line"/>
      <point x="509" y="467" type="line"/>
      <point x="509" y="5" type="line"/>
      <point x="582" y="5" type="line"/>
      <point x="582" y="467" type="line"/>
    </contour>
  </outline>
</glyph>
<glyph name="hyphen" format="2">
  <advance width="617"/>
  <unicode hex="002D"/>
  <outline>
    <contour>
      <point x="541" y="286" type="line"/>
      <point x="541" y="422" type="line"/>
      <point x="73" y="422" type="line"/>
      <point x="73" y="286" type="line"/>
    </contour>
  </outline>
</glyph>
<glyph name="period" format="2">
  <advance width="769"/>
  <unicode hex="002E"/>
  <outline>
    <contour>
      <point x="510" y="79" type="curve" smooth="yes"/>
      <point x="510" y="136"/>
      <point x="463" y="182"/>
      <point x="403" y="182" type="curve" smooth="yes"/>
      <point x="347" y="182"/>
      <point x="300" y="136"/>
      <point x="300" y="79" type="curve" smooth="yes"/>
      <point x="300" y="19"/>
      <point x="347" y="-28"/>
      <point x="403" y="-28" type="curve" smooth="yes"/>
      <point x="463" y="-28"/>
      <point x="510" y="19"/>
    </contour>
  </outline>
</glyph>
<glyph name="slash" format="2">
  <advance width="652"/>
  <unicode hex="002F"/>
  <outline>
    <contour>
      <point x="575" y="1494" type="line"/>
      <point x="499" y="1494" type="line"/>
      <point x="79" y="-312" type="line"/>
      <point x="152" y="-312" type="line"/>
    </contour>
  </outline>
</glyph>
<glyph name="zero" format="2">
  <advance width="926"/>
  <unicode hex="0030"/>
  <outline>
    <contour>
      <point x="860" y="624" type="curve" smooth="yes"/>
      <point x="860" y="858"/>
      <point x="764" y="1253"/>
      <point x="467" y="1253" type="curve" smooth="yes"/>
      <point x="167" y="1253"/>
      <point x="66" y="842"/>
      <point x="66" y="607" type="curve" smooth="yes"/>
      <point x="66" y="376"/>
      <point x="167" y="-22"/>
      <point x="457" y="-22" type="curve" smooth="yes"/>
      <point x="767" y="-22"/>
      <point x="860" y="380"/>
    </contour>
    <contour>
      <point x="683" y="654" type="curve" smooth="yes"/>
      <point x="683" y="503"/>
      <point x="680" y="37"/>
      <point x="462" y="37" type="curve" smooth="yes"/>
      <point x="256" y="37"/>
      <point x="244" y="445"/>
      <point x="244" y="584" type="curve" smooth="yes"/>
      <point x="244" y="722"/>
      <point x="253" y="1194"/>
      <point x="464" y="1194" type="curve" smooth="yes"/>
      <point x="672" y="1194"/>
      <point x="683" y="794"/>
    </contour>
  </outline>
</glyph>
<glyph name="one" format="2">
  <advance width="926"/>
  <unicode hex="0031"/>
  <outline>
    <contour>
      <point x="701" y="0" type="line"/>
      <point x="701" y="35" type="line"/>
      <point x="548" y="35"/>
      <point x="548" y="76"/>
      <point x="548" y="216" type="curve" smooth="yes"/>
      <point x="548" y="1253" type="line"/>
      <point x="516" y="1253" type="line"/>
      <point x="216" y="1106" type="line"/>
      <point x="232" y="1079" type="line"/>
      <point x="258" y="1091"/>
      <point x="293" y="1106"/>
      <point x="324" y="1106" type="curve" smooth="yes"/>
      <point x="396" y="1106"/>
      <point x="398" y="1019"/>
      <point x="398" y="907" type="curve" smooth="yes"/>
      <point x="398" y="216" type="line" smooth="yes"/>
      <point x="398" y="71"/>
      <point x="396" y="35"/>
      <point x="239" y="35" type="curve"/>
      <point x="239" y="0" type="line"/>
    </contour>
  </outline>
</glyph>
<glyph name="three" format="2">
  <advance width="926"/>
  <unicode hex="0033"/>
  <outline>
    <contour>
      <point x="774" y="406" type="curve" smooth="yes"/>
      <point x="774" y="565"/>
      <point x="694" y="673"/>
      <point x="546" y="727" type="curve"/>
      <point x="624" y="797"/>
      <point x="710" y="892"/>
      <point x="710" y="1003" type="curve" smooth="yes" name="hr01"/>
      <point x="710" y="1165"/>
      <point x="572" y="1253"/>
      <point x="425" y="1253" type="curve" smooth="yes"/>
      <point x="246" y="1253"/>
      <point x="164" y="1140"/>
      <point x="94" y="992" type="curve"/>
      <point x="125" y="978" type="line"/>
      <point x="180" y="1064"/>
      <point x="256" y="1128"/>
      <point x="359" y="1128" type="curve" smooth="yes"/>
      <point x="481" y="1128"/>
      <point x="560" y="1039"/>
      <point x="560" y="922" type="curve" smooth="yes"/>
      <point x="560" y="767"/>
      <point x="430" y="654"/>
      <point x="283" y="636" type="curve"/>
      <point x="283" y="607" type="line"/>
      <point x="481" y="605"/>
      <point x="638" y="511"/>
      <point x="638" y="295" type="curve" smooth="yes" name="hr02"/>
      <point x="638" y="169"/>
      <point x="539" y="56"/>
      <point x="410" y="56" type="curve" smooth="yes"/>
      <point x="300" y="56"/>
      <point x="226" y="140"/>
      <point x="148" y="140" type="curve" smooth="yes"/>
      <point x="113" y="140"/>
      <point x="76" y="113"/>
      <point x="76" y="76" type="curve" smooth="yes"/>
      <point x="76" y="-17"/>
      <point x="223" y="-22"/>
      <point x="288" y="-22" type="curve" smooth="yes"/>
      <point x="553" y="-22"/>
      <point x="774" y="122"/>
    </contour>
  </outline>
</glyph>
<glyph name="five" format="2">
  <advance width="926"/>
  <unicode hex="0035"/>
  <outline>
    <contour>
      <point x="804" y="1226" type="line"/>
      <point x="366" y="1226" type="line"/>
      <point x="131" y="750" type="line"/>
      <point x="371" y="742"/>
      <point x="666" y="631"/>
      <point x="666" y="347" type="curve" smooth="yes"/>
      <point x="666" y="197"/>
      <point x="551" y="71"/>
      <point x="401" y="71" type="curve" smooth="yes"/>
      <point x="295" y="71"/>
      <point x="234" y="164"/>
      <point x="160" y="164" type="curve" smooth="yes"/>
      <point x="115" y="164"/>
      <point x="89" y="145"/>
      <point x="89" y="98" type="curve" smooth="yes"/>
      <point x="89" y="-2"/>
      <point x="226" y="-22"/>
      <point x="300" y="-22" type="curve" smooth="yes"/>
      <point x="556" y="-22"/>
      <point x="784" y="180"/>
      <point x="784" y="443" type="curve" smooth="yes"/>
      <point x="784" y="710"/>
      <point x="530" y="884"/>
      <point x="283" y="910" type="curve"/>
      <point x="366" y="1072" type="line" name="hr01"/>
      <point x="734" y="1072" type="line"/>
    </contour>
  </outline>
</glyph>
<glyph name="six" format="2">
  <advance width="926"/>
  <unicode hex="0036"/>
  <outline>
    <contour>
      <point x="830" y="1219" type="curve"/>
      <point x="830" y="1253" type="line"/>
      <point x="779" y="1253" type="line" smooth="yes"/>
      <point x="383" y="1253"/>
      <point x="82" y="856"/>
      <point x="82" y="481" type="curve" smooth="yes"/>
      <point x="82" y="256"/>
      <point x="204" y="-22"/>
      <point x="464" y="-22" type="curve" smooth="yes"/>
      <point x="701" y="-22"/>
      <point x="856" y="192"/>
      <point x="856" y="413" type="curve" smooth="yes"/>
      <point x="856" y="595"/>
      <point x="745" y="774"/>
      <point x="546" y="774" type="curve" smooth="yes"/>
      <point x="450" y="774"/>
      <point x="361" y="737"/>
      <point x="283" y="683" type="curve"/>
      <point x="347" y="954"/>
      <point x="533" y="1201"/>
    </contour>
    <contour>
      <point x="694" y="314" type="curve" smooth="yes"/>
      <point x="694" y="194"/>
      <point x="638" y="30"/>
      <point x="492" y="30" type="curve" smooth="yes"/>
      <point x="317" y="30"/>
      <point x="251" y="283"/>
      <point x="251" y="422" type="curve" smooth="yes"/>
      <point x="251" y="487"/>
      <point x="258" y="553"/>
      <point x="268" y="619" type="curve"/>
      <point x="317" y="649"/>
      <point x="398" y="696"/>
      <point x="457" y="696" type="curve" smooth="yes"/>
      <point x="647" y="696"/>
      <point x="694" y="462"/>
    </contour>
  </outline>
</glyph>
<glyph name="seven" format="2">
  <advance width="926"/>
  <unicode hex="0037"/>
  <outline>
    <contour>
      <point x="840" y="1194" type="line"/>
      <point x="840" y="1226" type="line"/>
      <point x="187" y="1226" type="line"/>
      <point x="68" y="936" type="line"/>
      <point x="94" y="929" type="line"/>
      <point x="164" y="1052"/>
      <point x="218" y="1079"/>
      <point x="364" y="1079" type="curve" smooth="yes"/>
      <point x="701" y="1079" type="line"/>
      <point x="335" y="-28" type="line"/>
      <point x="432" y="-28" type="line"/>
    </contour>
  </outline>
</glyph>
<glyph name="eight" format="2">
  <advance width="926"/>
  <unicode hex="0038"/>
  <outline>
    <contour>
      <point x="821" y="290" type="curve" smooth="yes"/>
      <point x="821" y="455"/>
      <point x="685" y="569"/>
      <point x="541" y="680" type="curve"/>
      <point x="649" y="748"/>
      <point x="794" y="842"/>
      <point x="794" y="988" type="curve" smooth="yes" name="hr01"/>
      <point x="794" y="1165"/>
      <point x="619" y="1253"/>
      <point x="464" y="1253" type="curve" smooth="yes"/>
      <point x="290" y="1253"/>
      <point x="125" y="1147"/>
      <point x="125" y="961" type="curve" smooth="yes"/>
      <point x="125" y="814"/>
      <point x="218" y="733"/>
      <point x="356" y="617" type="curve"/>
      <point x="248" y="541"/>
      <point x="110" y="425"/>
      <point x="110" y="280" type="curve" smooth="yes" name="hr02"/>
      <point x="110" y="91"/>
      <point x="290" y="-22"/>
      <point x="464" y="-22" type="curve" smooth="yes"/>
      <point x="654" y="-22"/>
      <point x="821" y="84"/>
    </contour>
    <contour>
      <point x="664" y="997" type="curve" smooth="yes" name="hr03"/>
      <point x="664" y="875"/>
      <point x="599" y="808"/>
      <point x="499" y="715" type="curve"/>
      <point x="382" y="803"/>
      <point x="258" y="896"/>
      <point x="258" y="1020" type="curve" smooth="yes"/>
      <point x="258" y="1138"/>
      <point x="356" y="1199"/>
      <point x="464" y="1199" type="curve" smooth="yes"/>
      <point x="598" y="1199"/>
      <point x="664" y="1130"/>
    </contour>
    <contour>
      <point x="690" y="216" type="curve" smooth="yes" name="hr04"/>
      <point x="690" y="94"/>
      <point x="590" y="30"/>
      <point x="476" y="30" type="curve" smooth="yes"/>
      <point x="326" y="30"/>
      <point x="251" y="145"/>
      <point x="251" y="283" type="curve" smooth="yes"/>
      <point x="251" y="406"/>
      <point x="307" y="506"/>
      <point x="398" y="584" type="curve"/>
      <point x="569" y="452"/>
      <point x="690" y="349"/>
    </contour>
  </outline>
</glyph>
<glyph name="nine" format="2">
  <advance width="926"/>
  <unicode hex="0039"/>
  <outline>
    <contour>
      <point x="846" y="748" type="curve" smooth="yes"/>
      <point x="846" y="973"/>
      <point x="715" y="1253"/>
      <point x="457" y="1253" type="curve" smooth="yes"/>
      <point x="218" y="1253"/>
      <point x="73" y="1030"/>
      <point x="73" y="814" type="curve" smooth="yes"/>
      <point x="73" y="626"/>
      <point x="185" y="448"/>
      <point x="386" y="448" type="curve" smooth="yes"/>
      <point x="479" y="448"/>
      <point x="568" y="490"/>
      <point x="644" y="541" type="curve"/>
      <point x="577" y="275"/>
      <point x="394" y="14"/>
      <point x="98" y="7" type="curve"/>
      <point x="98" y="-28" type="line"/>
      <point x="150" y="-28" type="line" smooth="yes"/>
      <point x="546" y="-28"/>
      <point x="846" y="373"/>
    </contour>
    <contour>
      <point x="676" y="794" type="curve" smooth="yes"/>
      <point x="676" y="730"/>
      <point x="666" y="668"/>
      <point x="659" y="607" type="curve"/>
      <point x="626" y="563"/>
      <point x="511" y="528"/>
      <point x="460" y="528" type="curve" smooth="yes"/>
      <point x="280" y="528"/>
      <point x="236" y="769"/>
      <point x="236" y="907" type="curve" smooth="yes"/>
      <point x="236" y="1027"/>
      <point x="286" y="1194"/>
      <point x="434" y="1194" type="curve" smooth="yes"/>
      <point x="617" y="1194"/>
      <point x="676" y="934"/>
    </contour>
  </outline>
</glyph>
<glyph name="colon" format="2">
  <advance width="929"/>
  <unicode hex="003A"/>
  <outline>
    <contour>
      <point x="564" y="706" type="curve" smooth="yes"/>
      <point x="564" y="779"/>
      <point x="508" y="834"/>
      <point x="439" y="834" type="curve" smooth="yes"/>
      <point x="368" y="834"/>
      <point x="312" y="779"/>
      <point x="312" y="706" type="curve" smooth="yes"/>
      <point x="312" y="635"/>
      <point x="368" y="579"/>
      <point x="439" y="579" type="curve" smooth="yes"/>
      <point x="508" y="579"/>
      <point x="564" y="635"/>
    </contour>
    <contour>
      <point x="564" y="20" type="curve" smooth="yes"/>
      <point x="564" y="91"/>
      <point x="508" y="148"/>
      <point x="439" y="148" type="curve" smooth="yes"/>
      <point x="368" y="148"/>
      <point x="312" y="91"/>
      <point x="312" y="20" type="curve" smooth="yes"/>
      <point x="312" y="-48"/>
      <point x="368" y="-104"/>
      <point x="439" y="-104" type="curve" smooth="yes"/>
      <point x="508" y="-104"/>
      <point x="564" y="-48"/>
    </contour>
  </outline>
</glyph>
<glyph name="greater" format="2">
  <advance width="1782"/>
  <unicode hex="003E"/>
  <outline>
    <contour>
      <point x="1426" y="479" type="line"/>
      <point x="1426" y="590" type="line"/>
      <point x="356" y="1001" type="line"/>
      <point x="356" y="889" type="line"/>
      <point x="1313" y="535" type="line"/>
      <point x="356" y="180" type="line"/>
      <point x="356" y="68" type="line"/>
    </contour>
  </outline>
</glyph>
<glyph name="question" format="2">
  <advance width="866"/>
  <unicode hex="003F"/>
  <outline>
    <contour>
      <point x="766" y="968" type="curve" smooth="yes"/>
      <point x="766" y="1165"/>
      <point x="603" y="1253"/>
      <point x="426" y="1253" type="curve" smooth="yes"/>
      <point x="267" y="1253"/>
      <point x="100" y="1175"/>
      <point x="100" y="995" type="curve" smooth="yes"/>
      <point x="100" y="936"/>
      <point x="129" y="853"/>
      <point x="201" y="853" type="curve" smooth="yes"/>
      <point x="242" y="853"/>
      <point x="272" y="889"/>
      <point x="272" y="929" type="curve" smooth="yes"/>
      <point x="272" y="968"/>
      <point x="215" y="1037"/>
      <point x="215" y="1086" type="curve" smooth="yes"/>
      <point x="215" y="1170"/>
      <point x="318" y="1205"/>
      <point x="387" y="1205" type="curve" smooth="yes"/>
      <point x="530" y="1205"/>
      <point x="596" y="1084"/>
      <point x="596" y="956" type="curve" smooth="yes"/>
      <point x="596" y="858"/>
      <point x="560" y="767"/>
      <point x="512" y="686" type="curve" smooth="yes"/>
      <point x="438" y="563"/>
      <point x="394" y="432"/>
      <point x="389" y="288" type="curve"/>
      <point x="426" y="288" type="line"/>
      <point x="441" y="607"/>
      <point x="766" y="696"/>
    </contour>
    <contour>
      <point x="532" y="77" type="curve" smooth="yes"/>
      <point x="532" y="138"/>
      <point x="484" y="186"/>
      <point x="421" y="186" type="curve" smooth="yes"/>
      <point x="363" y="186"/>
      <point x="314" y="138"/>
      <point x="314" y="77" type="curve" smooth="yes"/>
      <point x="314" y="18"/>
      <point x="363" y="-30"/>
      <point x="421" y="-30" type="curve" smooth="yes"/>
      <point x="484" y="-30"/>
      <point x="532" y="18"/>
    </contour>
  </outline>
</glyph>
<glyph name="at" format="2">
  <advance width="1708"/>
  <unicode hex="0040"/>
  <outline>
    <contour>
      <point x="1609" y="155" type="line"/>
      <point x="1475" y="-150"/>
      <point x="1222" y="-344"/>
      <point x="882" y="-344" type="curve" smooth="yes"/>
      <point x="455" y="-344"/>
      <point x="172" y="-47"/>
      <point x="172" y="378" type="curve" smooth="yes"/>
      <point x="172" y="826"/>
      <point x="472" y="1241"/>
      <point x="949" y="1241" type="curve" smooth="yes"/>
      <point x="1278" y="1241"/>
      <point x="1534" y="1025"/>
      <point x="1534" y="683" type="curve" smooth="yes"/>
      <point x="1534" y="528"/>
      <point x="1494" y="373"/>
      <point x="1398" y="250" type="curve" smooth="yes"/>
      <point x="1337" y="172"/>
      <point x="1256" y="94"/>
      <point x="1153" y="94" type="curve" smooth="yes"/>
      <point x="1116" y="94"/>
      <point x="1084" y="122"/>
      <point x="1084" y="160" type="curve" smooth="yes"/>
      <point x="1084" y="246"/>
      <point x="1256" y="809"/>
      <point x="1273" y="868" type="curve"/>
      <point x="1130" y="846" type="line"/>
      <point x="1104" y="748" type="line"/>
      <point x="1086" y="830"/>
      <point x="1032" y="872"/>
      <point x="946" y="872" type="curve" smooth="yes"/>
      <point x="685" y="872"/>
      <point x="450" y="472"/>
      <point x="450" y="236" type="curve" smooth="yes"/>
      <point x="450" y="140"/>
      <point x="499" y="30"/>
      <point x="612" y="30" type="curve" smooth="yes"/>
      <point x="742" y="30"/>
      <point x="892" y="194"/>
      <point x="968" y="286" type="curve"/>
      <point x="961" y="244"/>
      <point x="954" y="202"/>
      <point x="954" y="160" type="curve" smooth="yes"/>
      <point x="954" y="71"/>
      <point x="1003" y="30"/>
      <point x="1091" y="30" type="curve" smooth="yes"/>
      <point x="1423" y="30"/>
      <point x="1590" y="376"/>
      <point x="1590" y="666" type="curve" smooth="yes"/>
      <point x="1590" y="1052"/>
      <point x="1320" y="1285"/>
      <point x="943" y="1285" type="curve" smooth="yes" name="hr01"/>
      <point x="445" y="1285"/>
      <point x="89" y="892"/>
      <point x="89" y="403" type="curve" smooth="yes"/>
      <point x="89" y="-52"/>
      <point x="418" y="-401"/>
      <point x="877" y="-401" type="curve" smooth="yes"/>
      <point x="1217" y="-401"/>
      <point x="1568" y="-187"/>
      <point x="1661" y="155" type="curve"/>
    </contour>
    <contour>
      <point x="1069" y="683" type="curve" smooth="yes"/>
      <point x="1069" y="511"/>
      <point x="898" y="138"/>
      <point x="696" y="138" type="curve" smooth="yes"/>
      <point x="629" y="138"/>
      <point x="593" y="206"/>
      <point x="593" y="265" type="curve" smooth="yes"/>
      <point x="593" y="425"/>
      <point x="776" y="830"/>
      <point x="956" y="830" type="curve" smooth="yes"/>
      <point x="1046" y="830"/>
      <point x="1069" y="760"/>
    </contour>
  </outline>
</glyph>
<glyph name="B" format="2">
  <advance width="1205"/>
  <unicode hex="0042"/>
  <outline>
    <contour>
      <point x="1133" y="335" type="curve" smooth="yes"/>
      <point x="1133" y="511"/>
      <point x="1018" y="598"/>
      <point x="856" y="626" type="curve"/>
      <point x="980" y="666"/>
      <point x="1079" y="760"/>
      <point x="1079" y="898" type="curve" smooth="yes" name="hr01"/>
      <point x="1079" y="1182"/>
      <point x="784" y="1226"/>
      <point x="560" y="1226" type="curve" smooth="yes"/>
      <point x="32" y="1226" type="line"/>
      <point x="32" y="1194" type="line"/>
      <point x="190" y="1194"/>
      <point x="206" y="1163"/>
      <point x="206" y="1010" type="curve" smooth="yes"/>
      <point x="206" y="216" type="line" smooth="yes"/>
      <point x="206" y="68"/>
      <point x="185" y="35"/>
      <point x="32" y="35" type="curve"/>
      <point x="32" y="0" type="line"/>
      <point x="610" y="0" type="line" smooth="yes"/>
      <point x="835" y="0"/>
      <point x="1133" y="44"/>
    </contour>
    <contour>
      <point x="887" y="907" type="curve" smooth="yes" name="hr03"/>
      <point x="887" y="710"/>
      <point x="722" y="664"/>
      <point x="553" y="664" type="curve" smooth="yes"/>
      <point x="497" y="664"/>
      <point x="438" y="664"/>
      <point x="380" y="676" type="curve"/>
      <point x="380" y="1147" type="line"/>
      <point x="434" y="1160"/>
      <point x="490" y="1165"/>
      <point x="546" y="1165" type="curve" smooth="yes"/>
      <point x="708" y="1165"/>
      <point x="887" y="1098"/>
    </contour>
    <contour>
      <point x="924" y="322" type="curve" smooth="yes" name="hr04"/>
      <point x="924" y="133"/>
      <point x="752" y="64"/>
      <point x="590" y="64" type="curve" smooth="yes"/>
      <point x="518" y="64"/>
      <point x="450" y="73"/>
      <point x="380" y="89" type="curve"/>
      <point x="380" y="593" type="line"/>
      <point x="433" y="600"/>
      <point x="490" y="600"/>
      <point x="541" y="600" type="curve" smooth="yes"/>
      <point x="720" y="600"/>
      <point x="924" y="533"/>
    </contour>
  </outline>
</glyph>
<glyph name="D" format="2">
  <advance width="1337"/>
  <unicode hex="0044"/>
  <outline>
    <contour>
      <point x="1266" y="619" type="curve" smooth="yes"/>
      <point x="1266" y="1088"/>
      <point x="943" y="1226"/>
      <point x="530" y="1226" type="curve" smooth="yes"/>
      <point x="32" y="1226" type="line"/>
      <point x="32" y="1194" type="line"/>
      <point x="190" y="1194"/>
      <point x="206" y="1165"/>
      <point x="206" y="1010" type="curve" smooth="yes"/>
      <point x="206" y="216" type="line" smooth="yes"/>
      <point x="206" y="66"/>
      <point x="185" y="35"/>
      <point x="32" y="35" type="curve"/>
      <point x="32" y="0" type="line"/>
      <point x="580" y="0" type="line" smooth="yes"/>
      <point x="973" y="0"/>
      <point x="1266" y="204"/>
    </contour>
    <contour>
      <point x="1062" y="612" type="curve" smooth="yes"/>
      <point x="1062" y="312"/>
      <point x="892" y="61"/>
      <point x="572" y="61" type="curve" smooth="yes"/>
      <point x="509" y="61"/>
      <point x="443" y="73"/>
      <point x="380" y="89" type="curve"/>
      <point x="380" y="1130" type="line"/>
      <point x="443" y="1147"/>
      <point x="504" y="1158"/>
      <point x="568" y="1158" type="curve" smooth="yes"/>
      <point x="889" y="1158"/>
      <point x="1062" y="914"/>
    </contour>
  </outline>
</glyph>
<glyph name="G" format="2">
  <advance width="1337"/>
  <unicode hex="0047"/>
  <outline>
    <contour>
      <point x="1313" y="668" type="line"/>
      <point x="838" y="668" type="line"/>
      <point x="838" y="636" type="line"/>
      <point x="980" y="631"/>
      <point x="997" y="593"/>
      <point x="997" y="457" type="curve" smooth="yes"/>
      <point x="997" y="101" type="line"/>
      <point x="922" y="56"/>
      <point x="833" y="35"/>
      <point x="745" y="35" type="curve" smooth="yes"/>
      <point x="420" y="35"/>
      <point x="272" y="349"/>
      <point x="272" y="634" type="curve" smooth="yes"/>
      <point x="272" y="919"/>
      <point x="413" y="1192"/>
      <point x="732" y="1192" type="curve" smooth="yes"/>
      <point x="949" y="1192"/>
      <point x="1074" y="1064"/>
      <point x="1138" y="868" type="curve"/>
      <point x="1170" y="868" type="line"/>
      <point x="1138" y="1253" type="line"/>
      <point x="1106" y="1253" type="line"/>
      <point x="1104" y="1231"/>
      <point x="1093" y="1177"/>
      <point x="1060" y="1177" type="curve" smooth="yes"/>
      <point x="1036" y="1177"/>
      <point x="901" y="1253"/>
      <point x="715" y="1253" type="curve" smooth="yes"/>
      <point x="347" y="1253"/>
      <point x="64" y="961"/>
      <point x="64" y="595" type="curve" smooth="yes"/>
      <point x="64" y="199"/>
      <point x="366" y="-30"/>
      <point x="742" y="-30" type="curve" smooth="yes"/>
      <point x="894" y="-30"/>
      <point x="1044" y="5"/>
      <point x="1175" y="82" type="curve"/>
      <point x="1175" y="457" type="line" smooth="yes"/>
      <point x="1175" y="570"/>
      <point x="1180" y="636"/>
      <point x="1313" y="636" type="curve"/>
    </contour>
  </outline>
</glyph>
<glyph name="H" format="2">
  <advance width="1337"/>
  <unicode hex="0048"/>
  <outline>
    <contour>
      <point x="1300" y="0" type="line"/>
      <point x="1300" y="35" type="line"/>
      <point x="1156" y="35"/>
      <point x="1127" y="56"/>
      <point x="1127" y="204" type="curve" smooth="yes"/>
      <point x="1127" y="1025" type="line" smooth="yes"/>
      <point x="1127" y="1168"/>
      <point x="1156" y="1194"/>
      <point x="1300" y="1194" type="curve"/>
      <point x="1300" y="1226" type="line"/>
      <point x="774" y="1226" type="line"/>
      <point x="774" y="1194" type="line"/>
      <point x="929" y="1194"/>
      <point x="952" y="1160"/>
      <point x="952" y="1010" type="curve" smooth="yes"/>
      <point x="952" y="659" type="line"/>
      <point x="378" y="659" type="line"/>
      <point x="378" y="1010" type="line" smooth="yes"/>
      <point x="378" y="1160"/>
      <point x="406" y="1194"/>
      <point x="558" y="1194" type="curve"/>
      <point x="558" y="1226" type="line"/>
      <point x="32" y="1226" type="line"/>
      <point x="32" y="1194" type="line"/>
      <point x="187" y="1194"/>
      <point x="206" y="1160"/>
      <point x="206" y="1010" type="curve" smooth="yes"/>
      <point x="206" y="216" type="line" smooth="yes"/>
      <point x="206" y="66"/>
      <point x="190" y="35"/>
      <point x="32" y="35" type="curve"/>
      <point x="32" y="0" type="line"/>
      <point x="558" y="0" type="line"/>
      <point x="558" y="35" type="line"/>
      <point x="401" y="35"/>
      <point x="378" y="66"/>
      <point x="378" y="216" type="curve" smooth="yes"/>
      <point x="378" y="593" type="line"/>
      <point x="952" y="593" type="line"/>
      <point x="952" y="216" type="line" smooth="yes"/>
      <point x="952" y="68"/>
      <point x="929" y="35"/>
      <point x="774" y="35" type="curve"/>
      <point x="774" y="0" type="line"/>
    </contour>
  </outline>
</glyph>
<glyph name="K" format="2">
  <advance width="1337"/>
  <unicode hex="004B"/>
  <outline>
    <contour>
      <point x="1354" y="0" type="line"/>
      <point x="1354" y="35" type="line"/>
      <point x="1201" y="49"/>
      <point x="1114" y="127"/>
      <point x="1008" y="232" type="curve" smooth="yes"/>
      <point x="553" y="680" type="line"/>
      <point x="742" y="869" type="line" smooth="yes"/>
      <point x="976" y="1103"/>
      <point x="1066" y="1194"/>
      <point x="1194" y="1194" type="curve"/>
      <point x="1194" y="1226" type="line"/>
      <point x="742" y="1226" type="line"/>
      <point x="742" y="1194" type="line"/>
      <point x="803" y="1194"/>
      <point x="853" y="1190"/>
      <point x="853" y="1142" type="curve" smooth="yes"/>
      <point x="853" y="1068"/>
      <point x="692" y="919"/>
      <point x="378" y="624" type="curve"/>
      <point x="378" y="1010" type="line" smooth="yes"/>
      <point x="378" y="1160"/>
      <point x="403" y="1194"/>
      <point x="553" y="1194" type="curve"/>
      <point x="553" y="1226" type="line"/>
      <point x="32" y="1226" type="line"/>
      <point x="32" y="1194" type="line"/>
      <point x="190" y="1194"/>
      <point x="204" y="1158"/>
      <point x="204" y="1010" type="curve" smooth="yes" name="hr01"/>
      <point x="204" y="216" type="line" smooth="yes"/>
      <point x="204" y="66"/>
      <point x="190" y="35"/>
      <point x="32" y="35" type="curve"/>
      <point x="32" y="0" type="line"/>
      <point x="553" y="0" type="line"/>
      <point x="553" y="35" type="line"/>
      <point x="398" y="35"/>
      <point x="378" y="66"/>
      <point x="378" y="216" type="curve" smooth="yes"/>
      <point x="378" y="506" type="line"/>
      <point x="432" y="560" type="line"/>
      <point x="802" y="192" type="line" smooth="yes"/>
      <point x="821" y="174"/>
      <point x="870" y="122"/>
      <point x="870" y="96" type="curve" smooth="yes"/>
      <point x="870" y="44"/>
      <point x="811" y="35"/>
      <point x="769" y="35" type="curve"/>
      <point x="769" y="0" type="line"/>
    </contour>
  </outline>
</glyph>
<glyph name="M" format="2">
  <advance width="1649"/>
  <unicode hex="004D"/>
  <outline>
    <contour>
      <point x="1609" y="0" type="line"/>
      <point x="1609" y="35" type="line"/>
      <point x="1457" y="35"/>
      <point x="1435" y="64"/>
      <point x="1435" y="214" type="curve" smooth="yes"/>
      <point x="1435" y="1015" type="line" smooth="yes"/>
      <point x="1435" y="1163"/>
      <point x="1454" y="1194"/>
      <point x="1609" y="1194" type="curve"/>
      <point x="1609" y="1226" type="line"/>
      <point x="1261" y="1226" type="line"/>
      <point x="823" y="268" type="line"/>
      <point x="378" y="1226" type="line"/>
      <point x="32" y="1226" type="line"/>
      <point x="32" y="1194" type="line"/>
      <point x="169" y="1194"/>
      <point x="204" y="1147"/>
      <point x="204" y="1015" type="curve" smooth="yes"/>
      <point x="204" y="214" type="line" smooth="yes"/>
      <point x="204" y="66"/>
      <point x="185" y="35"/>
      <point x="32" y="35" type="curve"/>
      <point x="32" y="0" type="line"/>
      <point x="457" y="0" type="line"/>
      <point x="457" y="35" type="line"/>
      <point x="305" y="35"/>
      <point x="283" y="64"/>
      <point x="283" y="214" type="curve" smooth="yes"/>
      <point x="283" y="1032" type="line"/>
      <point x="757" y="0" type="line"/>
      <point x="786" y="0" type="line"/>
      <point x="1261" y="1032" type="line"/>
      <point x="1261" y="214" type="line" smooth="yes"/>
      <point x="1261" y="66"/>
      <point x="1238" y="35"/>
      <point x="1086" y="35" type="curve"/>
      <point x="1086" y="0" type="line"/>
    </contour>
  </outline>
</glyph>
<glyph name="O" format="2">
  <advance width="1337"/>
  <unicode hex="004F"/>
  <anchor x="665" y="1308" name="above"/>
  <outline>
    <contour>
      <point x="1266" y="619" type="curve" smooth="yes"/>
      <point x="1266" y="959"/>
      <point x="1032" y="1253"/>
      <point x="678" y="1253" type="curve" smooth="yes"/>
      <point x="317" y="1253"/>
      <point x="64" y="971"/>
      <point x="64" y="617" type="curve" smooth="yes"/>
      <point x="64" y="265"/>
      <point x="298" y="-30"/>
      <point x="664" y="-30" type="curve" smooth="yes"/>
      <point x="1027" y="-30"/>
      <point x="1266" y="270"/>
    </contour>
    <contour>
      <point x="1060" y="607" type="curve" smooth="yes"/>
      <point x="1060" y="344"/>
      <point x="983" y="37"/>
      <point x="661" y="37" type="curve" smooth="yes"/>
      <point x="354" y="37"/>
      <point x="272" y="376"/>
      <point x="272" y="622" type="curve" smooth="yes"/>
      <point x="272" y="872"/>
      <point x="352" y="1189"/>
      <point x="659" y="1189" type="curve" smooth="yes"/>
      <point x="992" y="1189"/>
      <point x="1060" y="877"/>
    </contour>
  </outline>
</glyph>
<glyph name="Q" format="2">
  <advance width="1337"/>
  <unicode hex="0051"/>
  <outline>
    <contour>
      <point x="1266" y="612" type="curve" smooth="yes"/>
      <point x="1266" y="956"/>
      <point x="1034" y="1253"/>
      <point x="676" y="1253" type="curve" smooth="yes"/>
      <point x="312" y="1253"/>
      <point x="64" y="968"/>
      <point x="64" y="614" type="curve" smooth="yes"/>
      <point x="64" y="302"/>
      <point x="209" y="91"/>
      <point x="504" y="-12" type="curve"/>
      <point x="680" y="-206"/>
      <point x="997" y="-352"/>
      <point x="1261" y="-364" type="curve"/>
      <point x="1261" y="-335" type="line"/>
      <point x="1057" y="-317"/>
      <point x="914" y="-182"/>
      <point x="816" y="-12" type="curve"/>
      <point x="1096" y="73"/>
      <point x="1266" y="322"/>
    </contour>
    <contour>
      <point x="1060" y="590" type="curve" smooth="yes"/>
      <point x="1060" y="331"/>
      <point x="976" y="35"/>
      <point x="664" y="35" type="curve" smooth="yes"/>
      <point x="354" y="35"/>
      <point x="272" y="366"/>
      <point x="272" y="614" type="curve" smooth="yes"/>
      <point x="272" y="870"/>
      <point x="349" y="1187"/>
      <point x="664" y="1187" type="curve" smooth="yes"/>
      <point x="983" y="1187"/>
      <point x="1060" y="848"/>
    </contour>
  </outline>
</glyph>
<glyph name="S" format="2">
  <advance width="1030"/>
  <unicode hex="0053"/>
  <anchor x="524" y="1308" name="above"/>
  <outline>
    <contour>
      <point x="931" y="314" type="curve" smooth="yes"/>
      <point x="931" y="696"/>
      <point x="260" y="725"/>
      <point x="260" y="995" type="curve" smooth="yes"/>
      <point x="260" y="1109"/>
      <point x="368" y="1182"/>
      <point x="476" y="1182" type="curve" smooth="yes"/>
      <point x="683" y="1182"/>
      <point x="799" y="1022"/>
      <point x="816" y="830" type="curve"/>
      <point x="851" y="830" type="line"/>
      <point x="851" y="1253" type="line"/>
      <point x="816" y="1253" type="line"/>
      <point x="809" y="1226"/>
      <point x="794" y="1184"/>
      <point x="757" y="1184" type="curve" smooth="yes"/>
      <point x="703" y="1184"/>
      <point x="584" y="1253"/>
      <point x="474" y="1253" type="curve" smooth="yes"/>
      <point x="286" y="1253"/>
      <point x="118" y="1133"/>
      <point x="118" y="931" type="curve" smooth="yes"/>
      <point x="118" y="560"/>
      <point x="769" y="526"/>
      <point x="769" y="244" type="curve" smooth="yes"/>
      <point x="769" y="110"/>
      <point x="644" y="42"/>
      <point x="526" y="42" type="curve" smooth="yes"/>
      <point x="307" y="42"/>
      <point x="185" y="185"/>
      <point x="160" y="394" type="curve"/>
      <point x="127" y="394" type="line"/>
      <point x="127" y="-30" type="line"/>
      <point x="160" y="-30" type="line"/>
      <point x="164" y="2"/>
      <point x="176" y="42"/>
      <point x="216" y="42" type="curve" smooth="yes"/>
      <point x="277" y="42"/>
      <point x="415" y="-30"/>
      <point x="546" y="-30" type="curve" smooth="yes"/>
      <point x="745" y="-30"/>
      <point x="931" y="101"/>
    </contour>
  </outline>
</glyph>
<glyph name="T" format="2">
  <advance width="1128"/>
  <unicode hex="0054"/>
  <outline>
    <contour>
      <point x="1086" y="938" type="line"/>
      <point x="1074" y="1226" type="line"/>
      <point x="56" y="1226" type="line"/>
      <point x="44" y="938" type="line"/>
      <point x="86" y="938" type="line"/>
      <point x="98" y="1102"/>
      <point x="172" y="1150"/>
      <point x="326" y="1150" type="curve" smooth="yes"/>
      <point x="474" y="1150" type="line"/>
      <point x="474" y="214" type="line" smooth="yes"/>
      <point x="474" y="66"/>
      <point x="455" y="35"/>
      <point x="302" y="35" type="curve"/>
      <point x="302" y="0" type="line"/>
      <point x="821" y="0" type="line"/>
      <point x="821" y="35" type="line"/>
      <point x="666" y="35"/>
      <point x="649" y="64"/>
      <point x="649" y="214" type="curve" smooth="yes"/>
      <point x="649" y="1150" type="line"/>
      <point x="821" y="1150" type="line" smooth="yes"/>
      <point x="966" y="1150"/>
      <point x="1032" y="1076"/>
      <point x="1046" y="938" type="curve"/>
    </contour>
  </outline>
</glyph>
<glyph name="U" format="2">
  <advance width="1337"/>
  <unicode hex="0055"/>
  <anchor x="673" y="1308" name="above"/>
  <outline>
    <contour>
      <point x="1320" y="1226" type="line"/>
      <point x="884" y="1226" type="line"/>
      <point x="884" y="1194" type="line"/>
      <point x="1039" y="1194"/>
      <point x="1060" y="1163"/>
      <point x="1060" y="1010" type="curve" smooth="yes"/>
      <point x="1060" y="514" type="line" smooth="yes"/>
      <point x="1060" y="413"/>
      <point x="1055" y="234"/>
      <point x="976" y="160" type="curve" smooth="yes"/>
      <point x="894" y="84"/>
      <point x="791" y="49"/>
      <point x="680" y="49" type="curve" smooth="yes"/>
      <point x="408" y="49"/>
      <point x="361" y="246"/>
      <point x="361" y="474" type="curve" smooth="yes"/>
      <point x="361" y="1010" type="line" smooth="yes"/>
      <point x="361" y="1145"/>
      <point x="380" y="1194"/>
      <point x="521" y="1194" type="curve"/>
      <point x="521" y="1226" type="line"/>
      <point x="28" y="1226" type="line"/>
      <point x="28" y="1194" type="line"/>
      <point x="172" y="1194"/>
      <point x="187" y="1145"/>
      <point x="187" y="1010" type="curve" smooth="yes"/>
      <point x="187" y="528" type="line" smooth="yes"/>
      <point x="187" y="174"/>
      <point x="268" y="-30"/>
      <point x="668" y="-30" type="curve" smooth="yes"/>
      <point x="1030" y="-30"/>
      <point x="1142" y="169"/>
      <point x="1142" y="504" type="curve" smooth="yes"/>
      <point x="1142" y="1003" type="line" smooth="yes"/>
      <point x="1142" y="1145"/>
      <point x="1172" y="1194"/>
      <point x="1320" y="1194" type="curve"/>
    </contour>
  </outline>
</glyph>
<glyph name="V" format="2">
  <advance width="1337"/>
  <unicode hex="0056"/>
  <outline>
    <contour>
      <point x="1315" y="1226" type="line"/>
      <point x="936" y="1226" type="line"/>
      <point x="936" y="1194" type="line"/>
      <point x="985" y="1184"/>
      <point x="1067" y="1168"/>
      <point x="1067" y="1104" type="curve" smooth="yes"/>
      <point x="1067" y="1067"/>
      <point x="1039" y="997"/>
      <point x="1025" y="964" type="curve" smooth="yes"/>
      <point x="734" y="251" type="line"/>
      <point x="422" y="968" type="line" smooth="yes"/>
      <point x="398" y="1024"/>
      <point x="380" y="1064"/>
      <point x="380" y="1109" type="curve" smooth="yes"/>
      <point x="380" y="1180"/>
      <point x="464" y="1190"/>
      <point x="516" y="1194" type="curve"/>
      <point x="516" y="1226" type="line"/>
      <point x="17" y="1226" type="line"/>
      <point x="17" y="1194" type="line"/>
      <point x="136" y="1182"/>
      <point x="167" y="1133"/>
      <point x="211" y="1030" type="curve" smooth="yes"/>
      <point x="671" y="-30" type="line"/>
      <point x="703" y="-30" type="line"/>
      <point x="1130" y="1018" type="line" smooth="yes"/>
      <point x="1168" y="1110"/>
      <point x="1212" y="1177"/>
      <point x="1315" y="1194" type="curve"/>
    </contour>
  </outline>
</glyph>
<glyph name="Y" format="2">
  <advance width="1337"/>
  <unicode hex="0059"/>
  <anchor x="665" y="1308" name="above"/>
  <outline>
    <contour>
      <point x="1313" y="1226" type="line"/>
      <point x="884" y="1226" type="line"/>
      <point x="884" y="1194" type="line"/>
      <point x="938" y="1194"/>
      <point x="1008" y="1172"/>
      <point x="1008" y="1106" type="curve" smooth="yes"/>
      <point x="1008" y="1067"/>
      <point x="974" y="1009"/>
      <point x="954" y="978" type="curve" smooth="yes"/>
      <point x="710" y="600" type="line"/>
      <point x="703" y="614"/>
      <point x="401" y="1044"/>
      <point x="401" y="1114" type="curve" smooth="yes"/>
      <point x="401" y="1187"/>
      <point x="490" y="1194"/>
      <point x="541" y="1194" type="curve"/>
      <point x="541" y="1226" type="line"/>
      <point x="17" y="1226" type="line"/>
      <point x="17" y="1194" type="line"/>
      <point x="125" y="1194"/>
      <point x="187" y="1098"/>
      <point x="239" y="1018" type="curve" smooth="yes"/>
      <point x="572" y="504" type="line"/>
      <point x="572" y="214" type="line" smooth="yes"/>
      <point x="572" y="66"/>
      <point x="556" y="35"/>
      <point x="403" y="35" type="curve"/>
      <point x="403" y="0" type="line"/>
      <point x="924" y="0" type="line"/>
      <point x="924" y="35" type="line"/>
      <point x="772" y="35"/>
      <point x="750" y="64"/>
      <point x="750" y="214" type="curve" smooth="yes"/>
      <point x="750" y="521" type="line"/>
      <point x="1072" y="1024" type="line" smooth="yes"/>
      <point x="1139" y="1129"/>
      <point x="1193" y="1193"/>
      <point x="1313" y="1194" type="curve"/>
    </contour>
  </outline>
</glyph>
<glyph name="Z" format="2">
  <advance width="1130"/>
  <unicode hex="005A"/>
  <anchor x="613" y="1308" name="above"/>
  <outline>
    <contour>
      <point x="1079" y="324" type="line"/>
      <point x="1052" y="329" type="line"/>
      <point x="1001" y="169"/>
      <point x="949" y="73"/>
      <point x="762" y="73" type="curve" smooth="yes"/>
      <point x="260" y="73" type="line"/>
      <point x="1067" y="1226" type="line"/>
      <point x="160" y="1226" type="line"/>
      <point x="133" y="919" type="line"/>
      <point x="167" y="919" type="line"/>
      <point x="197" y="1093"/>
      <point x="234" y="1156"/>
      <point x="418" y="1156" type="curve" smooth="yes"/>
      <point x="809" y="1156" type="line"/>
      <point x="24" y="35" type="line"/>
      <point x="24" y="0" type="line"/>
      <point x="1022" y="0" type="line"/>
    </contour>
  </outline>
</glyph>
<glyph name="bracketleft" format="2">
  <advance width="828"/>
  <unicode hex="005B"/>
  <outline>
    <contour>
      <point x="597" y="-249" type="line"/>
      <point x="348" y="-208" type="line"/>
      <point x="348" y="1260" type="line"/>
      <point x="597" y="1299" type="line"/>
      <point x="578" y="1403" type="line"/>
      <point x="213" y="1350" type="line"/>
      <point x="213" y="-301" type="line"/>
      <point x="578" y="-355" type="line"/>
    </contour>
  </outline>
</glyph>
<glyph name="bracketright" format="2">
  <advance width="828"/>
  <unicode hex="005D"/>
  <outline>
    <contour>
      <point x="231" y="-249" type="line"/>
      <point x="250" y="-355" type="line"/>
      <point x="615" y="-301" type="line"/>
      <point x="615" y="1350" type="line"/>
      <point x="250" y="1403" type="line"/>
      <point x="231" y="1299" type="line"/>
      <point x="480" y="1260" type="line"/>
      <point x="480" y="-208" type="line"/>
    </contour>
  </outline>
</glyph>
<glyph name="underscore" format="2">
  <advance width="892"/>
  <unicode hex="005F"/>
  <outline>
    <contour>
      <point x="892" y="-209" type="line"/>
      <point x="892" y="-143" type="line"/>
      <point x="0" y="-143" type="line"/>
      <point x="0" y="-209" type="line"/>
    </contour>
  </outline>
</glyph>
<glyph name="grave" format="2">
  <advance width="696"/>
  <unicode hex="0060"/>
  <anchor x="353" y="912" name="_above"/>
  <outline>
    <contour>
      <point x="526" y="943" type="line"/>
      <point x="268" y="1201" type="line" smooth="yes"/>
      <point x="228" y="1241"/>
      <point x="192" y="1261"/>
      <point x="160" y="1261" type="curve" smooth="yes"/>
      <point x="122" y="1261"/>
      <point x="103" y="1238"/>
      <point x="103" y="1192" type="curve" smooth="yes"/>
      <point x="103" y="1172"/>
      <point x="131" y="1145"/>
      <point x="185" y="1111" type="curve" smooth="yes"/>
      <point x="450" y="943" type="line"/>
    </contour>
  </outline>
</glyph>
<glyph name="a" format="2">
  <advance width="823"/>
  <unicode hex="0061"/>
  <anchor x="403" y="912" name="above"/>
  <outline>
    <contour>
      <point x="821" y="172" type="line"/>
      <point x="804" y="154"/>
      <point x="749" y="98"/>
      <point x="722" y="98" type="curve" smooth="yes"/>
      <point x="696" y="98"/>
      <point x="686" y="120"/>
      <point x="683" y="143" type="curve" smooth="yes"/>
      <point x="678" y="174"/>
      <point x="678" y="241"/>
      <point x="678" y="288" type="curve" smooth="yes"/>
      <point x="678" y="570" type="line" smooth="yes"/>
      <point x="678" y="776"/>
      <point x="610" y="853"/>
      <point x="401" y="853" type="curve" smooth="yes"/>
      <point x="277" y="853"/>
      <point x="98" y="794"/>
      <point x="98" y="644" type="curve" smooth="yes"/>
      <point x="98" y="593"/>
      <point x="118" y="558"/>
      <point x="174" y="558" type="curve" smooth="yes"/>
      <point x="234" y="558"/>
      <point x="251" y="590"/>
      <point x="251" y="644" type="curve" smooth="yes"/>
      <point x="251" y="734"/>
      <point x="263" y="799"/>
      <point x="373" y="799" type="curve" smooth="yes"/>
      <point x="506" y="799"/>
      <point x="528" y="694"/>
      <point x="528" y="582" type="curve" smooth="yes"/>
      <point x="528" y="548" type="line"/>
      <point x="373" y="497"/>
      <point x="66" y="398"/>
      <point x="66" y="197" type="curve" smooth="yes" name="hr01"/>
      <point x="66" y="76"/>
      <point x="138" y="-17"/>
      <point x="263" y="-17" type="curve" smooth="yes"/>
      <point x="371" y="-17"/>
      <point x="448" y="56"/>
      <point x="528" y="120" type="curve"/>
      <point x="528" y="54"/>
      <point x="546" y="-17"/>
      <point x="624" y="-17" type="curve" smooth="yes"/>
      <point x="708" y="-17"/>
      <point x="776" y="59"/>
      <point x="821" y="120" type="curve"/>
    </contour>
    <contour>
      <point x="528" y="180" type="line"/>
      <point x="479" y="140"/>
      <point x="410" y="89"/>
      <point x="347" y="89" type="curve" smooth="yes"/>
      <point x="265" y="89"/>
      <point x="218" y="167"/>
      <point x="218" y="239" type="curve" smooth="yes"/>
      <point x="218" y="371"/>
      <point x="406" y="451"/>
      <point x="528" y="497" type="curve"/>
    </contour>
  </outline>
</glyph>
<glyph name="d" format="2">
  <advance width="926"/>
  <unicode hex="0064"/>
  <outline>
    <contour>
      <point x="934" y="76" type="line"/>
      <point x="924" y="108" type="line"/>
      <point x="902" y="101"/>
      <point x="880" y="94"/>
      <point x="860" y="94" type="curve" smooth="yes"/>
      <point x="800" y="94"/>
      <point x="794" y="160"/>
      <point x="794" y="254" type="curve" smooth="yes"/>
      <point x="794" y="1285" type="line"/>
      <point x="755" y="1285" type="line"/>
      <point x="504" y="1187" type="line"/>
      <point x="516" y="1156" type="line"/>
      <point x="539" y="1163"/>
      <point x="558" y="1168"/>
      <point x="580" y="1168" type="curve" smooth="yes"/>
      <point x="626" y="1168"/>
      <point x="644" y="1123"/>
      <point x="644" y="1052" type="curve" smooth="yes"/>
      <point x="644" y="784" type="line"/>
      <point x="595" y="833"/>
      <point x="530" y="853"/>
      <point x="464" y="853" type="curve" smooth="yes"/>
      <point x="214" y="853"/>
      <point x="61" y="607"/>
      <point x="61" y="378" type="curve" smooth="yes"/>
      <point x="61" y="185"/>
      <point x="185" y="-28"/>
      <point x="401" y="-28" type="curve" smooth="yes"/>
      <point x="497" y="-28"/>
      <point x="577" y="24"/>
      <point x="644" y="94" type="curve"/>
      <point x="644" y="-28" type="line"/>
      <point x="683" y="-28" type="line"/>
    </contour>
    <contour>
      <point x="644" y="157" type="line"/>
      <point x="602" y="110"/>
      <point x="546" y="73"/>
      <point x="481" y="73" type="curve" smooth="yes"/>
      <point x="293" y="73"/>
      <point x="228" y="300"/>
      <point x="228" y="452" type="curve" smooth="yes"/>
      <point x="228" y="590"/>
      <point x="280" y="799"/>
      <point x="452" y="799" type="curve" smooth="yes"/>
      <point x="563" y="799"/>
      <point x="644" y="688"/>
      <point x="644" y="584" type="curve" smooth="yes"/>
    </contour>
  </outline>
</glyph>
<glyph name="e" format="2">
  <advance width="823"/>
  <unicode hex="0065"/>
  <anchor x="450" y="912" name="above"/>
  <outline>
    <contour>
      <point x="742" y="322" type="line"/>
      <point x="698" y="209"/>
      <point x="626" y="122"/>
      <point x="499" y="122" type="curve" smooth="yes"/>
      <point x="290" y="122"/>
      <point x="197" y="337"/>
      <point x="197" y="516" type="curve"/>
      <point x="769" y="516" type="line"/>
      <point x="769" y="710"/>
      <point x="652" y="853"/>
      <point x="452" y="853" type="curve" smooth="yes"/>
      <point x="192" y="853"/>
      <point x="68" y="644"/>
      <point x="68" y="406" type="curve" smooth="yes"/>
      <point x="68" y="190"/>
      <point x="192" y="-28"/>
      <point x="430" y="-28" type="curve" smooth="yes"/>
      <point x="612" y="-28"/>
      <point x="745" y="131"/>
      <point x="769" y="302" type="curve"/>
    </contour>
    <contour>
      <point x="197" y="568" type="line"/>
      <point x="206" y="680"/>
      <point x="277" y="788"/>
      <point x="401" y="788" type="curve" smooth="yes"/>
      <point x="526" y="788"/>
      <point x="580" y="678"/>
      <point x="580" y="568" type="curve"/>
    </contour>
  </outline>
</glyph>
<glyph name="f" format="2">
  <advance width="617"/>
  <unicode hex="0066"/>
  <outline>
    <contour>
      <point x="806" y="1130" type="curve" smooth="yes"/>
      <point x="806" y="1229"/>
      <point x="659" y="1285"/>
      <point x="577" y="1285" type="curve" smooth="yes"/>
      <point x="347" y="1285"/>
      <point x="232" y="1096"/>
      <point x="232" y="884" type="curve" smooth="yes"/>
      <point x="232" y="828" type="line"/>
      <point x="68" y="828" type="line"/>
      <point x="68" y="762" type="line"/>
      <point x="232" y="762" type="line"/>
      <point x="232" y="218" type="line" smooth="yes"/>
      <point x="232" y="86"/>
      <point x="216" y="35"/>
      <point x="73" y="35" type="curve"/>
      <point x="73" y="0" type="line"/>
      <point x="572" y="0" type="line"/>
      <point x="572" y="35" type="line"/>
      <point x="406" y="35"/>
      <point x="380" y="52"/>
      <point x="380" y="218" type="curve" smooth="yes"/>
      <point x="380" y="762" type="line"/>
      <point x="595" y="762" type="line"/>
      <point x="595" y="828" type="line"/>
      <point x="380" y="828" type="line"/>
      <point x="380" y="917" type="line" smooth="yes"/>
      <point x="380" y="1075"/>
      <point x="389" y="1219"/>
      <point x="506" y="1219" type="curve" smooth="yes"/>
      <point x="622" y="1219"/>
      <point x="652" y="1057"/>
      <point x="732" y="1057" type="curve" smooth="yes"/>
      <point x="769" y="1057"/>
      <point x="806" y="1096"/>
    </contour>
  </outline>
</glyph>
<glyph name="g" format="2">
  <advance width="926"/>
  <unicode hex="0067"/>
  <outline>
    <contour>
      <point x="892" y="755" type="curve" smooth="yes"/>
      <point x="892" y="794"/>
      <point x="882" y="794"/>
      <point x="851" y="794" type="curve" smooth="yes"/>
      <point x="818" y="794"/>
      <point x="786" y="788"/>
      <point x="755" y="788" type="curve" smooth="yes"/>
      <point x="652" y="788"/>
      <point x="558" y="853"/>
      <point x="452" y="853" type="curve" smooth="yes"/>
      <point x="277" y="853"/>
      <point x="122" y="739"/>
      <point x="122" y="553" type="curve" smooth="yes"/>
      <point x="122" y="448"/>
      <point x="182" y="347"/>
      <point x="280" y="302" type="curve"/>
      <point x="232" y="263"/>
      <point x="136" y="176"/>
      <point x="136" y="108" type="curve" smooth="yes"/>
      <point x="136" y="66"/>
      <point x="190" y="28"/>
      <point x="221" y="7" type="curve"/>
      <point x="176" y="-37"/>
      <point x="54" y="-160"/>
      <point x="54" y="-228" type="curve" smooth="yes" name="hr01"/>
      <point x="54" y="-352"/>
      <point x="324" y="-401"/>
      <point x="418" y="-401" type="curve" smooth="yes"/>
      <point x="602" y="-401"/>
      <point x="882" y="-298"/>
      <point x="882" y="-76" type="curve" smooth="yes"/>
      <point x="882" y="248"/>
      <point x="256" y="40"/>
      <point x="256" y="185" type="curve" smooth="yes" name="hr02"/>
      <point x="256" y="226"/>
      <point x="293" y="260"/>
      <point x="324" y="286" type="curve"/>
      <point x="366" y="272"/>
      <point x="408" y="268"/>
      <point x="450" y="268" type="curve" smooth="yes"/>
      <point x="619" y="268"/>
      <point x="776" y="364"/>
      <point x="776" y="548" type="curve" smooth="yes"/>
      <point x="776" y="605"/>
      <point x="762" y="666"/>
      <point x="727" y="713" type="curve"/>
      <point x="750" y="712"/>
      <point x="785" y="708"/>
      <point x="816" y="708" type="curve" smooth="yes"/>
      <point x="856" y="708"/>
      <point x="892" y="716"/>
    </contour>
    <contour>
      <point x="617" y="523" type="curve" smooth="yes"/>
      <point x="617" y="418"/>
      <point x="587" y="312"/>
      <point x="462" y="312" type="curve" smooth="yes"/>
      <point x="317" y="312"/>
      <point x="280" y="479"/>
      <point x="280" y="593" type="curve" smooth="yes" name="hr03"/>
      <point x="280" y="694"/>
      <point x="317" y="809"/>
      <point x="438" y="809" type="curve" smooth="yes"/>
      <point x="580" y="809"/>
      <point x="617" y="636"/>
    </contour>
    <contour>
      <point x="816" y="-110" type="curve" smooth="yes"/>
      <point x="816" y="-253"/>
      <point x="607" y="-290"/>
      <point x="499" y="-290" type="curve" smooth="yes"/>
      <point x="420" y="-290"/>
      <point x="185" y="-270"/>
      <point x="185" y="-160" type="curve" smooth="yes" name="hr04"/>
      <point x="185" y="-101"/>
      <point x="236" y="-40"/>
      <point x="270" y="0" type="curve"/>
      <point x="383" y="-10"/>
      <point x="634" y="-10"/>
      <point x="727" y="-32" type="curve" smooth="yes"/>
      <point x="769" y="-42"/>
      <point x="816" y="-61"/>
    </contour>
  </outline>
</glyph>
<glyph name="i" format="2">
  <advance width="516"/>
  <unicode hex="0069"/>
  <outline>
    <contour>
      <point x="364" y="1111" type="curve" smooth="yes"/>
      <point x="364" y="1160"/>
      <point x="322" y="1201"/>
      <point x="272" y="1201" type="curve" smooth="yes"/>
      <point x="221" y="1201"/>
      <point x="180" y="1163"/>
      <point x="180" y="1111" type="curve" smooth="yes"/>
      <point x="180" y="1057"/>
      <point x="221" y="1018"/>
      <point x="272" y="1018" type="curve" smooth="yes"/>
      <point x="324" y="1018"/>
      <point x="364" y="1060"/>
    </contour>
    <contour>
      <point x="474" y="0" type="line"/>
      <point x="474" y="35" type="line"/>
      <point x="366" y="35"/>
      <point x="347" y="64"/>
      <point x="347" y="169" type="curve" smooth="yes"/>
      <point x="347" y="853" type="line"/>
      <point x="307" y="853" type="line"/>
      <point x="56" y="752" type="line"/>
      <point x="68" y="720" type="line"/>
      <point x="91" y="727"/>
      <point x="114" y="734"/>
      <point x="133" y="734" type="curve" smooth="yes"/>
      <point x="191" y="734"/>
      <point x="197" y="666"/>
      <point x="197" y="612" type="curve" smooth="yes"/>
      <point x="197" y="169" type="line" smooth="yes"/>
      <point x="197" y="64"/>
      <point x="176" y="35"/>
      <point x="68" y="35" type="curve"/>
      <point x="68" y="0" type="line"/>
    </contour>
  </outline>
</glyph>
<glyph name="j" format="2">
  <advance width="516"/>
  <unicode hex="006A"/>
  <outline>
    <contour>
      <point x="361" y="1111" type="curve" smooth="yes"/>
      <point x="361" y="1160"/>
      <point x="317" y="1201"/>
      <point x="268" y="1201" type="curve" smooth="yes"/>
      <point x="218" y="1201"/>
      <point x="176" y="1160"/>
      <point x="176" y="1111" type="curve" smooth="yes"/>
      <point x="176" y="1057"/>
      <point x="216" y="1018"/>
      <point x="268" y="1018" type="curve" smooth="yes"/>
      <point x="319" y="1018"/>
      <point x="361" y="1060"/>
    </contour>
    <contour>
      <point x="347" y="853" type="line"/>
      <point x="307" y="853" type="line"/>
      <point x="56" y="752" type="line"/>
      <point x="68" y="720" type="line"/>
      <point x="89" y="727"/>
      <point x="110" y="732"/>
      <point x="131" y="732" type="curve" smooth="yes"/>
      <point x="193" y="732"/>
      <point x="197" y="655"/>
      <point x="197" y="554" type="curve" smooth="yes"/>
      <point x="197" y="-98" type="line" smooth="yes"/>
      <point x="197" y="-208"/>
      <point x="194" y="-326"/>
      <point x="113" y="-326" type="curve" smooth="yes"/>
      <point x="49" y="-326"/>
      <point x="14" y="-232"/>
      <point x="-68" y="-232" type="curve" smooth="yes"/>
      <point x="-110" y="-232"/>
      <point x="-143" y="-268"/>
      <point x="-143" y="-310" type="curve" smooth="yes"/>
      <point x="-143" y="-378"/>
      <point x="-32" y="-401"/>
      <point x="19" y="-401" type="curve" smooth="yes"/>
      <point x="265" y="-401"/>
      <point x="347" y="-197"/>
      <point x="347" y="17" type="curve" smooth="yes"/>
    </contour>
  </outline>
</glyph>
<glyph name="k" format="2">
  <advance width="926"/>
  <unicode hex="006B"/>
  <outline>
    <contour>
      <point x="936" y="0" type="line"/>
      <point x="936" y="35" type="line"/>
      <point x="844" y="35"/>
      <point x="810" y="53"/>
      <point x="706" y="184" type="curve" smooth="yes"/>
      <point x="445" y="509" type="line"/>
      <point x="664" y="703" type="line" smooth="yes"/>
      <point x="739" y="772"/>
      <point x="791" y="797"/>
      <point x="894" y="802" type="curve"/>
      <point x="894" y="828" type="line"/>
      <point x="535" y="828" type="line"/>
      <point x="535" y="802" type="line"/>
      <point x="563" y="799"/>
      <point x="600" y="788"/>
      <point x="600" y="755" type="curve" smooth="yes"/>
      <point x="600" y="725"/>
      <point x="533" y="671"/>
      <point x="514" y="654" type="curve" smooth="yes"/>
      <point x="305" y="476" type="line"/>
      <point x="305" y="1285" type="line"/>
      <point x="263" y="1285" type="line"/>
      <point x="12" y="1187" type="line"/>
      <point x="30" y="1156" type="line"/>
      <point x="49" y="1163"/>
      <point x="68" y="1170"/>
      <point x="89" y="1170" type="curve" smooth="yes"/>
      <point x="137" y="1170"/>
      <point x="150" y="1128"/>
      <point x="150" y="1028" type="curve" smooth="yes"/>
      <point x="150" y="182" type="line" smooth="yes"/>
      <point x="150" y="61"/>
      <point x="136" y="35"/>
      <point x="12" y="35" type="curve"/>
      <point x="12" y="0" type="line"/>
      <point x="438" y="0" type="line"/>
      <point x="438" y="35" type="line"/>
      <point x="310" y="35"/>
      <point x="305" y="71"/>
      <point x="305" y="187" type="curve" smooth="yes"/>
      <point x="305" y="457" type="line"/>
      <point x="558" y="138" type="line"/>
      <point x="572" y="118"/>
      <point x="593" y="94"/>
      <point x="593" y="66" type="curve" smooth="yes"/>
      <point x="593" y="37"/>
      <point x="558" y="35"/>
      <point x="535" y="35" type="curve"/>
      <point x="535" y="0" type="line"/>
    </contour>
  </outline>
</glyph>
<glyph name="l" format="2">
  <advance width="516"/>
  <unicode hex="006C"/>
  <outline>
    <contour>
      <point x="476" y="0" type="line"/>
      <point x="476" y="35" type="line"/>
      <point x="356" y="35"/>
      <point x="342" y="76"/>
      <point x="342" y="187" type="curve" smooth="yes"/>
      <point x="342" y="1285" type="line"/>
      <point x="302" y="1285" type="line"/>
      <point x="54" y="1187" type="line"/>
      <point x="68" y="1156" type="line"/>
      <point x="89" y="1163"/>
      <point x="106" y="1168"/>
      <point x="125" y="1168" type="curve" smooth="yes"/>
      <point x="186" y="1168"/>
      <point x="192" y="1099"/>
      <point x="192" y="1019" type="curve" smooth="yes"/>
      <point x="192" y="187" type="line" smooth="yes"/>
      <point x="192" y="89"/>
      <point x="182" y="35"/>
      <point x="68" y="35" type="curve"/>
      <point x="68" y="0" type="line"/>
    </contour>
  </outline>
</glyph>
<glyph name="m" format="2">
  <advance width="1442"/>
  <unicode hex="006D"/>
  <outline>
    <contour>
      <point x="1435" y="0" type="line"/>
      <point x="1435" y="35" type="line"/>
      <point x="1320" y="35"/>
      <point x="1310" y="84"/>
      <point x="1310" y="187" type="curve" smooth="yes"/>
      <point x="1310" y="546" type="line" smooth="yes"/>
      <point x="1310" y="696"/>
      <point x="1271" y="853"/>
      <point x="1091" y="853" type="curve" smooth="yes"/>
      <point x="961" y="853"/>
      <point x="880" y="767"/>
      <point x="802" y="678" type="curve"/>
      <point x="774" y="788"/>
      <point x="708" y="853"/>
      <point x="590" y="853" type="curve" smooth="yes"/>
      <point x="467" y="853"/>
      <point x="380" y="762"/>
      <point x="302" y="678" type="curve"/>
      <point x="302" y="853" type="line"/>
      <point x="263" y="853" type="line"/>
      <point x="12" y="752" type="line"/>
      <point x="28" y="720" type="line"/>
      <point x="47" y="727"/>
      <point x="68" y="734"/>
      <point x="89" y="734" type="curve" smooth="yes"/>
      <point x="148" y="734"/>
      <point x="152" y="656"/>
      <point x="152" y="583" type="curve" smooth="yes"/>
      <point x="152" y="187" type="line" smooth="yes"/>
      <point x="152" y="82"/>
      <point x="145" y="35"/>
      <point x="28" y="35" type="curve"/>
      <point x="28" y="0" type="line"/>
      <point x="438" y="0" type="line"/>
      <point x="438" y="35" type="line"/>
      <point x="312" y="35"/>
      <point x="302" y="71"/>
      <point x="302" y="187" type="curve" smooth="yes"/>
      <point x="302" y="631" type="line"/>
      <point x="359" y="690"/>
      <point x="430" y="748"/>
      <point x="516" y="748" type="curve" smooth="yes"/>
      <point x="631" y="748"/>
      <point x="656" y="642"/>
      <point x="656" y="546" type="curve" smooth="yes"/>
      <point x="656" y="187" type="line" smooth="yes"/>
      <point x="656" y="68"/>
      <point x="652" y="35"/>
      <point x="521" y="35" type="curve"/>
      <point x="521" y="0" type="line"/>
      <point x="941" y="0" type="line"/>
      <point x="941" y="35" type="line"/>
      <point x="816" y="35"/>
      <point x="806" y="71"/>
      <point x="806" y="187" type="curve" smooth="yes"/>
      <point x="806" y="631" type="line"/>
      <point x="863" y="688"/>
      <point x="936" y="745"/>
      <point x="1020" y="745" type="curve" smooth="yes"/>
      <point x="1135" y="745"/>
      <point x="1158" y="638"/>
      <point x="1158" y="546" type="curve" smooth="yes"/>
      <point x="1158" y="187" type="line" smooth="yes"/>
      <point x="1158" y="71"/>
      <point x="1153" y="35"/>
      <point x="1025" y="35" type="curve"/>
      <point x="1025" y="0" type="line"/>
    </contour>
  </outline>
</glyph>
<glyph name="n" format="2">
  <advance width="926"/>
  <unicode hex="006E"/>
  <anchor x="467" y="912" name="above"/>
  <outline>
    <contour>
      <point x="924" y="0" type="line"/>
      <point x="924" y="35" type="line"/>
      <point x="804" y="35"/>
      <point x="794" y="82"/>
      <point x="794" y="187" type="curve" smooth="yes"/>
      <point x="794" y="541" type="line" smooth="yes"/>
      <point x="794" y="690"/>
      <point x="757" y="853"/>
      <point x="577" y="853" type="curve" smooth="yes"/>
      <point x="464" y="853"/>
      <point x="366" y="760"/>
      <point x="300" y="678" type="curve"/>
      <point x="300" y="853" type="line"/>
      <point x="263" y="853" type="line"/>
      <point x="10" y="752" type="line"/>
      <point x="22" y="720" type="line"/>
      <point x="42" y="727"/>
      <point x="64" y="734"/>
      <point x="84" y="734" type="curve" smooth="yes"/>
      <point x="140" y="734"/>
      <point x="148" y="652"/>
      <point x="148" y="569" type="curve" smooth="yes"/>
      <point x="148" y="187" type="line" smooth="yes"/>
      <point x="148" y="82"/>
      <point x="143" y="35"/>
      <point x="22" y="35" type="curve"/>
      <point x="22" y="0" type="line"/>
      <point x="434" y="0" type="line"/>
      <point x="434" y="35" type="line"/>
      <point x="310" y="35"/>
      <point x="300" y="71"/>
      <point x="300" y="187" type="curve" smooth="yes"/>
      <point x="300" y="624" type="line"/>
      <point x="354" y="683"/>
      <point x="427" y="742"/>
      <point x="514" y="742" type="curve" smooth="yes"/>
      <point x="636" y="742"/>
      <point x="644" y="619"/>
      <point x="644" y="526" type="curve" smooth="yes"/>
      <point x="644" y="187" type="line" smooth="yes"/>
      <point x="644" y="68"/>
      <point x="634" y="35"/>
      <point x="509" y="35" type="curve"/>
      <point x="509" y="0" type="line"/>
    </contour>
  </outline>
</glyph>
<glyph name="o" format="2">
  <advance width="926"/>
  <unicode hex="006F"/>
  <anchor x="462" y="912" name="above"/>
  <outline>
    <contour>
      <point x="863" y="430" type="curve" smooth="yes"/>
      <point x="863" y="664"/>
      <point x="706" y="853"/>
      <point x="464" y="853" type="curve" smooth="yes"/>
      <point x="218" y="853"/>
      <point x="61" y="638"/>
      <point x="61" y="406" type="curve" smooth="yes"/>
      <point x="61" y="182"/>
      <point x="216" y="-28"/>
      <point x="455" y="-28" type="curve" smooth="yes"/>
      <point x="708" y="-28"/>
      <point x="863" y="190"/>
    </contour>
    <contour>
      <point x="694" y="359" type="curve" smooth="yes"/>
      <point x="694" y="223"/>
      <point x="666" y="40"/>
      <point x="492" y="40" type="curve" smooth="yes"/>
      <point x="290" y="40"/>
      <point x="232" y="324"/>
      <point x="232" y="481" type="curve" smooth="yes"/>
      <point x="232" y="612"/>
      <point x="270" y="794"/>
      <point x="434" y="794" type="curve" smooth="yes"/>
      <point x="638" y="794"/>
      <point x="694" y="518"/>
    </contour>
  </outline>
</glyph>
<glyph name="p" format="2">
  <advance width="926"/>
  <unicode hex="0070"/>
  <outline>
    <contour>
      <point x="865" y="445" type="curve" smooth="yes"/>
      <point x="865" y="631"/>
      <point x="769" y="853"/>
      <point x="553" y="853" type="curve" smooth="yes"/>
      <point x="430" y="853"/>
      <point x="344" y="755"/>
      <point x="288" y="656" type="curve"/>
      <point x="288" y="851" type="line" name="hr01"/>
      <point x="253" y="851" type="line"/>
      <point x="-5" y="748" type="line"/>
      <point x="5" y="715" type="line"/>
      <point x="24" y="725"/>
      <point x="44" y="730"/>
      <point x="66" y="730" type="curve" smooth="yes"/>
      <point x="130" y="730"/>
      <point x="133" y="674"/>
      <point x="133" y="584" type="curve" smooth="yes"/>
      <point x="133" y="-199" type="line" smooth="yes"/>
      <point x="133" y="-331"/>
      <point x="125" y="-359"/>
      <point x="-10" y="-364" type="curve"/>
      <point x="-10" y="-398" type="line"/>
      <point x="427" y="-398" type="line"/>
      <point x="427" y="-364" type="line"/>
      <point x="298" y="-359"/>
      <point x="288" y="-326"/>
      <point x="288" y="-204" type="curve" smooth="yes"/>
      <point x="288" y="49" type="line"/>
      <point x="342" y="-2"/>
      <point x="410" y="-28"/>
      <point x="484" y="-28" type="curve" smooth="yes" name="hr02"/>
      <point x="737" y="-28"/>
      <point x="865" y="221"/>
    </contour>
    <contour>
      <point x="720" y="359" type="curve" smooth="yes"/>
      <point x="720" y="211"/>
      <point x="659" y="30"/>
      <point x="481" y="30" type="curve" smooth="yes"/>
      <point x="310" y="30"/>
      <point x="288" y="155"/>
      <point x="288" y="293" type="curve" smooth="yes"/>
      <point x="288" y="602" type="line"/>
      <point x="352" y="679"/>
      <point x="415" y="742"/>
      <point x="481" y="742" type="curve" smooth="yes"/>
      <point x="676" y="742"/>
      <point x="720" y="511"/>
    </contour>
  </outline>
</glyph>
<glyph name="q" format="2">
  <advance width="926"/>
  <unicode hex="0071"/>
  <outline>
    <contour>
      <point x="929" y="-398" type="line"/>
      <point x="929" y="-364" type="line"/>
      <point x="809" y="-364"/>
      <point x="794" y="-326"/>
      <point x="794" y="-214" type="curve" smooth="yes"/>
      <point x="794" y="853" type="line"/>
      <point x="762" y="853" type="line"/>
      <point x="730" y="830"/>
      <point x="696" y="811"/>
      <point x="659" y="794" type="curve"/>
      <point x="614" y="840"/>
      <point x="548" y="853"/>
      <point x="490" y="853" type="curve" smooth="yes"/>
      <point x="221" y="853"/>
      <point x="61" y="629"/>
      <point x="61" y="378" type="curve" smooth="yes"/>
      <point x="61" y="197"/>
      <point x="162" y="-28"/>
      <point x="371" y="-28" type="curve" smooth="yes"/>
      <point x="481" y="-28"/>
      <point x="577" y="64"/>
      <point x="644" y="145" type="curve"/>
      <point x="644" y="-214" type="line" smooth="yes"/>
      <point x="644" y="-329"/>
      <point x="629" y="-364"/>
      <point x="509" y="-364" type="curve"/>
      <point x="509" y="-398" type="line"/>
    </contour>
    <contour>
      <point x="644" y="199" type="line"/>
      <point x="598" y="148"/>
      <point x="535" y="101"/>
      <point x="464" y="101" type="curve" smooth="yes"/>
      <point x="280" y="101"/>
      <point x="214" y="288"/>
      <point x="214" y="445" type="curve" smooth="yes"/>
      <point x="214" y="598"/>
      <point x="272" y="788"/>
      <point x="460" y="788" type="curve" smooth="yes"/>
      <point x="590" y="788"/>
      <point x="644" y="713"/>
      <point x="644" y="590" type="curve" smooth="yes"/>
    </contour>
  </outline>
</glyph>
<glyph name="r" format="2">
  <advance width="634"/>
  <unicode hex="0072"/>
  <outline>
    <contour>
      <point x="631" y="752" type="curve" smooth="yes"/>
      <point x="631" y="816"/>
      <point x="572" y="853"/>
      <point x="514" y="853" type="curve" smooth="yes"/>
      <point x="415" y="853"/>
      <point x="342" y="742"/>
      <point x="300" y="666" type="curve"/>
      <point x="300" y="853" type="line"/>
      <point x="263" y="853" type="line"/>
      <point x="7" y="752" type="line"/>
      <point x="17" y="720" type="line"/>
      <point x="35" y="727"/>
      <point x="54" y="732"/>
      <point x="73" y="732" type="curve" smooth="yes"/>
      <point x="144" y="732"/>
      <point x="148" y="659"/>
      <point x="148" y="545" type="curve" smooth="yes"/>
      <point x="148" y="187" type="line" smooth="yes"/>
      <point x="148" y="71"/>
      <point x="140" y="35"/>
      <point x="17" y="35" type="curve"/>
      <point x="17" y="0" type="line"/>
      <point x="445" y="0" type="line"/>
      <point x="445" y="35" type="line"/>
      <point x="331" y="35"/>
      <point x="300" y="86"/>
      <point x="300" y="192" type="curve" smooth="yes"/>
      <point x="300" y="593" type="line"/>
      <point x="338" y="670"/>
      <point x="385" y="732"/>
      <point x="420" y="732" type="curve" smooth="yes"/>
      <point x="461" y="732"/>
      <point x="488" y="668"/>
      <point x="548" y="668" type="curve" smooth="yes"/>
      <point x="593" y="668"/>
      <point x="631" y="708"/>
    </contour>
  </outline>
</glyph>
<glyph name="s" format="2">
  <advance width="722"/>
  <unicode hex="0073"/>
  <anchor x="373" y="912" name="above"/>
  <outline>
    <contour>
      <point x="656" y="209" type="curve" smooth="yes"/>
      <point x="656" y="511"/>
      <point x="197" y="450"/>
      <point x="197" y="690" type="curve" smooth="yes"/>
      <point x="197" y="781"/>
      <point x="286" y="802"/>
      <point x="356" y="802" type="curve" smooth="yes"/>
      <point x="492" y="802"/>
      <point x="553" y="688"/>
      <point x="580" y="570" type="curve"/>
      <point x="612" y="570" type="line"/>
      <point x="612" y="853" type="line"/>
      <point x="580" y="853" type="line"/>
      <point x="572" y="835"/>
      <point x="560" y="821"/>
      <point x="541" y="821" type="curve" smooth="yes"/>
      <point x="481" y="821"/>
      <point x="422" y="853"/>
      <point x="359" y="853" type="curve" smooth="yes"/>
      <point x="223" y="853"/>
      <point x="91" y="784"/>
      <point x="91" y="631" type="curve" smooth="yes"/>
      <point x="91" y="356"/>
      <point x="521" y="383"/>
      <point x="521" y="152" type="curve" smooth="yes"/>
      <point x="521" y="73"/>
      <point x="452" y="30"/>
      <point x="378" y="30" type="curve" smooth="yes"/>
      <point x="234" y="30"/>
      <point x="150" y="152"/>
      <point x="125" y="283" type="curve"/>
      <point x="94" y="283" type="line"/>
      <point x="94" y="-12" type="line" name="hr01"/>
      <point x="125" y="-12" type="line"/>
      <point x="131" y="-2"/>
      <point x="143" y="30"/>
      <point x="157" y="30" type="curve" smooth="yes" name="hr02"/>
      <point x="214" y="30"/>
      <point x="300" y="-28"/>
      <point x="378" y="-28" type="curve" smooth="yes"/>
      <point x="509" y="-28"/>
      <point x="656" y="66"/>
    </contour>
  </outline>
</glyph>
<glyph name="t" format="2">
  <advance width="516"/>
  <unicode hex="0074"/>
  <outline>
    <contour>
      <point x="481" y="152" type="line"/>
      <point x="462" y="106"/>
      <point x="432" y="76"/>
      <point x="378" y="76" type="curve" smooth="yes"/>
      <point x="310" y="76"/>
      <point x="298" y="160"/>
      <point x="298" y="214" type="curve" smooth="yes"/>
      <point x="298" y="767" type="line"/>
      <point x="492" y="767" type="line"/>
      <point x="492" y="828" type="line"/>
      <point x="298" y="828" type="line"/>
      <point x="298" y="1102" type="line"/>
      <point x="270" y="1102" type="line"/>
      <point x="221" y="985"/>
      <point x="140" y="842"/>
      <point x="14" y="794" type="curve"/>
      <point x="14" y="767" type="line"/>
      <point x="145" y="767" type="line"/>
      <point x="145" y="192" type="line" smooth="yes"/>
      <point x="145" y="79"/>
      <point x="180" y="-28"/>
      <point x="310" y="-28" type="curve" smooth="yes"/>
      <point x="410" y="-28"/>
      <point x="490" y="61"/>
      <point x="516" y="152" type="curve"/>
    </contour>
  </outline>
</glyph>
<glyph name="w" format="2">
  <advance width="1337"/>
  <unicode hex="0077"/>
  <outline>
    <contour>
      <point x="1322" y="828" type="line"/>
      <point x="1060" y="828" type="line"/>
      <point x="1060" y="794" type="line"/>
      <point x="1091" y="794"/>
      <point x="1147" y="791"/>
      <point x="1147" y="750" type="curve" smooth="yes"/>
      <point x="1147" y="722"/>
      <point x="1138" y="696"/>
      <point x="1128" y="671" type="curve" smooth="yes"/>
      <point x="956" y="214" type="line"/>
      <point x="929" y="277"/>
      <point x="757" y="683"/>
      <point x="757" y="722" type="curve" smooth="yes"/>
      <point x="757" y="788"/>
      <point x="816" y="791"/>
      <point x="870" y="794" type="curve"/>
      <point x="870" y="828" type="line"/>
      <point x="474" y="828" type="line"/>
      <point x="474" y="794" type="line"/>
      <point x="607" y="791"/>
      <point x="610" y="696"/>
      <point x="652" y="582" type="curve"/>
      <point x="474" y="194" type="line"/>
      <point x="295" y="671" type="line" smooth="yes"/>
      <point x="288" y="690"/>
      <point x="283" y="715"/>
      <point x="283" y="737" type="curve" smooth="yes"/>
      <point x="283" y="786"/>
      <point x="319" y="794"/>
      <point x="359" y="794" type="curve"/>
      <point x="359" y="828" type="line"/>
      <point x="10" y="828" type="line"/>
      <point x="10" y="794" type="line"/>
      <point x="96" y="779"/>
      <point x="113" y="748"/>
      <point x="143" y="671" type="curve" smooth="yes"/>
      <point x="410" y="-28" type="line"/>
      <point x="445" y="-28" type="line"/>
      <point x="683" y="504" type="line"/>
      <point x="892" y="-28" type="line"/>
      <point x="929" y="-28" type="line"/>
      <point x="1205" y="690" type="line" smooth="yes"/>
      <point x="1226" y="745"/>
      <point x="1264" y="786"/>
      <point x="1322" y="794" type="curve"/>
    </contour>
  </outline>
</glyph>
<glyph name="x" format="2">
  <advance width="926"/>
  <unicode hex="0078"/>
  <outline>
    <contour>
      <point x="905" y="0" type="line"/>
      <point x="905" y="35" type="line"/>
      <point x="836" y="37"/>
      <point x="808" y="58"/>
      <point x="720" y="182" type="curve" smooth="yes"/>
      <point x="505" y="487" type="line"/>
      <point x="566" y="571"/>
      <point x="688" y="791"/>
      <point x="816" y="794" type="curve"/>
      <point x="816" y="828" type="line"/>
      <point x="535" y="828" type="line"/>
      <point x="535" y="794" type="line"/>
      <point x="565" y="794"/>
      <point x="602" y="788"/>
      <point x="602" y="752" type="curve" smooth="yes"/>
      <point x="602" y="720"/>
      <point x="492" y="575"/>
      <point x="469" y="544" type="curve"/>
      <point x="448" y="575"/>
      <point x="347" y="722"/>
      <point x="347" y="750" type="curve" smooth="yes"/>
      <point x="347" y="786"/>
      <point x="373" y="794"/>
      <point x="406" y="794" type="curve" smooth="yes"/>
      <point x="415" y="794" type="line"/>
      <point x="415" y="828" type="line"/>
      <point x="24" y="828" type="line"/>
      <point x="24" y="794" type="line"/>
      <point x="124" y="791"/>
      <point x="162" y="734"/>
      <point x="221" y="649" type="curve" smooth="yes"/>
      <point x="378" y="420" type="line"/>
      <point x="204" y="190" type="line" smooth="yes"/>
      <point x="115" y="72"/>
      <point x="79" y="35"/>
      <point x="32" y="35" type="curve"/>
      <point x="32" y="0" type="line"/>
      <point x="302" y="0" type="line"/>
      <point x="302" y="35" type="line"/>
      <point x="268" y="35"/>
      <point x="221" y="44"/>
      <point x="221" y="89" type="curve" smooth="yes"/>
      <point x="221" y="136"/>
      <point x="380" y="322"/>
      <point x="415" y="366" type="curve"/>
      <point x="443" y="326"/>
      <point x="595" y="120"/>
      <point x="595" y="86" type="curve" smooth="yes"/>
      <point x="595" y="42"/>
      <point x="548" y="35"/>
      <point x="514" y="35" type="curve"/>
      <point x="514" y="0" type="line"/>
    </contour>
  </outline>
</glyph>
<glyph name="y" format="2">
  <advance width="926"/>
  <unicode hex="0079"/>
  <anchor x="504" y="912" name="above"/>
  <outline>
    <contour>
      <point x="917" y="828" type="line"/>
      <point x="647" y="828" type="line"/>
      <point x="647" y="794" type="line"/>
      <point x="685" y="794"/>
      <point x="732" y="794"/>
      <point x="732" y="745" type="curve" smooth="yes"/>
      <point x="732" y="724"/>
      <point x="722" y="701"/>
      <point x="713" y="678" type="curve" smooth="yes"/>
      <point x="528" y="218" type="line"/>
      <point x="326" y="636" type="line" smooth="yes"/>
      <point x="312" y="666"/>
      <point x="295" y="701"/>
      <point x="295" y="734" type="curve" smooth="yes"/>
      <point x="295" y="794"/>
      <point x="352" y="794"/>
      <point x="398" y="794" type="curve"/>
      <point x="398" y="828" type="line"/>
      <point x="10" y="828" type="line"/>
      <point x="10" y="794" type="line"/>
      <point x="91" y="786"/>
      <point x="128" y="724"/>
      <point x="160" y="659" type="curve" smooth="yes"/>
      <point x="457" y="35" type="line"/>
      <point x="434" y="-19"/>
      <point x="368" y="-248"/>
      <point x="272" y="-248" type="curve" smooth="yes"/>
      <point x="234" y="-248"/>
      <point x="190" y="-216"/>
      <point x="145" y="-216" type="curve" smooth="yes"/>
      <point x="91" y="-216"/>
      <point x="54" y="-239"/>
      <point x="54" y="-298" type="curve" smooth="yes"/>
      <point x="54" y="-364"/>
      <point x="115" y="-401"/>
      <point x="176" y="-401" type="curve" smooth="yes"/>
      <point x="310" y="-401"/>
      <point x="410" y="-270"/>
      <point x="457" y="-157" type="curve" smooth="yes"/>
      <point x="794" y="671" type="line" smooth="yes"/>
      <point x="822" y="739"/>
      <point x="841" y="788"/>
      <point x="917" y="794" type="curve"/>
    </contour>
  </outline>
</glyph>
<glyph name="braceleft" format="2">
  <advance width="884"/>
  <unicode hex="007B"/>
  <outline>
    <contour>
      <point x="728" y="-345" type="line"/>
      <point x="589" y="-313"/>
      <point x="505" y="-228"/>
      <point x="505" y="-81" type="curve" smooth="yes"/>
      <point x="505" y="10"/>
      <point x="549" y="98"/>
      <point x="549" y="191" type="curve" smooth="yes" name="hr01"/>
      <point x="549" y="376"/>
      <point x="443" y="488"/>
      <point x="274" y="550" type="curve"/>
      <point x="440" y="609"/>
      <point x="549" y="720"/>
      <point x="549" y="901" type="curve" smooth="yes"/>
      <point x="549" y="997"/>
      <point x="505" y="1085"/>
      <point x="505" y="1178" type="curve" smooth="yes" name="hr02"/>
      <point x="505" y="1324"/>
      <point x="589" y="1408"/>
      <point x="728" y="1440" type="curve"/>
      <point x="728" y="1476" type="line"/>
      <point x="542" y="1457"/>
      <point x="356" y="1305"/>
      <point x="356" y="1109" type="curve" smooth="yes"/>
      <point x="356" y="999"/>
      <point x="402" y="897"/>
      <point x="402" y="788" type="curve" smooth="yes" name="hr03"/>
      <point x="402" y="672"/>
      <point x="280" y="587"/>
      <point x="172" y="574" type="curve"/>
      <point x="172" y="522" type="line"/>
      <point x="280" y="509"/>
      <point x="402" y="422"/>
      <point x="402" y="305" type="curve" smooth="yes"/>
      <point x="402" y="203"/>
      <point x="356" y="105"/>
      <point x="356" y="2" type="curve" smooth="yes" name="hr04"/>
      <point x="356" y="-199"/>
      <point x="535" y="-360"/>
      <point x="728" y="-380" type="curve"/>
    </contour>
  </outline>
</glyph>
<glyph name="bar" format="2">
  <advance width="371"/>
  <unicode hex="007C"/>
  <outline>
    <contour>
      <point x="223" y="-401" type="line"/>
      <point x="223" y="1285" type="line"/>
      <point x="145" y="1285" type="line"/>
      <point x="145" y="-401" type="line"/>
    </contour>
  </outline>
</glyph>
<glyph name="braceright" format="2">
  <advance width="884"/>
  <unicode hex="007D"/>
  <outline>
    <contour>
      <point x="156" y="-345" type="curve"/>
      <point x="156" y="-380" type="line"/>
      <point x="349" y="-360"/>
      <point x="528" y="-199"/>
      <point x="528" y="2" type="curve" smooth="yes" name="hr04"/>
      <point x="528" y="105"/>
      <point x="482" y="203"/>
      <point x="482" y="305" type="curve" smooth="yes"/>
      <point x="482" y="422"/>
      <point x="604" y="509"/>
      <point x="712" y="522" type="curve"/>
      <point x="712" y="574" type="line"/>
      <point x="604" y="587"/>
      <point x="482" y="672"/>
      <point x="482" y="788" type="curve" smooth="yes" name="hr03"/>
      <point x="482" y="897"/>
      <point x="528" y="999"/>
      <point x="528" y="1109" type="curve" smooth="yes"/>
      <point x="528" y="1305"/>
      <point x="342" y="1457"/>
      <point x="156" y="1476" type="curve"/>
      <point x="156" y="1440" type="line"/>
      <point x="295" y="1408"/>
      <point x="379" y="1324"/>
      <point x="379" y="1178" type="curve" smooth="yes" name="hr02"/>
      <point x="379" y="1085"/>
      <point x="335" y="997"/>
      <point x="335" y="901" type="curve" smooth="yes"/>
      <point x="335" y="720"/>
      <point x="444" y="609"/>
      <point x="610" y="550" type="curve"/>
      <point x="441" y="488"/>
      <point x="335" y="376"/>
      <point x="335" y="191" type="curve" smooth="yes" name="hr01"/>
      <point x="335" y="98"/>
      <point x="379" y="10"/>
      <point x="379" y="-81" type="curve" smooth="yes"/>
      <point x="379" y="-228"/>
      <point x="295" y="-313"/>
    </contour>
  </outline>
</glyph>
<glyph name="asciitilde" format="2">
  <advance width="1008"/>
  <unicode hex="007E"/>
  <outline>
    <contour>
      <point x="922" y="638" type="line"/>
      <point x="882" y="560"/>
      <point x="821" y="476"/>
      <point x="727" y="476" type="curve" smooth="yes"/>
      <point x="610" y="476"/>
      <point x="430" y="614"/>
      <point x="293" y="614" type="curve" smooth="yes"/>
      <point x="160" y="614"/>
      <point x="91" y="504"/>
      <point x="37" y="401" type="curve"/>
      <point x="86" y="335" type="line"/>
      <point x="131" y="410"/>
      <point x="185" y="506"/>
      <point x="283" y="506" type="curve" smooth="yes"/>
      <point x="430" y="506"/>
      <point x="568" y="373"/>
      <point x="718" y="373" type="curve" smooth="yes" name="hr01"/>
      <point x="840" y="373"/>
      <point x="922" y="472"/>
      <point x="973" y="570" type="curve"/>
    </contour>
  </outline>
</glyph>
<glyph name="exclamdown" format="2">
  <advance width="617"/>
  <unicode hex="00A1"/>
  <outline>
    <contour>
      <point x="410" y="779" type="curve" smooth="yes"/>
      <point x="410" y="852"/>
      <point x="349" y="883"/>
      <point x="308" y="883" type="curve" smooth="yes"/>
      <point x="256" y="883"/>
      <point x="209" y="836"/>
      <point x="209" y="779" type="curve" smooth="yes"/>
      <point x="209" y="718"/>
      <point x="262" y="680"/>
      <point x="308" y="680" type="curve" smooth="yes"/>
      <point x="355" y="680"/>
      <point x="410" y="715"/>
    </contour>
    <contour>
      <point x="412" y="-272" type="curve" smooth="yes"/>
      <point x="412" y="-258"/>
      <point x="410" y="-246"/>
      <point x="404" y="-203" type="curve"/>
      <point x="326" y="530" type="line"/>
      <point x="290" y="530" type="line"/>
      <point x="209" y="-203" type="line"/>
      <point x="205" y="-228"/>
      <point x="205" y="-250"/>
      <point x="205" y="-264" type="curve" smooth="yes"/>
      <point x="205" y="-364"/>
      <point x="262" y="-400"/>
      <point x="306" y="-400" type="curve" smooth="yes"/>
      <point x="366" y="-400"/>
      <point x="412" y="-354"/>
    </contour>
  </outline>
</glyph>
<glyph name="cent" format="2">
  <advance width="926"/>
  <unicode hex="00A2"/>
  <outline>
    <contour>
      <point x="786" y="326" type="line"/>
      <point x="739" y="216"/>
      <point x="664" y="118"/>
      <point x="530" y="118" type="curve" smooth="yes"/>
      <point x="484" y="118"/>
      <point x="438" y="133"/>
      <point x="398" y="160" type="curve"/>
      <point x="600" y="713" type="line"/>
      <point x="622" y="647"/>
      <point x="605" y="577"/>
      <point x="706" y="577" type="curve" smooth="yes"/>
      <point x="757" y="577"/>
      <point x="791" y="600"/>
      <point x="791" y="654" type="curve" smooth="yes"/>
      <point x="791" y="730"/>
      <point x="708" y="802"/>
      <point x="644" y="828" type="curve"/>
      <point x="776" y="1199" type="line"/>
      <point x="713" y="1199" type="line"/>
      <point x="584" y="846" type="line"/>
      <point x="560" y="851"/>
      <point x="535" y="853"/>
      <point x="509" y="853" type="curve" smooth="yes"/>
      <point x="265" y="853"/>
      <point x="113" y="644"/>
      <point x="113" y="413" type="curve" smooth="yes"/>
      <point x="113" y="260"/>
      <point x="160" y="118"/>
      <point x="288" y="30" type="curve"/>
      <point x="152" y="-342" type="line"/>
      <point x="216" y="-342" type="line"/>
      <point x="340" y="0" type="line"/>
      <point x="380" y="-17"/>
      <point x="422" y="-28"/>
      <point x="467" y="-28" type="curve" smooth="yes"/>
      <point x="654" y="-28"/>
      <point x="786" y="143"/>
      <point x="814" y="314" type="curve"/>
    </contour>
    <contour>
      <point x="352" y="204" type="line"/>
      <point x="283" y="286"/>
      <point x="263" y="391"/>
      <point x="263" y="492" type="curve" smooth="yes"/>
      <point x="263" y="626"/>
      <point x="319" y="794"/>
      <point x="479" y="794" type="curve" smooth="yes"/>
      <point x="506" y="794"/>
      <point x="533" y="788"/>
      <point x="558" y="774" type="curve"/>
    </contour>
  </outline>
</glyph>
<glyph name="sterling" format="2">
  <advance width="926"/>
  <unicode hex="00A3"/>
  <outline>
    <contour>
      <point x="851" y="283" type="line"/>
      <point x="823" y="187"/>
      <point x="760" y="138"/>
      <point x="659" y="138" type="curve" smooth="yes"/>
      <point x="590" y="138"/>
      <point x="432" y="190"/>
      <point x="366" y="211" type="curve"/>
      <point x="415" y="342"/>
      <point x="420" y="460"/>
      <point x="420" y="598" type="curve"/>
      <point x="654" y="598" type="line"/>
      <point x="654" y="683" type="line"/>
      <point x="420" y="683" type="line"/>
      <point x="413" y="769"/>
      <point x="401" y="860"/>
      <point x="401" y="949" type="curve" smooth="yes" name="hr01"/>
      <point x="401" y="1060"/>
      <point x="425" y="1201"/>
      <point x="565" y="1201" type="curve" smooth="yes"/>
      <point x="752" y="1201"/>
      <point x="614" y="992"/>
      <point x="748" y="992" type="curve" smooth="yes" name="hr02"/>
      <point x="784" y="992"/>
      <point x="816" y="1032"/>
      <point x="816" y="1067" type="curve" smooth="yes"/>
      <point x="816" y="1187"/>
      <point x="696" y="1253"/>
      <point x="587" y="1253" type="curve" smooth="yes"/>
      <point x="371" y="1253"/>
      <point x="251" y="1062"/>
      <point x="251" y="863" type="curve" smooth="yes"/>
      <point x="251" y="802"/>
      <point x="260" y="742"/>
      <point x="263" y="683" type="curve"/>
      <point x="89" y="683" type="line"/>
      <point x="89" y="598" type="line"/>
      <point x="263" y="598" type="line"/>
      <point x="272" y="494"/>
      <point x="283" y="391"/>
      <point x="283" y="288" type="curve" smooth="yes"/>
      <point x="283" y="268"/>
      <point x="283" y="248"/>
      <point x="280" y="228" type="curve"/>
      <point x="256" y="234"/>
      <point x="228" y="236"/>
      <point x="204" y="236" type="curve" smooth="yes"/>
      <point x="118" y="236"/>
      <point x="54" y="182"/>
      <point x="54" y="94" type="curve" smooth="yes"/>
      <point x="54" y="24"/>
      <point x="86" y="-22"/>
      <point x="160" y="-22" type="curve" smooth="yes"/>
      <point x="244" y="-22"/>
      <point x="298" y="56"/>
      <point x="329" y="125" type="curve"/>
      <point x="420" y="59"/>
      <point x="506" y="-22"/>
      <point x="624" y="-22" type="curve" smooth="yes"/>
      <point x="781" y="-22"/>
      <point x="868" y="136"/>
      <point x="884" y="275" type="curve"/>
    </contour>
    <contour>
      <point x="270" y="155" type="curve"/>
      <point x="258" y="106"/>
      <point x="232" y="32"/>
      <point x="167" y="32" type="curve" smooth="yes"/>
      <point x="122" y="32"/>
      <point x="108" y="61"/>
      <point x="108" y="101" type="curve" smooth="yes"/>
      <point x="108" y="157"/>
      <point x="140" y="180"/>
      <point x="192" y="180" type="curve" smooth="yes"/>
      <point x="221" y="180"/>
      <point x="248" y="172"/>
    </contour>
  </outline>
</glyph>
<glyph name="currency" format="2">
  <advance width="1069"/>
  <unicode hex="00A4"/>
  <outline>
    <contour>
      <point x="1015" y="349" type="line"/>
      <point x="833" y="533" type="line"/>
      <point x="884" y="598"/>
      <point x="910" y="678"/>
      <point x="910" y="762" type="curve" smooth="yes"/>
      <point x="910" y="848"/>
      <point x="884" y="931"/>
      <point x="830" y="997" type="curve"/>
      <point x="1015" y="1182" type="line"/>
      <point x="952" y="1248" type="line"/>
      <point x="762" y="1060" type="line"/>
      <point x="698" y="1114"/>
      <point x="622" y="1138"/>
      <point x="539" y="1138" type="curve" smooth="yes"/>
      <point x="455" y="1138"/>
      <point x="371" y="1114"/>
      <point x="305" y="1060" type="curve"/>
      <point x="118" y="1248" type="line"/>
      <point x="54" y="1182" type="line"/>
      <point x="241" y="995" type="line"/>
      <point x="182" y="931"/>
      <point x="160" y="846"/>
      <point x="160" y="762" type="curve" smooth="yes"/>
      <point x="160" y="678"/>
      <point x="185" y="598"/>
      <point x="236" y="533" type="curve"/>
      <point x="54" y="349" type="line"/>
      <point x="118" y="286" type="line"/>
      <point x="302" y="469" type="line"/>
      <point x="368" y="410"/>
      <point x="450" y="386"/>
      <point x="539" y="386" type="curve" smooth="yes"/>
      <point x="624" y="386"/>
      <point x="703" y="413"/>
      <point x="767" y="469" type="curve"/>
      <point x="952" y="286" type="line"/>
    </contour>
    <contour>
      <point x="809" y="762" type="curve" smooth="yes"/>
      <point x="809" y="612"/>
      <point x="690" y="487"/>
      <point x="539" y="487" type="curve" smooth="yes"/>
      <point x="383" y="487"/>
      <point x="260" y="607"/>
      <point x="260" y="762" type="curve" smooth="yes"/>
      <point x="260" y="917"/>
      <point x="383" y="1037"/>
      <point x="539" y="1037" type="curve" smooth="yes"/>
      <point x="688" y="1037"/>
      <point x="809" y="912"/>
    </contour>
  </outline>
</glyph>
<glyph name="yen" format="2">
  <advance width="926"/>
  <unicode hex="00A5"/>
  <outline>
    <contour>
      <point x="910" y="319" type="line"/>
      <point x="910" y="386" type="line"/>
      <point x="541" y="386" type="line"/>
      <point x="541" y="530" type="line"/>
      <point x="548" y="548" type="line"/>
      <point x="910" y="548" type="line"/>
      <point x="910" y="612" type="line"/>
      <point x="572" y="612" type="line"/>
      <point x="769" y="1052" type="line" smooth="yes"/>
      <point x="804" y="1128"/>
      <point x="835" y="1194"/>
      <point x="926" y="1194" type="curve"/>
      <point x="926" y="1226" type="line"/>
      <point x="612" y="1226" type="line"/>
      <point x="612" y="1194" type="line"/>
      <point x="652" y="1192"/>
      <point x="713" y="1187"/>
      <point x="713" y="1138" type="curve" smooth="yes"/>
      <point x="713" y="1114"/>
      <point x="704" y="1090"/>
      <point x="696" y="1069" type="curve" smooth="yes"/>
      <point x="502" y="612" type="line"/>
      <point x="487" y="652"/>
      <point x="290" y="1118"/>
      <point x="290" y="1138" type="curve" smooth="yes"/>
      <point x="290" y="1180"/>
      <point x="371" y="1192"/>
      <point x="403" y="1194" type="curve"/>
      <point x="403" y="1226" type="line"/>
      <point x="2" y="1226" type="line"/>
      <point x="2" y="1194" type="line"/>
      <point x="94" y="1184"/>
      <point x="116" y="1140"/>
      <point x="150" y="1062" type="curve" smooth="yes"/>
      <point x="342" y="612" type="line"/>
      <point x="17" y="612" type="line"/>
      <point x="17" y="548" type="line"/>
      <point x="373" y="548" type="line"/>
      <point x="386" y="516" type="line"/>
      <point x="386" y="386" type="line"/>
      <point x="17" y="386" type="line"/>
      <point x="17" y="319" type="line" name="hr01"/>
      <point x="386" y="319" type="line"/>
      <point x="386" y="221" type="line" smooth="yes"/>
      <point x="386" y="76"/>
      <point x="386" y="37"/>
      <point x="228" y="37" type="curve"/>
      <point x="228" y="0" type="line" name="hr02"/>
      <point x="696" y="0" type="line"/>
      <point x="696" y="37" type="line"/>
      <point x="544" y="37"/>
      <point x="541" y="82"/>
      <point x="541" y="221" type="curve" smooth="yes"/>
      <point x="541" y="319" type="line" name="hr03"/>
    </contour>
  </outline>
</glyph>
<glyph name="brokenbar" format="2">
  <advance width="560"/>
  <unicode hex="00A6"/>
  <outline>
    <contour>
      <point x="326" y="600" type="line"/>
      <point x="326" y="1313" type="line"/>
      <point x="236" y="1313" type="line"/>
      <point x="236" y="600" type="line"/>
    </contour>
    <contour>
      <point x="326" y="-354" type="line"/>
      <point x="326" y="359" type="line"/>
      <point x="236" y="359" type="line"/>
      <point x="236" y="-354" type="line"/>
    </contour>
  </outline>
</glyph>
<glyph name="section" format="2">
  <advance width="926"/>
  <unicode hex="00A7"/>
  <outline>
    <contour>
      <point x="786" y="434" type="curve" smooth="yes"/>
      <point x="786" y="739"/>
      <point x="326" y="823"/>
      <point x="326" y="1057" type="curve" smooth="yes"/>
      <point x="326" y="1147"/>
      <point x="394" y="1214"/>
      <point x="484" y="1214" type="curve" smooth="yes"/>
      <point x="544" y="1214"/>
      <point x="584" y="1192"/>
      <point x="584" y="1128" type="curve" smooth="yes" name="hr01"/>
      <point x="584" y="1098"/>
      <point x="572" y="1069"/>
      <point x="572" y="1039" type="curve" smooth="yes"/>
      <point x="572" y="1003"/>
      <point x="607" y="971"/>
      <point x="644" y="971" type="curve" smooth="yes"/>
      <point x="696" y="971"/>
      <point x="715" y="1006"/>
      <point x="715" y="1052" type="curve" smooth="yes"/>
      <point x="715" y="1180"/>
      <point x="602" y="1253"/>
      <point x="484" y="1253" type="curve" smooth="yes"/>
      <point x="344" y="1253"/>
      <point x="228" y="1138"/>
      <point x="228" y="997" type="curve" smooth="yes"/>
      <point x="228" y="912"/>
      <point x="288" y="826"/>
      <point x="340" y="762" type="curve"/>
      <point x="226" y="694"/>
      <point x="140" y="595"/>
      <point x="140" y="457" type="curve" smooth="yes" name="hr02"/>
      <point x="140" y="155"/>
      <point x="605" y="54"/>
      <point x="605" y="-180" type="curve" smooth="yes"/>
      <point x="605" y="-256"/>
      <point x="521" y="-326"/>
      <point x="445" y="-326" type="curve" smooth="yes"/>
      <point x="406" y="-326"/>
      <point x="337" y="-307"/>
      <point x="337" y="-256" type="curve" smooth="yes"/>
      <point x="337" y="-223"/>
      <point x="354" y="-190"/>
      <point x="354" y="-157" type="curve" smooth="yes"/>
      <point x="354" y="-118"/>
      <point x="326" y="-79"/>
      <point x="283" y="-79" type="curve" smooth="yes"/>
      <point x="239" y="-79"/>
      <point x="214" y="-118"/>
      <point x="214" y="-160" type="curve" smooth="yes" name="hr03"/>
      <point x="214" y="-280"/>
      <point x="322" y="-361"/>
      <point x="438" y="-361" type="curve" smooth="yes"/>
      <point x="587" y="-361"/>
      <point x="696" y="-251"/>
      <point x="696" y="-103" type="curve" smooth="yes"/>
      <point x="696" y="-14"/>
      <point x="644" y="64"/>
      <point x="587" y="125" type="curve"/>
      <point x="701" y="197"/>
      <point x="786" y="295"/>
    </contour>
    <contour>
      <point x="371" y="734" type="curve"/>
      <point x="479" y="644"/>
      <point x="694" y="511"/>
      <point x="694" y="354" type="curve" smooth="yes"/>
      <point x="694" y="263"/>
      <point x="626" y="197"/>
      <point x="556" y="152" type="curve"/>
      <point x="455" y="270"/>
      <point x="232" y="347"/>
      <point x="232" y="533" type="curve" smooth="yes"/>
      <point x="232" y="624"/>
      <point x="295" y="690"/>
    </contour>
  </outline>
</glyph>
<glyph name="copyright" format="2">
  <advance width="1409"/>
  <unicode hex="00A9"/>
  <outline>
    <contour>
      <point x="1346" y="612" type="curve" smooth="yes"/>
      <point x="1346" y="976"/>
      <point x="1067" y="1253"/>
      <point x="703" y="1253" type="curve" smooth="yes"/>
      <point x="342" y="1253"/>
      <point x="61" y="976"/>
      <point x="61" y="612" type="curve" smooth="yes"/>
      <point x="61" y="251"/>
      <point x="342" y="-30"/>
      <point x="703" y="-30" type="curve" smooth="yes"/>
      <point x="1064" y="-30"/>
      <point x="1346" y="253"/>
    </contour>
    <contour>
      <point x="1290" y="612" type="curve" smooth="yes"/>
      <point x="1290" y="286"/>
      <point x="1032" y="30"/>
      <point x="703" y="30" type="curve" smooth="yes"/>
      <point x="376" y="30"/>
      <point x="120" y="286"/>
      <point x="120" y="612" type="curve" smooth="yes"/>
      <point x="120" y="938"/>
      <point x="376" y="1199"/>
      <point x="703" y="1199" type="curve" smooth="yes"/>
      <point x="1032" y="1199"/>
      <point x="1290" y="941"/>
    </contour>
    <contour>
      <point x="1020" y="408" type="line"/>
      <point x="954" y="312"/>
      <point x="858" y="263"/>
      <point x="739" y="263" type="curve" smooth="yes"/>
      <point x="518" y="263"/>
      <point x="438" y="440"/>
      <point x="438" y="634" type="curve" smooth="yes"/>
      <point x="438" y="818"/>
      <point x="523" y="985"/>
      <point x="730" y="985" type="curve" smooth="yes" name="hr01"/>
      <point x="875" y="985"/>
      <point x="961" y="905"/>
      <point x="1006" y="774" type="curve"/>
      <point x="1039" y="774" type="line"/>
      <point x="1020" y="1027" type="line"/>
      <point x="985" y="1027" type="line"/>
      <point x="978" y="1008"/>
      <point x="964" y="985"/>
      <point x="941" y="985" type="curve" smooth="yes"/>
      <point x="902" y="985"/>
      <point x="816" y="1027"/>
      <point x="739" y="1027" type="curve" smooth="yes"/>
      <point x="492" y="1027"/>
      <point x="288" y="868"/>
      <point x="288" y="607" type="curve" smooth="yes"/>
      <point x="288" y="371"/>
      <point x="476" y="204"/>
      <point x="708" y="204" type="curve" smooth="yes"/>
      <point x="853" y="204"/>
      <point x="971" y="268"/>
      <point x="1055" y="389" type="curve"/>
    </contour>
  </outline>
</glyph>
<glyph name="guillemetleft" format="2">
  <advance width="926"/>
  <unicode hex="00AB"/>
  <outline>
    <contour>
      <point x="868" y="-7" type="line"/>
      <point x="647" y="420" type="line"/>
      <point x="868" y="846" type="line"/>
      <point x="816" y="846" type="line"/>
      <point x="460" y="420" type="line"/>
      <point x="816" y="-7" type="line"/>
    </contour>
    <contour>
      <point x="457" y="-7" type="line"/>
      <point x="236" y="420" type="line"/>
      <point x="457" y="846" type="line"/>
      <point x="408" y="846" type="line"/>
      <point x="56" y="420" type="line"/>
      <point x="408" y="-7" type="line"/>
    </contour>
  </outline>
</glyph>
<glyph name="softhyphen" format="2">
  <advance width="617"/>
  <unicode hex="00AD"/>
  <outline>
    <contour>
      <point x="541" y="347" type="line"/>
      <point x="541" y="481" type="line"/>
      <point x="73" y="481" type="line"/>
      <point x="73" y="347" type="line"/>
    </contour>
  </outline>
</glyph>
<glyph name="plusminus" format="2">
  <advance width="1782"/>
  <unicode hex="00B1"/>
  <outline>
    <contour>
      <point x="1426" y="638" type="line"/>
      <point x="1426" y="750" type="line"/>
      <point x="946" y="750" type="line"/>
      <point x="946" y="1069" type="line"/>
      <point x="835" y="1069" type="line"/>
      <point x="835" y="750" type="line"/>
      <point x="356" y="750" type="line"/>
      <point x="356" y="638" type="line"/>
      <point x="835" y="638" type="line"/>
      <point x="835" y="317" type="line"/>
      <point x="946" y="317" type="line"/>
      <point x="946" y="638" type="line"/>
    </contour>
    <contour>
      <point x="1426" y="0" type="line"/>
      <point x="1426" y="110" type="line"/>
      <point x="356" y="110" type="line"/>
      <point x="356" y="0" type="line"/>
    </contour>
  </outline>
</glyph>
<glyph name="acute" format="2">
  <advance width="634"/>
  <unicode hex="00B4"/>
  <anchor x="272" y="912" name="_above"/>
  <outline>
    <contour>
      <point x="521" y="1206" type="curve" smooth="yes"/>
      <point x="521" y="1234"/>
      <point x="503" y="1260"/>
      <point x="473" y="1260" type="curve" smooth="yes"/>
      <point x="428" y="1260"/>
      <point x="391" y="1231"/>
      <point x="361" y="1201" type="curve" smooth="yes"/>
      <point x="106" y="943" type="line"/>
      <point x="180" y="943" type="line"/>
      <point x="448" y="1111" type="line" smooth="yes"/>
      <point x="487" y="1136"/>
      <point x="521" y="1165"/>
    </contour>
  </outline>
</glyph>
<glyph name="micro" format="2">
  <advance width="1049"/>
  <unicode hex="00B5"/>
  <outline>
    <contour>
      <point x="943" y="187" type="line"/>
      <point x="936" y="150"/>
      <point x="919" y="73"/>
      <point x="870" y="73" type="curve" smooth="yes"/>
      <point x="814" y="73"/>
      <point x="809" y="162"/>
      <point x="809" y="228" type="curve" smooth="yes"/>
      <point x="809" y="826" type="line"/>
      <point x="659" y="826" type="line"/>
      <point x="659" y="206" type="line"/>
      <point x="605" y="145"/>
      <point x="530" y="86"/>
      <point x="445" y="86" type="curve" smooth="yes"/>
      <point x="324" y="86"/>
      <point x="317" y="217"/>
      <point x="317" y="332" type="curve" smooth="yes"/>
      <point x="317" y="826" type="line"/>
      <point x="169" y="826" type="line"/>
      <point x="169" y="172" type="line" smooth="yes"/>
      <point x="169" y="64"/>
      <point x="164" y="-47"/>
      <point x="140" y="-152" type="curve" smooth="yes"/>
      <point x="131" y="-199"/>
      <point x="113" y="-256"/>
      <point x="113" y="-302" type="curve" smooth="yes"/>
      <point x="113" y="-347"/>
      <point x="140" y="-401"/>
      <point x="192" y="-401" type="curve" smooth="yes"/>
      <point x="244" y="-401"/>
      <point x="275" y="-347"/>
      <point x="275" y="-300" type="curve" smooth="yes"/>
      <point x="275" y="-197"/>
      <point x="234" y="-96"/>
      <point x="234" y="10" type="curve" smooth="yes" name="hr01"/>
      <point x="234" y="52" type="line"/>
      <point x="265" y="0"/>
      <point x="314" y="-28"/>
      <point x="373" y="-28" type="curve" smooth="yes"/>
      <point x="490" y="-28"/>
      <point x="587" y="66"/>
      <point x="659" y="145" type="curve"/>
      <point x="668" y="64"/>
      <point x="701" y="-28"/>
      <point x="802" y="-28" type="curve" smooth="yes"/>
      <point x="929" y="-28"/>
      <point x="973" y="73"/>
      <point x="980" y="187" type="curve"/>
    </contour>
  </outline>
</glyph>
<glyph name="paragraph" format="2">
  <advance width="838"/>
  <unicode hex="00B6"/>
  <outline>
    <contour>
      <point x="842" y="1177" type="line"/>
      <point x="842" y="1226" type="line"/>
      <point x="396" y="1226" type="line" smooth="yes"/>
      <point x="176" y="1226"/>
      <point x="-12" y="1130"/>
      <point x="-12" y="887" type="curve" smooth="yes"/>
      <point x="-12" y="624"/>
      <point x="194" y="551"/>
      <point x="422" y="546" type="curve"/>
      <point x="422" y="-401" type="line"/>
      <point x="490" y="-401" type="line"/>
      <point x="490" y="1177" type="line"/>
      <point x="656" y="1177" type="line"/>
      <point x="656" y="-401" type="line"/>
      <point x="722" y="-401" type="line"/>
      <point x="722" y="1177" type="line"/>
    </contour>
  </outline>
</glyph>
<glyph name="periodcentered" format="2">
  <advance width="335"/>
  <unicode hex="00B7"/>
  <outline>
    <contour>
      <point x="272" y="607" type="curve" smooth="yes"/>
      <point x="272" y="666"/>
      <point x="226" y="710"/>
      <point x="167" y="710" type="curve" smooth="yes"/>
      <point x="108" y="710"/>
      <point x="61" y="666"/>
      <point x="61" y="607" type="curve" smooth="yes"/>
      <point x="61" y="546"/>
      <point x="108" y="502"/>
      <point x="167" y="502" type="curve" smooth="yes"/>
      <point x="226" y="502"/>
      <point x="272" y="546"/>
    </contour>
  </outline>
</glyph>
<glyph name="cedilla" format="2">
  <advance width="434"/>
  <unicode hex="00B8"/>
  <anchor x="185" y="-60" name="_below"/>
  <outline>
    <contour>
      <point x="410" y="-244" type="curve" smooth="yes"/>
      <point x="410" y="-155"/>
      <point x="337" y="-115"/>
      <point x="256" y="-115" type="curve" smooth="yes"/>
      <point x="239" y="-115"/>
      <point x="221" y="-118"/>
      <point x="204" y="-120" type="curve"/>
      <point x="256" y="12" type="line"/>
      <point x="190" y="12" type="line"/>
      <point x="108" y="-185" type="line"/>
      <point x="120" y="-194" type="line"/>
      <point x="143" y="-187"/>
      <point x="164" y="-185"/>
      <point x="187" y="-185" type="curve" smooth="yes"/>
      <point x="236" y="-185"/>
      <point x="272" y="-202"/>
      <point x="272" y="-256" type="curve" smooth="yes"/>
      <point x="272" y="-319"/>
      <point x="218" y="-335"/>
      <point x="164" y="-335" type="curve" smooth="yes"/>
      <point x="125" y="-335"/>
      <point x="86" y="-326"/>
      <point x="49" y="-312" type="curve"/>
      <point x="22" y="-371" type="line"/>
      <point x="71" y="-389"/>
      <point x="122" y="-398"/>
      <point x="172" y="-398" type="curve" smooth="yes"/>
      <point x="265" y="-398"/>
      <point x="410" y="-359"/>
    </contour>
  </outline>
</glyph>
<glyph name="ordmasculine" format="2">
  <advance width="679"/>
  <unicode hex="00BA"/>
  <outline>
    <contour>
      <point x="628" y="988" type="curve" smooth="yes"/>
      <point x="628" y="1128"/>
      <point x="512" y="1241"/>
      <point x="341" y="1241" type="curve" smooth="yes"/>
      <point x="160" y="1241"/>
      <point x="52" y="1108"/>
      <point x="52" y="973" type="curve" smooth="yes"/>
      <point x="52" y="834"/>
      <point x="168" y="713"/>
      <point x="335" y="713" type="curve" smooth="yes"/>
      <point x="529" y="713"/>
      <point x="628" y="859"/>
    </contour>
    <contour>
      <point x="619" y="592" type="line"/>
      <point x="619" y="631" type="line"/>
      <point x="62" y="631" type="line"/>
      <point x="62" y="592" type="line"/>
    </contour>
    <contour>
      <point x="506" y="944" type="curve" smooth="yes"/>
      <point x="506" y="803"/>
      <point x="448" y="752"/>
      <point x="362" y="752" type="curve" smooth="yes"/>
      <point x="248" y="752"/>
      <point x="173" y="876"/>
      <point x="173" y="1018" type="curve" smooth="yes"/>
      <point x="173" y="1162"/>
      <point x="253" y="1206"/>
      <point x="322" y="1206" type="curve" smooth="yes"/>
      <point x="436" y="1206"/>
      <point x="506" y="1092"/>
    </contour>
  </outline>
</glyph>
<glyph name="onequarter" format="2">
  <advance width="1426"/>
  <unicode hex="00BC"/>
  <outline>
    <contour>
      <point x="1248" y="192" type="line"/>
      <point x="1248" y="268" type="line"/>
      <point x="1150" y="268" type="line"/>
      <point x="1150" y="752" type="line"/>
      <point x="1091" y="752" type="line"/>
      <point x="745" y="258" type="line"/>
      <point x="745" y="192" type="line"/>
      <point x="1060" y="192" type="line"/>
      <point x="1060" y="-7" type="line"/>
      <point x="1150" y="-7" type="line"/>
      <point x="1150" y="192" type="line"/>
    </contour>
    <contour>
      <point x="1182" y="1248" type="line"/>
      <point x="1098" y="1248" type="line"/>
      <point x="256" y="-14" type="line" name="hr01"/>
      <point x="344" y="-14" type="line"/>
    </contour>
    <contour>
      <point x="469" y="474" type="line"/>
      <point x="469" y="497" type="line"/>
      <point x="377" y="497"/>
      <point x="376" y="514"/>
      <point x="376" y="607" type="curve" smooth="yes"/>
      <point x="376" y="1234" type="line" name="hr02"/>
      <point x="356" y="1234" type="line"/>
      <point x="176" y="1145" type="line"/>
      <point x="185" y="1126" type="line"/>
      <point x="202" y="1135"/>
      <point x="221" y="1142"/>
      <point x="244" y="1142" type="curve" smooth="yes"/>
      <point x="284" y="1142"/>
      <point x="286" y="1073"/>
      <point x="286" y="1040" type="curve" smooth="yes"/>
      <point x="286" y="598" type="line" smooth="yes"/>
      <point x="286" y="511"/>
      <point x="277" y="497"/>
      <point x="190" y="497" type="curve"/>
      <point x="190" y="474" type="line"/>
    </contour>
    <contour>
      <point x="1060" y="268" type="line"/>
      <point x="799" y="268" type="line"/>
      <point x="1060" y="636" type="line"/>
    </contour>
  </outline>
</glyph>
<glyph name="onehalf" format="2">
  <advance width="1426"/>
  <unicode hex="00BD"/>
  <outline>
    <contour>
      <point x="1276" y="136" type="line"/>
      <point x="1253" y="136" type="line"/>
      <point x="1213" y="76"/>
      <point x="1177" y="76"/>
      <point x="1096" y="76" type="curve" smooth="yes"/>
      <point x="902" y="76" type="line"/>
      <point x="1015" y="194"/>
      <point x="1229" y="386"/>
      <point x="1229" y="556" type="curve" smooth="yes"/>
      <point x="1229" y="676"/>
      <point x="1130" y="752"/>
      <point x="1018" y="752" type="curve" smooth="yes"/>
      <point x="889" y="752"/>
      <point x="821" y="661"/>
      <point x="806" y="544" type="curve"/>
      <point x="826" y="544" type="line"/>
      <point x="853" y="622"/>
      <point x="905" y="668"/>
      <point x="988" y="668" type="curve" smooth="yes"/>
      <point x="1079" y="668"/>
      <point x="1135" y="590"/>
      <point x="1135" y="506" type="curve" smooth="yes"/>
      <point x="1135" y="335"/>
      <point x="937" y="156"/>
      <point x="784" y="14" type="curve"/>
      <point x="784" y="-7" type="line"/>
      <point x="1222" y="-7" type="line"/>
    </contour>
    <contour>
      <point x="1106" y="1248" type="line"/>
      <point x="1020" y="1248" type="line"/>
      <point x="239" y="-14" type="line" name="hr01"/>
      <point x="326" y="-14" type="line"/>
    </contour>
    <contour>
      <point x="445" y="474" type="line"/>
      <point x="445" y="497" type="line"/>
      <point x="356" y="497"/>
      <point x="349" y="511"/>
      <point x="349" y="598" type="curve" smooth="yes"/>
      <point x="349" y="1234" type="line" name="hr02"/>
      <point x="329" y="1234" type="line"/>
      <point x="150" y="1145" type="line"/>
      <point x="157" y="1126" type="line"/>
      <point x="174" y="1135"/>
      <point x="194" y="1142"/>
      <point x="216" y="1142" type="curve" smooth="yes"/>
      <point x="250" y="1142"/>
      <point x="258" y="1094"/>
      <point x="258" y="1051" type="curve" smooth="yes"/>
      <point x="258" y="598" type="line" smooth="yes"/>
      <point x="258" y="511"/>
      <point x="251" y="497"/>
      <point x="162" y="497" type="curve"/>
      <point x="162" y="474" type="line"/>
    </contour>
  </outline>
</glyph>
<glyph name="Eth" format="2">
  <advance width="1339"/>
  <unicode hex="00D0"/>
  <outline>
    <contour>
      <point x="1266" y="623" type="curve" smooth="yes"/>
      <point x="1266" y="880"/>
      <point x="1136" y="1076"/>
      <point x="954" y="1162" type="curve" smooth="yes"/>
      <point x="863" y="1205"/>
      <point x="721" y="1226"/>
      <point x="530" y="1226" type="curve" smooth="yes"/>
      <point x="32" y="1226" type="line"/>
      <point x="32" y="1194" type="line"/>
      <point x="78" y="1194" type="line" smooth="yes"/>
      <point x="125" y="1194"/>
      <point x="161" y="1183"/>
      <point x="184" y="1156" type="curve" smooth="yes"/>
      <point x="200" y="1135"/>
      <point x="208" y="1086"/>
      <point x="208" y="1010" type="curve" smooth="yes"/>
      <point x="208" y="716" type="line"/>
      <point x="32" y="716" type="line"/>
      <point x="32" y="613" type="line"/>
      <point x="208" y="613" type="line"/>
      <point x="208" y="217" type="line" smooth="yes"/>
      <point x="208" y="97"/>
      <point x="193" y="34"/>
      <point x="78" y="34" type="curve" smooth="yes"/>
      <point x="32" y="34" type="line"/>
      <point x="32" y="0" type="line"/>
      <point x="582" y="0" type="line" smooth="yes"/>
      <point x="1067" y="0"/>
      <point x="1266" y="277"/>
    </contour>
    <contour>
      <point x="1063" y="613" type="curve" smooth="yes"/>
      <point x="1063" y="272"/>
      <point x="854" y="65"/>
      <point x="574" y="65" type="curve" smooth="yes"/>
      <point x="522" y="65"/>
      <point x="452" y="71"/>
      <point x="382" y="90" type="curve"/>
      <point x="382" y="613" type="line"/>
      <point x="740" y="613" type="line"/>
      <point x="740" y="716" type="line"/>
      <point x="382" y="716" type="line"/>
      <point x="382" y="1134" type="line"/>
      <point x="452" y="1153"/>
      <point x="514" y="1160"/>
      <point x="566" y="1160" type="curve" smooth="yes"/>
      <point x="859" y="1160"/>
      <point x="1063" y="953"/>
    </contour>
  </outline>
</glyph>
<glyph name="Oslash" format="2">
  <advance width="1339"/>
  <unicode hex="00D8"/>
  <outline>
    <contour>
      <point x="1267" y="623" type="curve" smooth="yes"/>
      <point x="1267" y="808"/>
      <point x="1218" y="940"/>
      <point x="1087" y="1076" type="curve"/>
      <point x="1211" y="1226" type="line"/>
      <point x="1157" y="1266" type="line"/>
      <point x="1038" y="1120" type="line"/>
      <point x="929" y="1211"/>
      <point x="808" y="1255"/>
      <point x="671" y="1255" type="curve" smooth="yes" name="hr01"/>
      <point x="331" y="1255"/>
      <point x="66" y="980"/>
      <point x="66" y="628" type="curve" smooth="yes"/>
      <point x="66" y="432"/>
      <point x="126" y="272"/>
      <point x="248" y="148" type="curve"/>
      <point x="128" y="0" type="line"/>
      <point x="182" y="-43" type="line"/>
      <point x="298" y="102" type="line"/>
      <point x="408" y="12"/>
      <point x="553" y="-29"/>
      <point x="673" y="-29" type="curve" smooth="yes" name="hr02"/>
      <point x="986" y="-29"/>
      <point x="1267" y="246"/>
    </contour>
    <contour>
      <point x="962" y="1027" type="curve"/>
      <point x="338" y="262" type="line"/>
      <point x="294" y="370"/>
      <point x="272" y="492"/>
      <point x="272" y="631" type="curve" smooth="yes"/>
      <point x="272" y="889"/>
      <point x="362" y="1190"/>
      <point x="665" y="1190" type="curve" smooth="yes"/>
      <point x="793" y="1190"/>
      <point x="892" y="1138"/>
    </contour>
    <contour>
      <point x="1060" y="594" type="curve" smooth="yes"/>
      <point x="1060" y="191"/>
      <point x="883" y="37"/>
      <point x="660" y="37" type="curve" smooth="yes"/>
      <point x="551" y="37"/>
      <point x="458" y="78"/>
      <point x="376" y="196" type="curve"/>
      <point x="995" y="962" type="line"/>
      <point x="1055" y="808"/>
      <point x="1060" y="718"/>
    </contour>
  </outline>
</glyph>
<glyph name="germandbls" format="2">
  <advance width="928"/>
  <unicode hex="00DF"/>
  <outline>
    <contour>
      <point x="868" y="382" type="curve" smooth="yes"/>
      <point x="868" y="582"/>
      <point x="778" y="698"/>
      <point x="620" y="743" type="curve"/>
      <point x="767" y="804"/>
      <point x="793" y="900"/>
      <point x="793" y="994" type="curve" smooth="yes" name="hr01"/>
      <point x="793" y="1168"/>
      <point x="667" y="1288"/>
      <point x="474" y="1288" type="curve" smooth="yes"/>
      <point x="264" y="1288"/>
      <point x="151" y="1169"/>
      <point x="151" y="876" type="curve" smooth="yes"/>
      <point x="151" y="203" type="line" smooth="yes"/>
      <point x="151" y="65"/>
      <point x="126" y="36"/>
      <point x="32" y="34" type="curve"/>
      <point x="32" y="0" type="line"/>
      <point x="302" y="0" type="line"/>
      <point x="302" y="937" type="line" smooth="yes"/>
      <point x="302" y="1178"/>
      <point x="372" y="1226"/>
      <point x="468" y="1226" type="curve" smooth="yes"/>
      <point x="570" y="1226"/>
      <point x="642" y="1162"/>
      <point x="642" y="998" type="curve" smooth="yes"/>
      <point x="642" y="814"/>
      <point x="569" y="752"/>
      <point x="448" y="752" type="curve"/>
      <point x="448" y="701" type="line"/>
      <point x="631" y="686"/>
      <point x="713" y="530"/>
      <point x="713" y="283" type="curve" smooth="yes" name="hr02"/>
      <point x="713" y="121"/>
      <point x="658" y="40"/>
      <point x="578" y="40" type="curve" smooth="yes"/>
      <point x="548" y="40"/>
      <point x="526" y="54"/>
      <point x="526" y="82" type="curve" smooth="yes"/>
      <point x="526" y="92"/>
      <point x="536" y="126"/>
      <point x="536" y="143" type="curve" smooth="yes"/>
      <point x="536" y="186"/>
      <point x="509" y="214"/>
      <point x="461" y="214" type="curve" smooth="yes"/>
      <point x="413" y="214"/>
      <point x="389" y="182"/>
      <point x="389" y="136" type="curve" smooth="yes" name="hr03"/>
      <point x="389" y="49"/>
      <point x="463" y="-11"/>
      <point x="563" y="-11" type="curve" smooth="yes"/>
      <point x="752" y="-11"/>
      <point x="868" y="175"/>
    </contour>
  </outline>
</glyph>
<glyph name="ae" format="2">
  <advance width="1237"/>
  <unicode hex="00E6"/>
  <outline>
    <contour>
      <point x="1152" y="310" type="line"/>
      <point x="1070" y="110"/>
      <point x="930" y="110"/>
      <point x="895" y="110" type="curve" smooth="yes"/>
      <point x="725" y="110"/>
      <point x="664" y="253"/>
      <point x="664" y="449" type="curve" smooth="yes"/>
      <point x="664" y="514" type="line"/>
      <point x="1181" y="514" type="line"/>
      <point x="1177" y="730"/>
      <point x="1064" y="852"/>
      <point x="886" y="852" type="curve" smooth="yes"/>
      <point x="779" y="852"/>
      <point x="702" y="823"/>
      <point x="643" y="743" type="curve"/>
      <point x="619" y="806"/>
      <point x="550" y="852"/>
      <point x="400" y="852" type="curve" smooth="yes"/>
      <point x="188" y="852"/>
      <point x="95" y="738"/>
      <point x="95" y="648" type="curve" smooth="yes"/>
      <point x="95" y="602"/>
      <point x="118" y="562"/>
      <point x="176" y="562" type="curve" smooth="yes"/>
      <point x="214" y="562"/>
      <point x="250" y="593"/>
      <point x="250" y="643" type="curve" smooth="yes"/>
      <point x="250" y="661"/>
      <point x="246" y="678"/>
      <point x="246" y="706" type="curve" smooth="yes"/>
      <point x="246" y="760"/>
      <point x="298" y="803"/>
      <point x="376" y="803" type="curve" smooth="yes"/>
      <point x="458" y="803"/>
      <point x="510" y="756"/>
      <point x="510" y="623" type="curve" smooth="yes"/>
      <point x="510" y="540" type="line"/>
      <point x="187" y="410"/>
      <point x="66" y="349"/>
      <point x="66" y="182" type="curve" smooth="yes" name="hr01"/>
      <point x="66" y="66"/>
      <point x="157" y="-26"/>
      <point x="269" y="-26" type="curve" smooth="yes"/>
      <point x="414" y="-26"/>
      <point x="526" y="73"/>
      <point x="578" y="119" type="curve"/>
      <point x="628" y="41"/>
      <point x="689" y="-26"/>
      <point x="845" y="-26" type="curve" smooth="yes"/>
      <point x="1039" y="-26"/>
      <point x="1136" y="125"/>
      <point x="1181" y="289" type="curve"/>
    </contour>
    <contour>
      <point x="664" y="572" type="line"/>
      <point x="667" y="720"/>
      <point x="746" y="790"/>
      <point x="840" y="790" type="curve" smooth="yes"/>
      <point x="934" y="790"/>
      <point x="1003" y="727"/>
      <point x="1007" y="572" type="curve"/>
    </contour>
    <contour>
      <point x="553" y="168" type="curve"/>
      <point x="452" y="89"/>
      <point x="410" y="71"/>
      <point x="364" y="71" type="curve" smooth="yes"/>
      <point x="283" y="71"/>
      <point x="220" y="144"/>
      <point x="220" y="233" type="curve" smooth="yes"/>
      <point x="220" y="371"/>
      <point x="374" y="430"/>
      <point x="510" y="481" type="curve"/>
      <point x="510" y="401" type="line" smooth="yes"/>
      <point x="510" y="313"/>
      <point x="528" y="216"/>
    </contour>
  </outline>
</glyph>
<glyph name="eth" format="2">
  <advance width="928"/>
  <unicode hex="00F0"/>
  <outline>
    <contour>
      <point x="859" y="428" type="curve" smooth="yes"/>
      <point x="859" y="658"/>
      <point x="734" y="907"/>
      <point x="512" y="1105" type="curve"/>
      <point x="720" y="1223" type="line"/>
      <point x="689" y="1273" type="line"/>
      <point x="463" y="1148" type="line"/>
      <point x="385" y="1205"/>
      <point x="312" y="1252"/>
      <point x="239" y="1288" type="curve"/>
      <point x="216" y="1248" type="line"/>
      <point x="283" y="1200"/>
      <point x="306" y="1184"/>
      <point x="385" y="1105" type="curve"/>
      <point x="175" y="986" type="line"/>
      <point x="199" y="936" type="line"/>
      <point x="424" y="1060" type="line"/>
      <point x="492" y="980"/>
      <point x="547" y="892"/>
      <point x="595" y="793" type="curve"/>
      <point x="524" y="845"/>
      <point x="493" y="845"/>
      <point x="443" y="845" type="curve" smooth="yes"/>
      <point x="221" y="845"/>
      <point x="61" y="631"/>
      <point x="61" y="400" type="curve" smooth="yes"/>
      <point x="61" y="157"/>
      <point x="233" y="-26"/>
      <point x="452" y="-26" type="curve" smooth="yes"/>
      <point x="709" y="-26"/>
      <point x="859" y="199"/>
    </contour>
    <contour>
      <point x="692" y="341" type="curve" smooth="yes"/>
      <point x="692" y="126"/>
      <point x="607" y="40"/>
      <point x="496" y="40" type="curve" smooth="yes"/>
      <point x="334" y="40"/>
      <point x="228" y="230"/>
      <point x="228" y="469" type="curve" smooth="yes"/>
      <point x="228" y="715"/>
      <point x="328" y="791"/>
      <point x="433" y="791" type="curve" smooth="yes"/>
      <point x="588" y="791"/>
      <point x="692" y="616"/>
    </contour>
  </outline>
</glyph>
<glyph name="divide" format="2">
  <advance width="1782"/>
  <unicode hex="00F7"/>
  <outline>
    <contour>
      <point x="997" y="821" type="curve" smooth="yes"/>
      <point x="997" y="880"/>
      <point x="952" y="929"/>
      <point x="892" y="929" type="curve" smooth="yes"/>
      <point x="830" y="929"/>
      <point x="784" y="880"/>
      <point x="784" y="821" type="curve" smooth="yes"/>
      <point x="784" y="762"/>
      <point x="830" y="715"/>
      <point x="892" y="715" type="curve" smooth="yes"/>
      <point x="952" y="715"/>
      <point x="997" y="762"/>
    </contour>
    <contour>
      <point x="1426" y="479" type="line"/>
      <point x="1426" y="590" type="line"/>
      <point x="356" y="590" type="line"/>
      <point x="356" y="479" type="line"/>
    </contour>
    <contour>
      <point x="997" y="248" type="curve" smooth="yes"/>
      <point x="997" y="307"/>
      <point x="952" y="354"/>
      <point x="892" y="354" type="curve" smooth="yes"/>
      <point x="830" y="354"/>
      <point x="784" y="307"/>
      <point x="784" y="248" type="curve" smooth="yes"/>
      <point x="784" y="190"/>
      <point x="830" y="143"/>
      <point x="892" y="143" type="curve" smooth="yes"/>
      <point x="952" y="143"/>
      <point x="997" y="190"/>
    </contour>
  </outline>
</glyph>
<glyph name="thorn" format="2">
  <advance width="928"/>
  <unicode hex="00FE"/>
  <outline>
    <contour>
      <point x="864" y="445" type="curve" smooth="yes"/>
      <point x="864" y="676"/>
      <point x="738" y="852"/>
      <point x="554" y="852" type="curve" smooth="yes"/>
      <point x="455" y="852"/>
      <point x="372" y="803"/>
      <point x="287" y="656" type="curve"/>
      <point x="287" y="1288" type="line"/>
      <point x="253" y="1288" type="line"/>
      <point x="-1" y="1186" type="line"/>
      <point x="8" y="1156" type="line"/>
      <point x="34" y="1165"/>
      <point x="53" y="1169"/>
      <point x="67" y="1169" type="curve" smooth="yes"/>
      <point x="134" y="1169"/>
      <point x="138" y="1111"/>
      <point x="138" y="1058" type="curve" smooth="yes"/>
      <point x="138" y="-199" type="line" smooth="yes"/>
      <point x="138" y="-347"/>
      <point x="121" y="-355"/>
      <point x="-7" y="-362" type="curve"/>
      <point x="-7" y="-396" type="line"/>
      <point x="428" y="-396" type="line"/>
      <point x="428" y="-362" type="line"/>
      <point x="298" y="-355"/>
      <point x="287" y="-334"/>
      <point x="287" y="-203" type="curve" smooth="yes"/>
      <point x="287" y="48" type="line"/>
      <point x="366" y="-22"/>
      <point x="412" y="-26"/>
      <point x="485" y="-26" type="curve" name="hr01"/>
      <point x="715" y="-24"/>
      <point x="864" y="186"/>
    </contour>
    <contour>
      <point x="702" y="360" type="curve" smooth="yes"/>
      <point x="702" y="155"/>
      <point x="617" y="29"/>
      <point x="481" y="29" type="curve" smooth="yes"/>
      <point x="374" y="29"/>
      <point x="312" y="97"/>
      <point x="296" y="160" type="curve" smooth="yes"/>
      <point x="290" y="184"/>
      <point x="287" y="227"/>
      <point x="287" y="293" type="curve" smooth="yes"/>
      <point x="287" y="602" type="line"/>
      <point x="403" y="721"/>
      <point x="430" y="724"/>
      <point x="481" y="724" type="curve" smooth="yes"/>
      <point x="617" y="724"/>
      <point x="702" y="570"/>
    </contour>
  </outline>
</glyph>
<glyph name="idotless" format="2">
  <advance width="516"/>
  <unicode hex="0131"/>
  <anchor x="265" y="912" name="above"/>
  <outline>
    <contour>
      <point x="474" y="0" type="line"/>
      <point x="474" y="35" type="line"/>
      <point x="366" y="35"/>
      <point x="347" y="64"/>
      <point x="347" y="169" type="curve" smooth="yes"/>
      <point x="347" y="853" type="line"/>
      <point x="307" y="853" type="line"/>
      <point x="56" y="752" type="line"/>
      <point x="68" y="720" type="line"/>
      <point x="90" y="727"/>
      <point x="114" y="734"/>
      <point x="133" y="734" type="curve" smooth="yes"/>
      <point x="188" y="734"/>
      <point x="197" y="678"/>
      <point x="197" y="624" type="curve" smooth="yes"/>
      <point x="197" y="169" type="line" smooth="yes"/>
      <point x="197" y="64"/>
      <point x="176" y="35"/>
      <point x="68" y="35" type="curve"/>
      <point x="68" y="0" type="line"/>
    </contour>
  </outline>
</glyph>
<glyph name="OE" format="2">
  <advance width="1649"/>
  <unicode hex="0152"/>
  <guideline x="1086" y="0" angle="90"/>
  <outline>
    <contour>
      <point x="1595" y="307" type="line"/>
      <point x="1558" y="307" type="line"/>
      <point x="1480" y="125"/>
      <point x="1398" y="68"/>
      <point x="1201" y="68" type="curve" smooth="yes"/>
      <point x="1019" y="68"/>
      <point x="1001" y="82"/>
      <point x="1001" y="204" type="curve" smooth="yes"/>
      <point x="1001" y="607" type="line"/>
      <point x="1163" y="607" type="line" smooth="yes"/>
      <point x="1308" y="607"/>
      <point x="1344" y="568"/>
      <point x="1354" y="425" type="curve"/>
      <point x="1391" y="425" type="line"/>
      <point x="1391" y="853" type="line"/>
      <point x="1354" y="853" type="line"/>
      <point x="1354" y="720"/>
      <point x="1290" y="678"/>
      <point x="1163" y="678" type="curve" smooth="yes"/>
      <point x="1001" y="678" type="line"/>
      <point x="1001" y="1160" type="line"/>
      <point x="1231" y="1160" type="line" smooth="yes"/>
      <point x="1416" y="1160"/>
      <point x="1433" y="1130"/>
      <point x="1468" y="959" type="curve"/>
      <point x="1496" y="959" type="line"/>
      <point x="1487" y="1226" type="line"/>
      <point x="910" y="1226" type="line" smooth="yes"/>
      <point x="797" y="1226"/>
      <point x="707" y="1238"/>
      <point x="644" y="1238" type="curve" smooth="yes" name="hr01"/>
      <point x="277" y="1238"/>
      <point x="68" y="964"/>
      <point x="68" y="612" type="curve" smooth="yes"/>
      <point x="68" y="286"/>
      <point x="272" y="-14"/>
      <point x="622" y="-14" type="curve" smooth="yes"/>
      <point x="715" y="-14"/>
      <point x="811" y="0"/>
      <point x="905" y="0" type="curve" smooth="yes" name="hr02"/>
      <point x="1496" y="0" type="line"/>
    </contour>
    <contour>
      <point x="826" y="307" type="line"/>
      <point x="826" y="148"/>
      <point x="814" y="49"/>
      <point x="642" y="49" type="curve" smooth="yes"/>
      <point x="352" y="49"/>
      <point x="275" y="371"/>
      <point x="275" y="605" type="curve" smooth="yes"/>
      <point x="275" y="842"/>
      <point x="342" y="1180"/>
      <point x="644" y="1180" type="curve" smooth="yes"/>
      <point x="814" y="1180"/>
      <point x="826" y="1084"/>
      <point x="826" y="943" type="curve" smooth="yes"/>
    </contour>
  </outline>
</glyph>
<glyph name="oe" format="2">
  <advance width="1337"/>
  <unicode hex="0153"/>
  <outline>
    <contour>
      <point x="1248" y="322" type="line"/>
      <point x="1212" y="218"/>
      <point x="1147" y="125"/>
      <point x="1030" y="125" type="curve" smooth="yes"/>
      <point x="842" y="125"/>
      <point x="781" y="324"/>
      <point x="781" y="479" type="curve" smooth="yes"/>
      <point x="781" y="518" type="line"/>
      <point x="1278" y="518" type="line"/>
      <point x="1278" y="542" type="line" smooth="yes"/>
      <point x="1278" y="726"/>
      <point x="1177" y="853"/>
      <point x="980" y="853" type="curve" smooth="yes"/>
      <point x="870" y="853"/>
      <point x="786" y="802"/>
      <point x="727" y="710" type="curve"/>
      <point x="659" y="806"/>
      <point x="560" y="853"/>
      <point x="445" y="853" type="curve" smooth="yes"/>
      <point x="190" y="853"/>
      <point x="61" y="634"/>
      <point x="61" y="401" type="curve" smooth="yes"/>
      <point x="61" y="174"/>
      <point x="192" y="-28"/>
      <point x="438" y="-28" type="curve" smooth="yes"/>
      <point x="556" y="-28"/>
      <point x="656" y="28"/>
      <point x="727" y="120" type="curve"/>
      <point x="772" y="28"/>
      <point x="865" y="-28"/>
      <point x="968" y="-28" type="curve" smooth="yes"/>
      <point x="1163" y="-28"/>
      <point x="1246" y="140"/>
      <point x="1278" y="307" type="curve"/>
    </contour>
    <contour>
      <point x="781" y="577" type="line"/>
      <point x="784" y="668"/>
      <point x="828" y="794"/>
      <point x="938" y="794" type="curve" smooth="yes"/>
      <point x="1060" y="794"/>
      <point x="1098" y="680"/>
      <point x="1098" y="577" type="curve"/>
    </contour>
    <contour>
      <point x="647" y="342" type="curve" smooth="yes"/>
      <point x="647" y="216"/>
      <point x="624" y="40"/>
      <point x="462" y="40" type="curve" smooth="yes" name="hr01"/>
      <point x="270" y="40"/>
      <point x="232" y="349"/>
      <point x="232" y="490" type="curve" smooth="yes"/>
      <point x="232" y="610"/>
      <point x="248" y="802"/>
      <point x="410" y="802" type="curve" smooth="yes"/>
      <point x="622" y="802"/>
      <point x="647" y="497"/>
    </contour>
  </outline>
</glyph>
<glyph name="florin" format="2">
  <advance width="926"/>
  <unicode hex="0192"/>
  <outline>
    <contour>
      <point x="905" y="1156" type="curve" smooth="yes"/>
      <point x="905" y="1222"/>
      <point x="840" y="1253"/>
      <point x="781" y="1253" type="curve" smooth="yes"/>
      <point x="546" y="1253"/>
      <point x="539" y="887"/>
      <point x="457" y="821" type="curve" smooth="yes"/>
      <point x="430" y="799"/>
      <point x="352" y="794"/>
      <point x="317" y="791" type="curve"/>
      <point x="305" y="732" type="line"/>
      <point x="462" y="732" type="line"/>
      <point x="422" y="577"/>
      <point x="383" y="422"/>
      <point x="352" y="265" type="curve" smooth="yes"/>
      <point x="326" y="140"/>
      <point x="305" y="12"/>
      <point x="274" y="-110" type="curve" smooth="yes"/>
      <point x="258" y="-172"/>
      <point x="216" y="-335"/>
      <point x="133" y="-335" type="curve" smooth="yes"/>
      <point x="120" y="-335"/>
      <point x="108" y="-331"/>
      <point x="108" y="-317" type="curve" smooth="yes"/>
      <point x="108" y="-305"/>
      <point x="131" y="-288"/>
      <point x="131" y="-265" type="curve" smooth="yes"/>
      <point x="131" y="-236"/>
      <point x="98" y="-216"/>
      <point x="71" y="-216" type="curve" smooth="yes"/>
      <point x="22" y="-216"/>
      <point x="2" y="-248"/>
      <point x="2" y="-295" type="curve" smooth="yes"/>
      <point x="2" y="-356"/>
      <point x="54" y="-389"/>
      <point x="110" y="-389" type="curve" smooth="yes"/>
      <point x="319" y="-389"/>
      <point x="410" y="-66"/>
      <point x="454" y="91" type="curve" smooth="yes"/>
      <point x="511" y="302"/>
      <point x="572" y="516"/>
      <point x="610" y="732" type="curve"/>
      <point x="767" y="732" type="line"/>
      <point x="781" y="791" type="line"/>
      <point x="622" y="791" type="line"/>
      <point x="634" y="870"/>
      <point x="656" y="1214"/>
      <point x="774" y="1214" type="curve" smooth="yes"/>
      <point x="791" y="1214"/>
      <point x="806" y="1210"/>
      <point x="806" y="1189" type="curve" smooth="yes"/>
      <point x="806" y="1180"/>
      <point x="786" y="1153"/>
      <point x="786" y="1133" type="curve" smooth="yes"/>
      <point x="786" y="1098"/>
      <point x="809" y="1084"/>
      <point x="842" y="1084" type="curve" smooth="yes"/>
      <point x="887" y="1084"/>
      <point x="905" y="1114"/>
    </contour>
  </outline>
</glyph>
<glyph name="circumflex" format="2">
  <advance width="580"/>
  <unicode hex="02C6"/>
  <anchor x="290" y="924" name="_above"/>
  <outline>
    <contour>
      <point x="580" y="943" type="line"/>
      <point x="349" y="1253" type="line"/>
      <point x="234" y="1253" type="line"/>
      <point x="0" y="943" type="line"/>
      <point x="64" y="943" type="line"/>
      <point x="290" y="1135" type="line"/>
      <point x="516" y="943" type="line"/>
    </contour>
  </outline>
</glyph>
<glyph name="caron" format="2">
  <advance width="582"/>
  <unicode hex="02C7"/>
  <anchor x="290" y="912" name="_above"/>
  <outline>
    <contour>
      <point x="582" y="1254" type="line"/>
      <point x="517" y="1254" type="line"/>
      <point x="290" y="1063" type="line"/>
      <point x="65" y="1254" type="line"/>
      <point x="0" y="1254" type="line"/>
      <point x="233" y="943" type="line"/>
      <point x="349" y="943" type="line"/>
    </contour>
  </outline>
</glyph>
<glyph name="firsttonechinese" format="2">
  <advance width="580"/>
  <unicode hex="02C9"/>
  <outline>
    <contour>
      <point x="580" y="1018" type="line"/>
      <point x="580" y="1118" type="line"/>
      <point x="0" y="1118" type="line"/>
      <point x="0" y="1018" type="line"/>
    </contour>
  </outline>
</glyph>
<glyph name="breve" format="2">
  <advance width="739"/>
  <unicode hex="02D8"/>
  <outline>
    <contour>
      <point x="631" y="1242" type="curve"/>
      <point x="576" y="1242" type="line"/>
      <point x="548" y="1122"/>
      <point x="482" y="1062"/>
      <point x="376" y="1062" type="curve" smooth="yes"/>
      <point x="284" y="1062"/>
      <point x="184" y="1145"/>
      <point x="163" y="1242" type="curve"/>
      <point x="108" y="1242" type="line"/>
      <point x="103" y="1075"/>
      <point x="203" y="950"/>
      <point x="366" y="950" type="curve" smooth="yes"/>
      <point x="533" y="950"/>
      <point x="620" y="1069"/>
    </contour>
  </outline>
</glyph>
<glyph name="dotaccent" format="2">
  <advance width="396"/>
  <unicode hex="02D9"/>
  <outline>
    <contour>
      <point x="198" y="720" type="curve" smooth="yes"/>
      <point x="268" y="720"/>
      <point x="327" y="779"/>
      <point x="327" y="849" type="curve" smooth="yes"/>
      <point x="327" y="919"/>
      <point x="268" y="978"/>
      <point x="198" y="978" type="curve" smooth="yes"/>
      <point x="128" y="978"/>
      <point x="69" y="919"/>
      <point x="69" y="849" type="curve" smooth="yes"/>
      <point x="69" y="779"/>
      <point x="128" y="720"/>
    </contour>
  </outline>
</glyph>
<glyph name="ring" format="2">
  <advance width="346"/>
  <unicode hex="02DA"/>
  <anchor x="173" y="912" name="_above"/>
  <outline>
    <contour>
      <point x="346" y="1116" type="curve" smooth="yes"/>
      <point x="346" y="1223"/>
      <point x="260" y="1289"/>
      <point x="175" y="1289" type="curve" smooth="yes"/>
      <point x="82" y="1289"/>
      <point x="0" y="1219"/>
      <point x="0" y="1116" type="curve" smooth="yes"/>
      <point x="0" y="1013"/>
      <point x="89" y="943"/>
      <point x="175" y="943" type="curve" smooth="yes"/>
      <point x="260" y="943"/>
      <point x="346" y="1013"/>
    </contour>
    <contour>
      <point x="283" y="1116" type="curve" smooth="yes"/>
      <point x="283" y="1057"/>
      <point x="235" y="1006"/>
      <point x="175" y="1006" type="curve" smooth="yes"/>
      <point x="118" y="1006"/>
      <point x="62" y="1046"/>
      <point x="62" y="1116" type="curve" smooth="yes" name="hr01"/>
      <point x="62" y="1182"/>
      <point x="114" y="1226"/>
      <point x="175" y="1226" type="curve" smooth="yes"/>
      <point x="230" y="1226"/>
      <point x="283" y="1182"/>
    </contour>
  </outline>
</glyph>
<glyph name="ogonek" format="2">
  <advance width="433"/>
  <unicode hex="02DB"/>
  <outline>
    <contour>
      <point x="133" y="0" type="line"/>
      <point x="60" y="-44"/>
      <point x="24" y="-102"/>
      <point x="24" y="-174" type="curve" smooth="yes"/>
      <point x="24" y="-256"/>
      <point x="85" y="-316"/>
      <point x="163" y="-316" type="curve" smooth="yes"/>
      <point x="238" y="-316"/>
      <point x="320" y="-275"/>
      <point x="412" y="-193" type="curve"/>
      <point x="376" y="-148" type="line"/>
      <point x="322" y="-200"/>
      <point x="269" y="-227"/>
      <point x="217" y="-227" type="curve" smooth="yes"/>
      <point x="168" y="-227"/>
      <point x="127" y="-186"/>
      <point x="127" y="-138" type="curve" smooth="yes"/>
      <point x="127" y="-91"/>
      <point x="156" y="-46"/>
      <point x="215" y="0" type="curve"/>
    </contour>
  </outline>
</glyph>
<glyph name="tilde" format="2">
  <advance width="617"/>
  <unicode hex="02DC"/>
  <anchor x="308" y="912" name="_above"/>
  <outline>
    <contour>
      <point x="569" y="1216" type="line"/>
      <point x="554" y="1157"/>
      <point x="499" y="1124"/>
      <point x="440" y="1124" type="curve" smooth="yes"/>
      <point x="346" y="1124"/>
      <point x="300" y="1206"/>
      <point x="205" y="1206" type="curve" smooth="yes" name="hr01"/>
      <point x="89" y="1206"/>
      <point x="25" y="1124"/>
      <point x="0" y="1018" type="curve" name="hr02"/>
      <point x="48" y="1018" type="line"/>
      <point x="53" y="1060"/>
      <point x="103" y="1104"/>
      <point x="154" y="1104" type="curve" smooth="yes" name="hr03"/>
      <point x="272" y="1104"/>
      <point x="286" y="1018"/>
      <point x="420" y="1018" type="curve" smooth="yes" name="hr04"/>
      <point x="524" y="1018"/>
      <point x="606" y="1116"/>
      <point x="617" y="1216" type="curve"/>
    </contour>
  </outline>
</glyph>
<glyph name="number-ar" format="2">
  <advance width="1328"/>
  <unicode hex="0600"/>
  <anchor x="167" y="0" name="digitR"/>
  <outline>
    <contour>
      <point x="1254" y="141" type="curve" smooth="yes"/>
      <point x="1254" y="174"/>
      <point x="1248" y="186"/>
      <point x="1235" y="186" type="curve" smooth="yes"/>
      <point x="1221" y="186"/>
      <point x="1092" y="145"/>
      <point x="1080" y="145" type="curve" smooth="yes"/>
      <point x="1056" y="145"/>
      <point x="1050" y="160"/>
      <point x="1050" y="210" type="curve" smooth="yes"/>
      <point x="1050" y="276"/>
      <point x="1063" y="383"/>
      <point x="1138" y="557" type="curve"/>
      <point x="1103" y="624" type="line"/>
      <point x="1025" y="550"/>
      <point x="892" y="367"/>
      <point x="892" y="184" type="curve" smooth="yes"/>
      <point x="892" y="113"/>
      <point x="887" y="93"/>
      <point x="806" y="93" type="curve" smooth="yes"/>
      <point x="541" y="93"/>
      <point x="229" y="86"/>
      <point x="129" y="70" type="curve" smooth="yes"/>
      <point x="93" y="64"/>
      <point x="74" y="45"/>
      <point x="74" y="15" type="curve" smooth="yes"/>
      <point x="74" y="-59"/>
      <point x="109" y="-74"/>
      <point x="573" y="-74" type="curve" smooth="yes"/>
      <point x="812" y="-74"/>
      <point x="957" y="-70"/>
      <point x="1086" y="-49" type="curve" smooth="yes"/>
      <point x="1144" y="-41"/>
      <point x="1176" y="-35"/>
      <point x="1193" y="-23" type="curve" smooth="yes"/>
      <point x="1219" y="-7"/>
      <point x="1254" y="52"/>
    </contour>
  </outline>
</glyph>
<glyph name="year-ar" format="2">
  <advance width="1711"/>
  <unicode hex="0601"/>
  <anchor x="734" y="0" name="digitR"/>
  <outline>
    <contour>
      <point x="1668" y="167" type="curve" smooth="yes"/>
      <point x="1668" y="190"/>
      <point x="1654" y="199"/>
      <point x="1633" y="199" type="curve" smooth="yes"/>
      <point x="1607" y="199"/>
      <point x="1595" y="180"/>
      <point x="1495" y="125" type="curve" smooth="yes"/>
      <point x="1360" y="51"/>
      <point x="1218" y="30"/>
      <point x="998" y="30" type="curve" smooth="yes"/>
      <point x="790" y="30"/>
      <point x="587" y="106"/>
      <point x="532" y="106" type="curve" smooth="yes"/>
      <point x="494" y="106"/>
      <point x="481" y="71"/>
      <point x="452" y="-1" type="curve" smooth="yes"/>
      <point x="431" y="-55"/>
      <point x="397" y="-74"/>
      <point x="351" y="-74" type="curve" smooth="yes"/>
      <point x="328" y="-74"/>
      <point x="283" y="-68"/>
      <point x="218" y="-68" type="curve" smooth="yes"/>
      <point x="174" y="-68"/>
      <point x="113" y="-161"/>
      <point x="44" y="-278" type="curve"/>
      <point x="52" y="-303"/>
      <point x="61" y="-315"/>
      <point x="71" y="-318" type="curve"/>
      <point x="125" y="-267"/>
      <point x="177" y="-220"/>
      <point x="223" y="-220" type="curve" smooth="yes"/>
      <point x="238" y="-220"/>
      <point x="300" y="-232"/>
      <point x="329" y="-232" type="curve" smooth="yes"/>
      <point x="402" y="-232"/>
      <point x="465" y="-180"/>
      <point x="513" y="-67" type="curve"/>
      <point x="624" y="-102"/>
      <point x="853" y="-128"/>
      <point x="957" y="-128" type="curve" smooth="yes"/>
      <point x="1247" y="-128"/>
      <point x="1436" y="-51"/>
      <point x="1615" y="91" type="curve" smooth="yes"/>
      <point x="1641" y="112"/>
      <point x="1668" y="149"/>
    </contour>
  </outline>
</glyph>
<glyph name="footnotemarker-ar" format="2">
  <advance width="1579"/>
  <unicode hex="0602"/>
  <anchor x="734" y="0" name="digitR"/>
  <outline>
    <contour>
      <point x="555" y="225" type="curve" smooth="yes"/>
      <point x="555" y="191"/>
      <point x="539" y="160"/>
      <point x="506" y="129" type="curve"/>
      <point x="363" y="160"/>
      <point x="291" y="203"/>
      <point x="291" y="260" type="curve" smooth="yes"/>
      <point x="291" y="322"/>
      <point x="351" y="376"/>
      <point x="425" y="376" type="curve" smooth="yes"/>
      <point x="461" y="376"/>
      <point x="493" y="360"/>
      <point x="521" y="326" type="curve" smooth="yes"/>
      <point x="544" y="296"/>
      <point x="555" y="261"/>
    </contour>
    <contour>
      <point x="1492" y="117" type="curve"/>
      <point x="1350" y="73"/>
      <point x="1196" y="54"/>
      <point x="1041" y="54" type="curve" smooth="yes"/>
      <point x="908" y="54"/>
      <point x="773" y="68"/>
      <point x="642" y="94" type="curve"/>
      <point x="679" y="157"/>
      <point x="697" y="222"/>
      <point x="697" y="291" type="curve" smooth="yes"/>
      <point x="697" y="357"/>
      <point x="677" y="412"/>
      <point x="635" y="455" type="curve" smooth="yes"/>
      <point x="590" y="505"/>
      <point x="531" y="529"/>
      <point x="460" y="529" type="curve" smooth="yes"/>
      <point x="365" y="529"/>
      <point x="277" y="486"/>
      <point x="194" y="400" type="curve" smooth="yes"/>
      <point x="122" y="323"/>
      <point x="86" y="254"/>
      <point x="86" y="196" type="curve" smooth="yes"/>
      <point x="86" y="26"/>
      <point x="422" y="-68"/>
      <point x="898" y="-68" type="curve" smooth="yes"/>
      <point x="1106" y="-68"/>
      <point x="1324" y="-44"/>
      <point x="1466" y="7" type="curve"/>
      <point x="1488" y="41"/>
      <point x="1492" y="80"/>
    </contour>
  </outline>
</glyph>
<glyph name="pagenumber-ar" format="2">
  <advance width="1885"/>
  <unicode hex="0603"/>
  <anchor x="167" y="0" name="digitR"/>
  <outline>
    <contour>
      <point x="1802" y="512" type="curve" smooth="yes"/>
      <point x="1802" y="602"/>
      <point x="1776" y="718"/>
      <point x="1634" y="718" type="curve" smooth="yes"/>
      <point x="1483" y="718"/>
      <point x="1254" y="480"/>
      <point x="1147" y="248" type="curve"/>
      <point x="1127" y="245"/>
      <point x="1108" y="244"/>
      <point x="1093" y="244" type="curve" smooth="yes"/>
      <point x="1016" y="244"/>
      <point x="1008" y="283"/>
      <point x="979" y="326" type="curve"/>
      <point x="964" y="326"/>
      <point x="956" y="265"/>
      <point x="921" y="225" type="curve" smooth="yes"/>
      <point x="780" y="61"/>
      <point x="290" y="35"/>
      <point x="199" y="35" type="curve" smooth="yes"/>
      <point x="167" y="35"/>
      <point x="99" y="38"/>
      <point x="84" y="39" type="curve"/>
      <point x="78" y="39"/>
      <point x="74" y="36"/>
      <point x="74" y="32" type="curve" smooth="yes"/>
      <point x="74" y="-7"/>
      <point x="315" y="-49"/>
      <point x="441" y="-49" type="curve" smooth="yes"/>
      <point x="568" y="-49"/>
      <point x="908" y="-19"/>
      <point x="993" y="100" type="curve"/>
      <point x="1014" y="91"/>
      <point x="1066" y="83"/>
      <point x="1089" y="83" type="curve"/>
      <point x="1074" y="39"/>
      <point x="1063" y="30"/>
      <point x="1063" y="13" type="curve" smooth="yes"/>
      <point x="1063" y="-10"/>
      <point x="1089" y="-51"/>
      <point x="1101" y="-51" type="curve"/>
      <point x="1103" y="-36"/>
      <point x="1127" y="36"/>
      <point x="1153" y="86" type="curve"/>
      <point x="1353" y="100"/>
      <point x="1802" y="149"/>
    </contour>
    <contour>
      <point x="1695" y="425" type="curve" smooth="yes"/>
      <point x="1695" y="364"/>
      <point x="1524" y="248"/>
      <point x="1208" y="248" type="curve"/>
      <point x="1312" y="439"/>
      <point x="1431" y="512"/>
      <point x="1533" y="512" type="curve" smooth="yes"/>
      <point x="1637" y="512"/>
      <point x="1695" y="468"/>
    </contour>
  </outline>
</glyph>
<glyph name="samvat-ar" format="2">
  <advance width="2422"/>
  <unicode hex="0604"/>
  <anchor x="413" y="0" name="digitR"/>
  <outline>
    <contour>
      <point x="2335" y="779" type="curve" smooth="yes"/>
      <point x="2335" y="818"/>
      <point x="2292" y="916"/>
      <point x="2263" y="916" type="curve" smooth="yes"/>
      <point x="2250" y="916"/>
      <point x="2208" y="764"/>
      <point x="2208" y="751" type="curve" smooth="yes"/>
      <point x="2208" y="745"/>
      <point x="2269" y="711"/>
      <point x="2269" y="684" type="curve" smooth="yes"/>
      <point x="2269" y="671"/>
      <point x="2233" y="651"/>
      <point x="2224" y="651" type="curve" smooth="yes"/>
      <point x="2175" y="651"/>
      <point x="2052" y="682"/>
      <point x="2034" y="798" type="curve" smooth="yes"/>
      <point x="2031" y="821"/>
      <point x="2020" y="831"/>
      <point x="2017" y="831" type="curve"/>
      <point x="2008" y="831"/>
      <point x="2001" y="818"/>
      <point x="1998" y="803" type="curve" smooth="yes"/>
      <point x="1969" y="664"/>
      <point x="1884" y="535"/>
      <point x="1770" y="535" type="curve" smooth="yes"/>
      <point x="1652" y="535"/>
      <point x="1569" y="686"/>
      <point x="1466" y="686" type="curve" smooth="yes"/>
      <point x="1383" y="686"/>
      <point x="1321" y="564"/>
      <point x="1298" y="492" type="curve" smooth="yes"/>
      <point x="1279" y="429"/>
      <point x="1267" y="365"/>
      <point x="1267" y="299" type="curve" smooth="yes"/>
      <point x="1267" y="249"/>
      <point x="1276" y="202"/>
      <point x="1291" y="157" type="curve"/>
      <point x="1211" y="25"/>
      <point x="1034" y="12"/>
      <point x="634" y="12" type="curve" smooth="yes"/>
      <point x="367" y="12"/>
      <point x="146" y="55"/>
      <point x="84" y="70" type="curve" smooth="yes"/>
      <point x="78" y="71"/>
      <point x="73" y="46"/>
      <point x="73" y="33" type="curve" smooth="yes"/>
      <point x="73" y="0"/>
      <point x="416" y="-141"/>
      <point x="937" y="-141" type="curve" smooth="yes"/>
      <point x="1134" y="-141"/>
      <point x="1320" y="-96"/>
      <point x="1386" y="-7" type="curve"/>
      <point x="1438" y="-67"/>
      <point x="1507" y="-110"/>
      <point x="1582" y="-131" type="curve"/>
      <point x="1615" y="-131"/>
      <point x="1636" y="3"/>
      <point x="1636" y="32" type="curve" smooth="yes"/>
      <point x="1636" y="42"/>
      <point x="1628" y="49"/>
      <point x="1620" y="52" type="curve" smooth="yes"/>
      <point x="1428" y="119"/>
      <point x="1353" y="228"/>
      <point x="1351" y="383" type="curve"/>
      <point x="1351" y="458"/>
      <point x="1391" y="502"/>
      <point x="1421" y="502" type="curve" smooth="yes"/>
      <point x="1501" y="502"/>
      <point x="1567" y="361"/>
      <point x="1727" y="361" type="curve" smooth="yes"/>
      <point x="1837" y="361"/>
      <point x="1927" y="460"/>
      <point x="1981" y="584" type="curve"/>
      <point x="2010" y="551"/>
      <point x="2058" y="470"/>
      <point x="2158" y="470" type="curve" smooth="yes"/>
      <point x="2281" y="470"/>
      <point x="2335" y="668"/>
    </contour>
  </outline>
</glyph>
<glyph name="numbermark-ar" format="2">
  <advance width="1020"/>
  <unicode hex="0605"/>
  <anchor x="143" y="0" name="digitR"/>
  <outline>
    <contour>
      <point x="933" y="1523" type="curve" smooth="yes"/>
      <point x="933" y="1538"/>
      <point x="927" y="1551"/>
      <point x="917" y="1551" type="curve" smooth="yes"/>
      <point x="888" y="1551"/>
      <point x="837" y="1460"/>
      <point x="584" y="1460" type="curve" smooth="yes"/>
      <point x="409" y="1460"/>
      <point x="355" y="1547"/>
      <point x="313" y="1547" type="curve" smooth="yes"/>
      <point x="255" y="1547"/>
      <point x="81" y="1387"/>
      <point x="44" y="1347" type="curve"/>
      <point x="46" y="1330"/>
      <point x="53" y="1317"/>
      <point x="64" y="1313" type="curve"/>
      <point x="81" y="1330"/>
      <point x="189" y="1404"/>
      <point x="222" y="1404" type="curve" smooth="yes"/>
      <point x="238" y="1404"/>
      <point x="368" y="1305"/>
      <point x="540" y="1305" type="curve" smooth="yes"/>
      <point x="772" y="1305"/>
      <point x="933" y="1507"/>
    </contour>
  </outline>
</glyph>
<glyph name="pertenthousand-ar" format="2">
  <advance width="1692"/>
  <unicode hex="060A"/>
  <outline>
    <contour>
      <point x="1057" y="1479" type="line"/>
      <point x="956" y="1479" type="line"/>
      <point x="252" y="-365" type="line"/>
      <point x="357" y="-365" type="line"/>
    </contour>
    <contour>
      <point x="425" y="1283" type="curve" smooth="yes"/>
      <point x="425" y="1302"/>
      <point x="238" y="1441"/>
      <point x="207" y="1462" type="curve"/>
      <point x="194" y="1420"/>
      <point x="139" y="1225"/>
      <point x="139" y="1192" type="curve" smooth="yes"/>
      <point x="139" y="1163"/>
      <point x="335" y="1047"/>
      <point x="371" y="1031" type="curve"/>
      <point x="377" y="1070"/>
      <point x="425" y="1269"/>
    </contour>
    <contour>
      <point x="934" y="-68" type="curve" smooth="yes"/>
      <point x="934" y="-49"/>
      <point x="747" y="90"/>
      <point x="716" y="110" type="curve"/>
      <point x="703" y="68"/>
      <point x="648" y="-126"/>
      <point x="648" y="-160" type="curve" smooth="yes"/>
      <point x="648" y="-189"/>
      <point x="844" y="-305"/>
      <point x="880" y="-320" type="curve"/>
      <point x="886" y="-281"/>
      <point x="934" y="-83"/>
    </contour>
    <contour>
      <point x="1267" y="-68" type="curve" smooth="yes"/>
      <point x="1267" y="-49"/>
      <point x="1080" y="90"/>
      <point x="1050" y="110" type="curve"/>
      <point x="1037" y="68"/>
      <point x="982" y="-126"/>
      <point x="982" y="-160" type="curve" smooth="yes"/>
      <point x="982" y="-189"/>
      <point x="1177" y="-305"/>
      <point x="1214" y="-320" type="curve"/>
      <point x="1219" y="-281"/>
      <point x="1267" y="-83"/>
    </contour>
    <contour>
      <point x="1601" y="-68" type="curve" smooth="yes"/>
      <point x="1601" y="-49"/>
      <point x="1414" y="90"/>
      <point x="1383" y="110" type="curve"/>
      <point x="1370" y="68"/>
      <point x="1315" y="-126"/>
      <point x="1315" y="-160" type="curve" smooth="yes"/>
      <point x="1315" y="-189"/>
      <point x="1511" y="-305"/>
      <point x="1547" y="-320" type="curve"/>
      <point x="1553" y="-281"/>
      <point x="1601" y="-83"/>
    </contour>
  </outline>
</glyph>
<glyph name="afghani-ar" format="2">
  <advance width="828"/>
  <unicode hex="060B"/>
  <outline>
    <contour>
      <point x="745" y="397" type="curve" smooth="yes"/>
      <point x="745" y="618"/>
      <point x="576" y="847"/>
      <point x="493" y="847" type="curve" smooth="yes"/>
      <point x="380" y="847"/>
      <point x="300" y="544"/>
      <point x="300" y="484" type="curve" smooth="yes"/>
      <point x="300" y="392"/>
      <point x="323" y="309"/>
      <point x="442" y="309" type="curve" smooth="yes"/>
      <point x="555" y="309"/>
      <point x="602" y="397"/>
      <point x="632" y="460" type="curve"/>
      <point x="658" y="431"/>
      <point x="689" y="383"/>
      <point x="689" y="354" type="curve" smooth="yes"/>
      <point x="689" y="294"/>
      <point x="484" y="181"/>
      <point x="241" y="181" type="curve" smooth="yes"/>
      <point x="161" y="181"/>
      <point x="91" y="189"/>
      <point x="77" y="189" type="curve" smooth="yes"/>
      <point x="64" y="189"/>
      <point x="49" y="44"/>
      <point x="49" y="20" type="curve" smooth="yes"/>
      <point x="49" y="9"/>
      <point x="158" y="0"/>
      <point x="241" y="0" type="curve" smooth="yes"/>
      <point x="445" y="0"/>
      <point x="618" y="104"/>
      <point x="671" y="170" type="curve" smooth="yes"/>
      <point x="724" y="235"/>
      <point x="745" y="329"/>
    </contour>
    <contour>
      <point x="534" y="567" type="curve" smooth="yes"/>
      <point x="534" y="552"/>
      <point x="484" y="513"/>
      <point x="457" y="513" type="curve" smooth="yes"/>
      <point x="422" y="513"/>
      <point x="394" y="555"/>
      <point x="394" y="579" type="curve" smooth="yes"/>
      <point x="394" y="600"/>
      <point x="418" y="629"/>
      <point x="439" y="629" type="curve" smooth="yes"/>
      <point x="465" y="629"/>
      <point x="534" y="579"/>
    </contour>
    <component base="_dot1" xOffset="463" yOffset="1114"/>
    <component base="alefbelow-ar" xOffset="299"/>
  </outline>
</glyph>
<glyph name="comma-ar" format="2">
  <advance width="929"/>
  <unicode hex="060C"/>
  <outline>
    <contour>
      <point x="632" y="39" type="curve" smooth="yes"/>
      <point x="632" y="110"/>
      <point x="561" y="184"/>
      <point x="490" y="184" type="curve" smooth="yes"/>
      <point x="454" y="184"/>
      <point x="397" y="145"/>
      <point x="389" y="145" type="curve" smooth="yes"/>
      <point x="365" y="145"/>
      <point x="351" y="255"/>
      <point x="351" y="270" type="curve" smooth="yes"/>
      <point x="351" y="445"/>
      <point x="476" y="579"/>
      <point x="532" y="635" type="curve"/>
      <point x="496" y="686" type="line"/>
      <point x="439" y="663"/>
      <point x="323" y="522"/>
      <point x="276" y="389" type="curve" smooth="yes"/>
      <point x="255" y="329"/>
      <point x="252" y="273"/>
      <point x="252" y="223" type="curve" smooth="yes"/>
      <point x="252" y="65"/>
      <point x="329" y="-110"/>
      <point x="487" y="-110" type="curve" smooth="yes"/>
      <point x="570" y="-110"/>
      <point x="632" y="-45"/>
    </contour>
  </outline>
</glyph>
<glyph name="dateseparator-ar" format="2">
  <advance width="786"/>
  <unicode hex="060D"/>
  <outline>
    <contour>
      <point x="682" y="545" type="curve" smooth="yes"/>
      <point x="682" y="561"/>
      <point x="673" y="579"/>
      <point x="655" y="600" type="curve" smooth="yes"/>
      <point x="638" y="622"/>
      <point x="622" y="632"/>
      <point x="609" y="632" type="curve" smooth="yes"/>
      <point x="574" y="632"/>
      <point x="525" y="608"/>
      <point x="461" y="557" type="curve" smooth="yes"/>
      <point x="386" y="497"/>
      <point x="309" y="413"/>
      <point x="229" y="305" type="curve" smooth="yes"/>
      <point x="181" y="239"/>
      <point x="136" y="170"/>
      <point x="96" y="96" type="curve"/>
      <point x="125" y="81" type="line"/>
      <point x="218" y="213"/>
      <point x="315" y="309"/>
      <point x="418" y="371" type="curve" smooth="yes"/>
      <point x="457" y="396"/>
      <point x="513" y="409"/>
      <point x="589" y="409" type="curve" smooth="yes"/>
      <point x="606" y="409"/>
      <point x="626" y="426"/>
      <point x="648" y="463" type="curve" smooth="yes"/>
      <point x="670" y="499"/>
      <point x="682" y="526"/>
    </contour>
  </outline>
</glyph>
<glyph name="verseComma-ar" format="2">
  <advance width="1926"/>
  <unicode hex="060E"/>
  <outline>
    <contour>
      <point x="1821" y="481" type="curve"/>
      <point x="1728" y="429"/>
      <point x="1610" y="384"/>
      <point x="1465" y="348" type="curve" smooth="yes"/>
      <point x="1324" y="313"/>
      <point x="1198" y="296"/>
      <point x="1088" y="296" type="curve" smooth="yes" name="hr01"/>
      <point x="909" y="296"/>
      <point x="779" y="306"/>
      <point x="693" y="328" type="curve"/>
      <point x="689" y="393"/>
      <point x="680" y="457"/>
      <point x="666" y="519" type="curve" smooth="yes"/>
      <point x="631" y="670"/>
      <point x="552" y="745"/>
      <point x="429" y="745" type="curve" smooth="yes"/>
      <point x="342" y="745"/>
      <point x="260" y="703"/>
      <point x="181" y="622" type="curve" smooth="yes"/>
      <point x="110" y="548"/>
      <point x="83" y="494"/>
      <point x="83" y="432" type="curve" smooth="yes"/>
      <point x="83" y="370"/>
      <point x="144" y="312"/>
      <point x="257" y="257" type="curve" smooth="yes"/>
      <point x="389" y="193"/>
      <point x="634" y="162"/>
      <point x="989" y="162" type="curve" smooth="yes"/>
      <point x="1118" y="162"/>
      <point x="1263" y="183"/>
      <point x="1424" y="225" type="curve" smooth="yes"/>
      <point x="1569" y="264"/>
      <point x="1689" y="309"/>
      <point x="1786" y="360" type="curve"/>
      <point x="1811" y="406"/>
      <point x="1824" y="441"/>
      <point x="1824" y="464" type="curve" smooth="yes"/>
      <point x="1824" y="471"/>
      <point x="1823" y="477"/>
    </contour>
    <contour>
      <point x="548" y="354" type="curve"/>
      <point x="479" y="365"/>
      <point x="418" y="384"/>
      <point x="365" y="412" type="curve" smooth="yes"/>
      <point x="307" y="441"/>
      <point x="278" y="467"/>
      <point x="278" y="490" type="curve" smooth="yes"/>
      <point x="278" y="548"/>
      <point x="335" y="595"/>
      <point x="400" y="595" type="curve" smooth="yes"/>
      <point x="439" y="595"/>
      <point x="474" y="564"/>
      <point x="505" y="502" type="curve" smooth="yes"/>
      <point x="529" y="451"/>
      <point x="544" y="402"/>
    </contour>
  </outline>
</glyph>
<glyph name="misraComma-ar" format="2">
  <advance width="1327"/>
  <unicode hex="060F"/>
  <anchor x="139" y="1090" name="alef"/>
  <anchor x="458" y="1305" name="diaA"/>
  <anchor x="626" y="-1270" name="diaB"/>
  <outline>
    <contour>
      <point x="1218" y="-467" type="curve" smooth="yes"/>
      <point x="1218" y="-251"/>
      <point x="1096" y="-104"/>
      <point x="918" y="-104" type="curve" smooth="yes"/>
      <point x="702" y="-104"/>
      <point x="506" y="-335"/>
      <point x="310" y="-642" type="curve"/>
      <point x="244" y="-561"/>
      <point x="200" y="-448"/>
      <point x="200" y="-293" type="curve" smooth="yes"/>
      <point x="200" y="9"/>
      <point x="431" y="225"/>
      <point x="741" y="406" type="curve" smooth="yes"/>
      <point x="806" y="444"/>
      <point x="867" y="473"/>
      <point x="879" y="481" type="curve"/>
      <point x="887" y="490"/>
      <point x="1012" y="670"/>
      <point x="1012" y="682" type="curve" smooth="yes"/>
      <point x="1012" y="687"/>
      <point x="1009" y="690"/>
      <point x="1004" y="690" type="curve" smooth="yes"/>
      <point x="998" y="690"/>
      <point x="731" y="535"/>
      <point x="624" y="481" type="curve" smooth="yes"/>
      <point x="596" y="468"/>
      <point x="558" y="467"/>
      <point x="545" y="467" type="curve" smooth="yes"/>
      <point x="461" y="467"/>
      <point x="278" y="545"/>
      <point x="278" y="606" type="curve" smooth="yes"/>
      <point x="278" y="653"/>
      <point x="328" y="734"/>
      <point x="467" y="795" type="curve" smooth="yes"/>
      <point x="584" y="847"/>
      <point x="670" y="850"/>
      <point x="713" y="850" type="curve" smooth="yes"/>
      <point x="720" y="850"/>
      <point x="722" y="855"/>
      <point x="722" y="861" type="curve" smooth="yes"/>
      <point x="722" y="876"/>
      <point x="647" y="927"/>
      <point x="600" y="951" type="curve" smooth="yes"/>
      <point x="585" y="959"/>
      <point x="554" y="963"/>
      <point x="531" y="963" type="curve" smooth="yes"/>
      <point x="496" y="963"/>
      <point x="423" y="960"/>
      <point x="345" y="858" type="curve" smooth="yes"/>
      <point x="276" y="769"/>
      <point x="194" y="589"/>
      <point x="194" y="519" type="curve" smooth="yes"/>
      <point x="194" y="400"/>
      <point x="354" y="336"/>
      <point x="447" y="325" type="curve"/>
      <point x="305" y="191"/>
      <point x="119" y="-116"/>
      <point x="119" y="-421" type="curve" smooth="yes"/>
      <point x="119" y="-584"/>
      <point x="152" y="-713"/>
      <point x="210" y="-811" type="curve"/>
      <point x="157" y="-905"/>
      <point x="106" y="-1002"/>
      <point x="61" y="-1096" type="curve" smooth="yes"/>
      <point x="57" y="-1105"/>
      <point x="55" y="-1110"/>
      <point x="55" y="-1115" type="curve" smooth="yes"/>
      <point x="55" y="-1125"/>
      <point x="61" y="-1130"/>
      <point x="67" y="-1130" type="curve" smooth="yes"/>
      <point x="71" y="-1130"/>
      <point x="75" y="-1127"/>
      <point x="78" y="-1122" type="curve" smooth="yes"/>
      <point x="112" y="-1070"/>
      <point x="171" y="-969"/>
      <point x="238" y="-853" type="curve"/>
      <point x="349" y="-1005"/>
      <point x="486" y="-1067"/>
      <point x="667" y="-1067" type="curve" smooth="yes"/>
      <point x="928" y="-1067"/>
      <point x="1218" y="-740"/>
    </contour>
    <contour>
      <point x="1131" y="-515" type="curve" smooth="yes"/>
      <point x="1131" y="-654"/>
      <point x="943" y="-832"/>
      <point x="745" y="-832" type="curve" smooth="yes"/>
      <point x="606" y="-832"/>
      <point x="474" y="-798"/>
      <point x="351" y="-684" type="curve"/>
      <point x="500" y="-473"/>
      <point x="676" y="-287"/>
      <point x="848" y="-287" type="curve" smooth="yes"/>
      <point x="1067" y="-287"/>
      <point x="1131" y="-387"/>
    </contour>
  </outline>
</glyph>
<glyph name="ainabove-ar" format="2">
  <unicode hex="0611"/>
  <anchor x="745" y="1444" name="_diaA"/>
  <outline>
    <contour>
      <point x="421" y="1398" type="curve"/>
      <point x="490" y="1462" type="line"/>
      <point x="496" y="1498"/>
      <point x="499" y="1534"/>
      <point x="499" y="1569" type="curve"/>
      <point x="523" y="1553"/>
      <point x="558" y="1546"/>
      <point x="603" y="1546" type="curve" smooth="yes"/>
      <point x="637" y="1546"/>
      <point x="700" y="1559"/>
      <point x="798" y="1585" type="curve" smooth="yes"/>
      <point x="908" y="1614"/>
      <point x="947" y="1624"/>
      <point x="963" y="1627" type="curve" smooth="yes"/>
      <point x="970" y="1628"/>
      <point x="976" y="1631"/>
      <point x="977" y="1637" type="curve"/>
      <point x="995" y="1688" type="line"/>
      <point x="995" y="1695"/>
      <point x="992" y="1699"/>
      <point x="980" y="1699" type="curve" smooth="yes"/>
      <point x="974" y="1699"/>
      <point x="964" y="1698"/>
      <point x="957" y="1697" type="curve" smooth="yes"/>
      <point x="915" y="1685"/>
      <point x="851" y="1669"/>
      <point x="825" y="1669" type="curve" smooth="yes"/>
      <point x="805" y="1669"/>
      <point x="735" y="1701"/>
      <point x="735" y="1746" type="curve" smooth="yes"/>
      <point x="735" y="1765"/>
      <point x="796" y="1784"/>
      <point x="863" y="1784" type="curve" smooth="yes"/>
      <point x="880" y="1784"/>
      <point x="890" y="1781"/>
      <point x="908" y="1772" type="curve" smooth="yes"/>
      <point x="914" y="1769"/>
      <point x="919" y="1766"/>
      <point x="922" y="1766" type="curve"/>
      <point x="943" y="1766"/>
      <point x="951" y="1768"/>
      <point x="951" y="1775" type="curve" smooth="yes"/>
      <point x="951" y="1785"/>
      <point x="938" y="1799"/>
      <point x="914" y="1821" type="curve" smooth="yes"/>
      <point x="870" y="1857"/>
      <point x="860" y="1859"/>
      <point x="834" y="1859" type="curve" smooth="yes"/>
      <point x="738" y="1859"/>
      <point x="654" y="1775"/>
      <point x="654" y="1697" type="curve" smooth="yes"/>
      <point x="654" y="1679"/>
      <point x="666" y="1659"/>
      <point x="684" y="1636" type="curve"/>
      <point x="668" y="1630"/>
      <point x="638" y="1627"/>
      <point x="592" y="1627" type="curve" smooth="yes"/>
      <point x="552" y="1627"/>
      <point x="521" y="1652"/>
      <point x="490" y="1668" type="curve"/>
      <point x="480" y="1695"/>
      <point x="471" y="1715"/>
      <point x="461" y="1728" type="curve"/>
      <point x="450" y="1728"/>
      <point x="415" y="1662"/>
      <point x="415" y="1653" type="curve" smooth="yes"/>
      <point x="415" y="1647"/>
      <point x="416" y="1643"/>
      <point x="421" y="1624" type="curve" smooth="yes"/>
      <point x="429" y="1583"/>
      <point x="434" y="1544"/>
      <point x="434" y="1507" type="curve" smooth="yes"/>
      <point x="434" y="1469"/>
      <point x="429" y="1433"/>
    </contour>
  </outline>
</glyph>
<glyph name="rehHahabove-ar" format="2">
  <unicode hex="0612"/>
  <anchor x="763" y="1418" name="_diaA"/>
  <outline>
    <contour>
      <point x="1192" y="1792" type="curve" smooth="yes"/>
      <point x="1192" y="1879"/>
      <point x="1170" y="1955"/>
      <point x="1125" y="2018" type="curve"/>
      <point x="1119" y="2013"/>
      <point x="1109" y="1997"/>
      <point x="1095" y="1971" type="curve" smooth="yes"/>
      <point x="1080" y="1944"/>
      <point x="1073" y="1927"/>
      <point x="1073" y="1920" type="curve" smooth="yes"/>
      <point x="1073" y="1914"/>
      <point x="1077" y="1904"/>
      <point x="1085" y="1888" type="curve" smooth="yes"/>
      <point x="1124" y="1808"/>
      <point x="1143" y="1766"/>
      <point x="1143" y="1760" type="curve" smooth="yes"/>
      <point x="1143" y="1721"/>
      <point x="1106" y="1672"/>
      <point x="1035" y="1612" type="curve" smooth="yes"/>
      <point x="960" y="1547"/>
      <point x="890" y="1514"/>
      <point x="827" y="1514" type="curve" smooth="yes"/>
      <point x="816" y="1514"/>
      <point x="787" y="1517"/>
      <point x="740" y="1523" type="curve"/>
      <point x="729" y="1523"/>
      <point x="725" y="1517"/>
      <point x="725" y="1505" type="curve" smooth="yes"/>
      <point x="725" y="1488"/>
      <point x="842" y="1456"/>
      <point x="873" y="1456" type="curve" smooth="yes" name="hr01"/>
      <point x="944" y="1456"/>
      <point x="996" y="1470"/>
      <point x="1032" y="1496" type="curve" smooth="yes"/>
      <point x="1076" y="1528"/>
      <point x="1115" y="1572"/>
      <point x="1146" y="1628" type="curve" smooth="yes"/>
      <point x="1176" y="1685"/>
      <point x="1192" y="1740"/>
    </contour>
    <contour>
      <point x="998" y="1960" type="curve" smooth="yes"/>
      <point x="998" y="1971"/>
      <point x="990" y="1975"/>
      <point x="977" y="1975" type="curve" smooth="yes"/>
      <point x="954" y="1975"/>
      <point x="863" y="1966"/>
      <point x="829" y="1966" type="curve" smooth="yes"/>
      <point x="728" y="1966"/>
      <point x="635" y="1995"/>
      <point x="539" y="1995" type="curve" smooth="yes"/>
      <point x="506" y="1995"/>
      <point x="476" y="1989"/>
      <point x="445" y="1979" type="curve" smooth="yes"/>
      <point x="415" y="1969"/>
      <point x="405" y="1956"/>
      <point x="397" y="1946" type="curve" smooth="yes"/>
      <point x="390" y="1936"/>
      <point x="380" y="1891"/>
      <point x="380" y="1868" type="curve"/>
      <point x="426" y="1879"/>
      <point x="465" y="1885"/>
      <point x="499" y="1885" type="curve" smooth="yes"/>
      <point x="545" y="1885"/>
      <point x="581" y="1881"/>
      <point x="609" y="1873" type="curve"/>
      <point x="431" y="1776"/>
      <point x="342" y="1640"/>
      <point x="342" y="1465" type="curve"/>
      <point x="412" y="1523" type="line"/>
      <point x="412" y="1611"/>
      <point x="458" y="1694"/>
      <point x="548" y="1760" type="curve" smooth="yes"/>
      <point x="628" y="1820"/>
      <point x="715" y="1852"/>
      <point x="809" y="1865" type="curve" smooth="yes"/>
      <point x="890" y="1875"/>
      <point x="938" y="1884"/>
      <point x="951" y="1885" type="curve" smooth="yes"/>
      <point x="956" y="1886"/>
      <point x="964" y="1898"/>
      <point x="977" y="1920" type="curve" smooth="yes"/>
      <point x="990" y="1942"/>
      <point x="998" y="1955"/>
    </contour>
  </outline>
</glyph>
<glyph name="takhallusabove-ar" format="2">
  <unicode hex="0614"/>
  <anchor x="445" y="1520" name="_diaA"/>
  <outline>
    <contour>
      <point x="1117" y="1985" type="curve" smooth="yes"/>
      <point x="1117" y="2000"/>
      <point x="1115" y="2014"/>
      <point x="1114" y="2029" type="curve"/>
      <point x="1012" y="1960" type="line"/>
      <point x="1014" y="1944"/>
      <point x="1015" y="1929"/>
      <point x="1015" y="1915" type="curve" smooth="yes"/>
      <point x="1015" y="1789"/>
      <point x="963" y="1737"/>
      <point x="864" y="1737" type="curve" smooth="yes"/>
      <point x="776" y="1737"/>
      <point x="764" y="1853"/>
      <point x="764" y="1911" type="curve" smooth="yes"/>
      <point x="764" y="1931"/>
      <point x="766" y="1944"/>
      <point x="766" y="1944" type="curve"/>
      <point x="602" y="1884"/>
      <point x="402" y="1863"/>
      <point x="219" y="1863" type="curve" smooth="yes"/>
      <point x="74" y="1863"/>
      <point x="-59" y="1876"/>
      <point x="-154" y="1892" type="curve"/>
      <point x="-57" y="1797" type="line"/>
      <point x="93" y="1779"/>
      <point x="231" y="1772"/>
      <point x="348" y="1772" type="curve" smooth="yes"/>
      <point x="490" y="1772"/>
      <point x="602" y="1782"/>
      <point x="668" y="1797" type="curve"/>
      <point x="695" y="1678"/>
      <point x="757" y="1630"/>
      <point x="864" y="1630" type="curve" smooth="yes"/>
      <point x="1012" y="1630"/>
      <point x="1117" y="1814"/>
    </contour>
  </outline>
</glyph>
<glyph name="tahabove-ar" format="2">
  <unicode hex="0615"/>
  <anchor x="442" y="1570" name="_diaA"/>
  <anchor x="442" y="2539" name="diaA"/>
  <outline>
    <contour>
      <point x="745" y="1895" type="curve" smooth="yes"/>
      <point x="745" y="1955"/>
      <point x="708" y="2005"/>
      <point x="642" y="2005" type="curve" smooth="yes"/>
      <point x="568" y="2005"/>
      <point x="455" y="1926"/>
      <point x="363" y="1824" type="curve"/>
      <point x="368" y="1869"/>
      <point x="371" y="1943"/>
      <point x="371" y="1975" type="curve" smooth="yes"/>
      <point x="371" y="2071"/>
      <point x="342" y="2192"/>
      <point x="342" y="2224" type="curve" smooth="yes"/>
      <point x="342" y="2269"/>
      <point x="360" y="2290"/>
      <point x="374" y="2303" type="curve" smooth="yes"/>
      <point x="377" y="2306"/>
      <point x="325" y="2388"/>
      <point x="319" y="2388" type="curve" smooth="yes"/>
      <point x="303" y="2388"/>
      <point x="280" y="2320"/>
      <point x="280" y="2297" type="curve" smooth="yes"/>
      <point x="280" y="2269"/>
      <point x="303" y="2195"/>
      <point x="315" y="2110" type="curve"/>
      <point x="331" y="2026"/>
      <point x="336" y="1981"/>
      <point x="336" y="1878" type="curve" smooth="yes"/>
      <point x="336" y="1856"/>
      <point x="331" y="1807"/>
      <point x="315" y="1776" type="curve"/>
      <point x="280" y="1741"/>
      <point x="262" y="1731"/>
      <point x="212" y="1731" type="curve" smooth="yes"/>
      <point x="161" y="1731"/>
      <point x="170" y="1739"/>
      <point x="119" y="1739" type="curve" smooth="yes"/>
      <point x="113" y="1739"/>
      <point x="113" y="1734"/>
      <point x="113" y="1731" type="curve"/>
      <point x="113" y="1702"/>
      <point x="190" y="1649"/>
      <point x="232" y="1649" type="curve" smooth="yes"/>
      <point x="405" y="1649"/>
      <point x="745" y="1711"/>
    </contour>
    <contour>
      <point x="693" y="1850" type="curve" smooth="yes"/>
      <point x="693" y="1842"/>
      <point x="589" y="1753"/>
      <point x="336" y="1739" type="curve"/>
      <point x="419" y="1872"/>
      <point x="518" y="1901"/>
      <point x="597" y="1901" type="curve" smooth="yes"/>
      <point x="637" y="1901"/>
      <point x="693" y="1878"/>
    </contour>
  </outline>
</glyph>
<glyph name="alefLamYehabove-ar" format="2">
  <unicode hex="0616"/>
  <anchor x="-122" y="1459" name="_diaA"/>
  <anchor x="-24" y="2643" name="diaA"/>
  <outline>
    <contour>
      <point x="62" y="1980" type="curve" smooth="yes"/>
      <point x="62" y="2098"/>
      <point x="34" y="2315"/>
      <point x="34" y="2475" type="curve" smooth="yes"/>
      <point x="34" y="2531" type="line"/>
      <point x="34" y="2544"/>
      <point x="34" y="2559"/>
      <point x="29" y="2559" type="curve" smooth="yes"/>
      <point x="17" y="2559"/>
      <point x="-11" y="2476"/>
      <point x="-11" y="2440" type="curve" smooth="yes"/>
      <point x="-11" y="2405"/>
      <point x="24" y="1963"/>
      <point x="24" y="1895" type="curve" smooth="yes"/>
      <point x="24" y="1850" type="line" smooth="yes"/>
      <point x="24" y="1844"/>
      <point x="29" y="1841"/>
      <point x="36" y="1841" type="curve" smooth="yes"/>
      <point x="47" y="1841"/>
      <point x="62" y="1935"/>
    </contour>
    <contour>
      <point x="-168" y="1931" type="curve"/>
      <point x="-118" y="1931"/>
      <point x="-106" y="1891"/>
      <point x="-96" y="1847" type="curve"/>
      <point x="-81" y="1859"/>
      <point x="-76" y="1889"/>
      <point x="-76" y="1908" type="curve" smooth="yes"/>
      <point x="-76" y="1941"/>
      <point x="-88" y="2069"/>
      <point x="-157" y="2069" type="curve" smooth="yes"/>
      <point x="-198" y="2069"/>
      <point x="-219" y="1997"/>
      <point x="-243" y="1934" type="curve" smooth="yes"/>
      <point x="-267" y="1872"/>
      <point x="-448" y="1832"/>
      <point x="-510" y="1787" type="curve" smooth="yes"/>
      <point x="-599" y="1722"/>
      <point x="-613" y="1682"/>
      <point x="-613" y="1637" type="curve" smooth="yes"/>
      <point x="-613" y="1616"/>
      <point x="-610" y="1574"/>
      <point x="-590" y="1566" type="curve" smooth="yes"/>
      <point x="-516" y="1529"/>
      <point x="-296" y="1518"/>
      <point x="-188" y="1518" type="curve" smooth="yes"/>
      <point x="-106" y="1518"/>
      <point x="48" y="1524"/>
      <point x="104" y="1538" type="curve" smooth="yes"/>
      <point x="186" y="1560"/>
      <point x="316" y="1606"/>
      <point x="316" y="1613" type="curve" smooth="yes"/>
      <point x="316" y="1622"/>
      <point x="316" y="1625"/>
      <point x="307" y="1625" type="curve" smooth="yes"/>
      <point x="292" y="1625"/>
      <point x="104" y="1616"/>
      <point x="7" y="1616" type="curve" smooth="yes"/>
      <point x="-219" y="1616"/>
      <point x="-355" y="1625"/>
      <point x="-507" y="1642" type="curve" smooth="yes"/>
      <point x="-534" y="1645"/>
      <point x="-567" y="1654"/>
      <point x="-567" y="1682" type="curve" smooth="yes"/>
      <point x="-567" y="1725"/>
      <point x="-451" y="1747"/>
      <point x="-412" y="1758" type="curve" smooth="yes"/>
      <point x="-250" y="1804"/>
      <point x="-204" y="1931"/>
    </contour>
  </outline>
</glyph>
<glyph name="fathasmall-ar" format="2">
  <unicode hex="0618"/>
  <anchor x="174" y="1499" name="_diaA"/>
  <anchor x="148" y="1715" name="diaA"/>
  <outline>
    <contour>
      <point x="281" y="1679" type="curve"/>
      <point x="281" y="1688"/>
      <point x="280" y="1689"/>
      <point x="274" y="1689" type="curve" smooth="yes"/>
      <point x="268" y="1689"/>
      <point x="248" y="1675"/>
      <point x="232" y="1666" type="curve" smooth="yes"/>
      <point x="87" y="1589" type="line" smooth="yes"/>
      <point x="65" y="1578"/>
      <point x="62" y="1575"/>
      <point x="52" y="1556" type="curve" smooth="yes"/>
      <point x="48" y="1549"/>
      <point x="45" y="1533"/>
      <point x="45" y="1531" type="curve"/>
      <point x="45" y="1525"/>
      <point x="45" y="1524"/>
      <point x="49" y="1524" type="curve" smooth="yes"/>
      <point x="55" y="1524"/>
      <point x="61" y="1531"/>
      <point x="86" y="1543" type="curve" smooth="yes"/>
      <point x="226" y="1615" type="line"/>
      <point x="239" y="1624"/>
      <point x="262" y="1631"/>
      <point x="271" y="1652" type="curve" smooth="yes"/>
      <point x="274" y="1660"/>
      <point x="281" y="1678"/>
    </contour>
  </outline>
</glyph>
<glyph name="kasrasmall-ar" format="2">
  <unicode hex="061A"/>
  <anchor x="210" y="-812" name="_dia2B"/>
  <anchor x="210" y="-812" name="_diaB"/>
  <anchor x="210" y="-812" name="_diaBtailDown"/>
  <anchor x="210" y="-812" name="_diaBtailUp"/>
  <anchor x="235" y="-1118" name="diaB"/>
  <outline>
    <contour>
      <point x="355" y="-893" type="curve"/>
      <point x="355" y="-886"/>
      <point x="354" y="-886"/>
      <point x="348" y="-886" type="curve" smooth="yes"/>
      <point x="344" y="-886"/>
      <point x="323" y="-899"/>
      <point x="306" y="-909" type="curve" smooth="yes"/>
      <point x="162" y="-985" type="line" smooth="yes"/>
      <point x="142" y="-996"/>
      <point x="139" y="-999"/>
      <point x="128" y="-1018" type="curve" smooth="yes"/>
      <point x="123" y="-1025"/>
      <point x="120" y="-1041"/>
      <point x="120" y="-1044" type="curve"/>
      <point x="120" y="-1048"/>
      <point x="122" y="-1050"/>
      <point x="126" y="-1050" type="curve" smooth="yes"/>
      <point x="131" y="-1050"/>
      <point x="139" y="-1044"/>
      <point x="162" y="-1032" type="curve" smooth="yes"/>
      <point x="302" y="-958" type="line" smooth="yes"/>
      <point x="315" y="-951"/>
      <point x="336" y="-944"/>
      <point x="345" y="-922" type="curve" smooth="yes"/>
      <point x="349" y="-914"/>
      <point x="355" y="-896"/>
    </contour>
  </outline>
</glyph>
<glyph name="semicolon-ar" format="2">
  <advance width="929"/>
  <unicode hex="061B"/>
  <anchor x="445" y="1425" name="diaA"/>
  <anchor x="467" y="-380" name="diaB"/>
  <outline>
    <contour>
      <point x="626" y="457" type="curve" smooth="yes"/>
      <point x="626" y="529"/>
      <point x="555" y="603"/>
      <point x="481" y="603" type="curve" smooth="yes"/>
      <point x="448" y="603"/>
      <point x="392" y="567"/>
      <point x="380" y="567" type="curve" smooth="yes"/>
      <point x="360" y="567"/>
      <point x="342" y="677"/>
      <point x="342" y="689" type="curve" smooth="yes"/>
      <point x="342" y="864"/>
      <point x="467" y="1001"/>
      <point x="522" y="1054" type="curve"/>
      <point x="487" y="1105" type="line"/>
      <point x="431" y="1085"/>
      <point x="318" y="941"/>
      <point x="268" y="808" type="curve" smooth="yes"/>
      <point x="247" y="748"/>
      <point x="244" y="692"/>
      <point x="244" y="641" type="curve" smooth="yes"/>
      <point x="244" y="499"/>
      <point x="323" y="309"/>
      <point x="479" y="309" type="curve" smooth="yes"/>
      <point x="561" y="309"/>
      <point x="626" y="374"/>
    </contour>
    <contour>
      <point x="592" y="20" type="curve" smooth="yes"/>
      <point x="592" y="91"/>
      <point x="535" y="148"/>
      <point x="463" y="148" type="curve" smooth="yes"/>
      <point x="394" y="148"/>
      <point x="338" y="91"/>
      <point x="338" y="20" type="curve" smooth="yes"/>
      <point x="338" y="-48"/>
      <point x="394" y="-104"/>
      <point x="463" y="-104" type="curve" smooth="yes"/>
      <point x="535" y="-104"/>
      <point x="592" y="-48"/>
    </contour>
  </outline>
</glyph>
